<?xml version="1.0" standalone="no"?>
<!DOCTYPE svg PUBLIC "-//W3C//DTD SVG 1.1//EN" "http://www.w3.org/Graphics/SVG/1.1/DTD/svg11.dtd" >
<svg xmlns="http://www.w3.org/2000/svg" xmlns:xlink="http://www.w3.org/1999/xlink" version="1.1">
<metadata>
Created by FontForge 20201107 at Tue Oct 31 16:50:20 2017
 By Jimmy Wärting
Copyright (c) 2017 by Clement Nicolle - StereoType. All rights reserved.
</metadata>
<defs>
<font id="Julietta" horiz-adv-x="579" >
  <font-face 
    font-family="Julietta"
    font-weight="400"
    font-stretch="normal"
    units-per-em="1000"
    panose-1="0 0 0 0 0 0 0 0 0 0"
    ascent="750"
    descent="-250"
    x-height="357"
    cap-height="652"
    bbox="-389.517 -394 2270 749.381"
    underline-thickness="50"
    underline-position="-100"
    unicode-range="U+0020-FB01"
  />
<missing-glyph horiz-adv-x="250" 
 />
    <glyph glyph-name=".notdef" horiz-adv-x="250" 
 />
    <glyph glyph-name="A" unicode="A" horiz-adv-x="414" 
d="M540 582q0 -2 -12.5 -25t-33.5 -59.5t-47.5 -85t-54.5 -101.5q8 -8 10 -15t2 -14q0 -5 -4 -2t-19 8q-27 -51 -52 -104t-44.5 -101.5t-31 -90t-11.5 -71.5q0 -13 -12 -11t-26.5 13.5t-26.5 30t-12 38.5q0 16 10 48t27 74t39 91t47 100q-11 1 -22 1h-23h-27.5t-27.5 -2
q-87 -101 -166 -198t-145 -173.5t-116.5 -123t-80.5 -46.5q-12 0 -25.5 5t-21.5 11.5t-8.5 11.5t13.5 5q18 0 49 20.5t70 56.5t85.5 85t97.5 105t104 117t105 121q-58 -7 -113 -20.5t-98 -29t-69 -32t-26 -29.5q0 -6 4.5 -8t9.5 -3t9.5 -2t4.5 -5t-7.5 -6t-17 0.5t-17 12
t-7.5 29.5q0 22 32 44t83.5 40t116.5 31t131 18q42 49 82.5 94.5t77 85.5t68.5 72t57 53l2 2q20 0 33 -8.5t21 -19.5t11 -22t3 -16zM253 344q15 0 28 -0.5t25 -1.5q28 57 55.5 110.5t50.5 95.5q-48 -48 -95.5 -99.5t-94.5 -104.5h31z" />
    <glyph glyph-name="AE" unicode="&#xc6;" horiz-adv-x="699" 
d="M780 581q1 -7 -2 -8.5t-8 -1t-12.5 2.5t-16.5 2q-26 0 -57 -7t-63.5 -18.5t-65 -26t-62.5 -28.5q-21 -37 -47.5 -84.5t-53.5 -100.5q8 -8 10 -15t2 -14q0 -5 -4 -2t-19 8q-6 -11 -11.5 -21.5t-11.5 -21.5q23 12 47 24t46 21.5t40.5 15t31.5 5.5q14 0 27 -7.5t22.5 -18
t16 -20.5t6.5 -16q2 -11 -5 -7.5t-19 3.5q-20 0 -54.5 -12.5t-73.5 -30.5t-78 -39t-68 -37q-10 -21 -18.5 -41t-16.5 -39q-8 -26 -12.5 -48.5t-2.5 -40.5q1 -16 11.5 -29t36.5 -13q17 0 47.5 8t67.5 21.5t77 31t75.5 35.5t64 36t41.5 32q4 5 14.5 -2t20.5 -18t15.5 -23
t0.5 -16q-3 -3 -21 -16.5t-47 -31t-66.5 -37.5t-80 -37t-88 -28t-88.5 -11q-18 0 -40.5 10t-44.5 27t-39.5 39.5t-24.5 48.5q-5 13 -5 24v4q0 19 9 50t24 70t35 83t43 90q-10 1 -20.5 1h-21.5h-27.5t-27.5 -2q-87 -101 -166 -198t-145 -173.5t-116.5 -123t-80.5 -46.5
q-12 0 -25.5 5t-21.5 11.5t-8.5 11.5t13.5 5q18 0 49 20.5t70 56.5t85.5 85t97.5 105t104 117t105 121q-58 -7 -113 -20.5t-98 -29t-69 -32t-26 -29.5q0 -6 4.5 -8t9.5 -3t9.5 -2t4.5 -5t-7.5 -6t-17 0.5t-17 12t-7.5 29.5q0 22 32 44t83.5 40t116.5 31t131 18
q42 49 82.5 94.5t77 85.5t68.5 72t57 53l2 2h3q5 0 7 -1h1h1q23 -4 41 -17t23 -24q50 17 94 29.5t67 12.5q11 0 23 -8t22.5 -19t18 -22.5t7.5 -17.5zM253 344q14 0 26.5 -0.5t23.5 -1.5q24 48 47.5 93t44.5 83q5 8 8.5 15.5t8.5 14.5q-48 -48 -95.5 -99.5t-94.5 -104.5h31z
" />
    <glyph glyph-name="Aacute" unicode="&#xc1;" horiz-adv-x="414" 
d="M503 528q0 5 -3 16t-11 22t-21 19.5t-33 8.5l-2 -2q-25 -21 -57 -53t-68.5 -72t-77 -85.5t-82.5 -94.5q-66 -5 -131 -18t-116.5 -31t-83.5 -40t-32 -44q0 -20 7.5 -29.5t17 -12t17 -0.5t7.5 6t-4.5 5t-9.5 2t-9.5 3t-4.5 8q0 13 26 29.5t69 32t98 29t113 20.5
q-78 -90 -154 -174t-141 -148t-115 -102.5t-78 -38.5q-14 0 -13.5 -5t8.5 -11.5t21.5 -11.5t25.5 -5q30 0 77 40t108.5 108.5t137 159t162.5 191.5q14 2 27.5 2h27.5h23t22 -1q-50 -102 -75 -174.5t-25 -105.5q0 -20 12 -38.5t26.5 -30t26.5 -13.5t12 11q0 60 31 145.5
t85 188.5q15 -5 19 -8t4 2q0 7 -2 14t-10 15q28 53 54.5 101.5t47.5 85t33.5 59.5t12.5 25zM216 290h-31q47 53 94.5 104.5t95.5 99.5q-23 -42 -50.5 -95.5t-55.5 -110.5q-12 1 -25 1.5t-28 0.5zM512 743q5 5 11.5 -0.5t12.5 -15t10 -21t4 -17.5t-17 -18.5t-41 -25t-50 -22
t-44 -9.5q-7 0 -13 5t-9 10.5t-2.5 10.5t6.5 5q9 0 26.5 11.5t37.5 27t38.5 32t29.5 27.5z" />
    <glyph glyph-name="Acircumflex" unicode="&#xc2;" horiz-adv-x="414" 
d="M353 621q6 0 24 11.5t40 29.5t42 39t30 40q2 4 9 5t15 0t14 -3.5t7 -6.5q6 -33 15 -54t17 -34t13.5 -19.5t5.5 -9.5q0 -7 -3.5 -8.5t-7.5 -1.5q-13 0 -26.5 10.5t-24.5 23.5q-13 15 -26 34q-23 -20 -45 -36q-19 -14 -39 -24.5t-34 -10.5q-23 0 -29.5 7.5t3.5 7.5z
M503 528q0 5 -3 16t-11 22t-21 19.5t-33 8.5l-2 -2q-25 -21 -57 -53t-68.5 -72t-77 -85.5t-82.5 -94.5q-66 -5 -131 -18t-116.5 -31t-83.5 -40t-32 -44q0 -20 7.5 -29.5t17 -12t17 -0.5t7.5 6t-4.5 5t-9.5 2t-9.5 3t-4.5 8q0 13 26 29.5t69 32t98 29t113 20.5
q-78 -90 -154 -174t-141 -148t-115 -102.5t-78 -38.5q-14 0 -13.5 -5t8.5 -11.5t21.5 -11.5t25.5 -5q30 0 77 40t108.5 108.5t137 159t162.5 191.5q14 2 27.5 2h27.5h23t22 -1q-50 -102 -75 -174.5t-25 -105.5q0 -20 12 -38.5t26.5 -30t26.5 -13.5t12 11q0 60 31 145.5
t85 188.5q15 -5 19 -8t4 2q0 7 -2 14t-10 15q28 53 54.5 101.5t47.5 85t33.5 59.5t12.5 25zM216 290h-31q47 53 94.5 104.5t95.5 99.5q-23 -42 -50.5 -95.5t-55.5 -110.5q-12 1 -25 1.5t-28 0.5z" />
    <glyph glyph-name="Adieresis" unicode="&#xc4;" horiz-adv-x="414" 
d="M441 679q0 -16 -12 -33t-26 -17q-30 0 -30 30q0 7 3.5 16t9.5 16t13 12t14 5q28 0 28 -29zM560 686q0 -15 -7.5 -29t-22.5 -14q-14 0 -24 6.5t-10 21.5q0 16 13 31.5t27 15.5q15 0 19.5 -8t4.5 -24zM503 528q0 5 -3 16t-11 22t-21 19.5t-33 8.5l-2 -2q-25 -21 -57 -53
t-68.5 -72t-77 -85.5t-82.5 -94.5q-66 -5 -131 -18t-116.5 -31t-83.5 -40t-32 -44q0 -20 7.5 -29.5t17 -12t17 -0.5t7.5 6t-4.5 5t-9.5 2t-9.5 3t-4.5 8q0 13 26 29.5t69 32t98 29t113 20.5q-78 -90 -154 -174t-141 -148t-115 -102.5t-78 -38.5q-14 0 -13.5 -5t8.5 -11.5
t21.5 -11.5t25.5 -5q30 0 77 40t108.5 108.5t137 159t162.5 191.5q14 2 27.5 2h27.5h23t22 -1q-50 -102 -75 -174.5t-25 -105.5q0 -20 12 -38.5t26.5 -30t26.5 -13.5t12 11q0 60 31 145.5t85 188.5q15 -5 19 -8t4 2q0 7 -2 14t-10 15q28 53 54.5 101.5t47.5 85t33.5 59.5
t12.5 25zM216 290h-31q47 53 94.5 104.5t95.5 99.5q-23 -42 -50.5 -95.5t-55.5 -110.5q-12 1 -25 1.5t-28 0.5z" />
    <glyph glyph-name="Agrave" unicode="&#xc0;" horiz-adv-x="414" 
d="M425 747q11 -11 29.5 -27.5t38.5 -32t37.5 -27t26.5 -11.5q6 0 6.5 -5t-2.5 -10.5t-9 -10.5t-13 -5q-18 0 -44 9.5t-50 22t-41 25t-17 18.5t4 17.5t10 21t12.5 15t11.5 0.5zM503 528q0 5 -3 16t-11 22t-21 19.5t-33 8.5l-2 -2q-25 -21 -57 -53t-68.5 -72t-77 -85.5
t-82.5 -94.5q-66 -5 -131 -18t-116.5 -31t-83.5 -40t-32 -44q0 -20 7.5 -29.5t17 -12t17 -0.5t7.5 6t-4.5 5t-9.5 2t-9.5 3t-4.5 8q0 13 26 29.5t69 32t98 29t113 20.5q-78 -90 -154 -174t-141 -148t-115 -102.5t-78 -38.5q-14 0 -13.5 -5t8.5 -11.5t21.5 -11.5t25.5 -5
q30 0 77 40t108.5 108.5t137 159t162.5 191.5q14 2 27.5 2h27.5h23t22 -1q-50 -102 -75 -174.5t-25 -105.5q0 -20 12 -38.5t26.5 -30t26.5 -13.5t12 11q0 60 31 145.5t85 188.5q15 -5 19 -8t4 2q0 7 -2 14t-10 15q28 53 54.5 101.5t47.5 85t33.5 59.5t12.5 25zM216 290h-31
q47 53 94.5 104.5t95.5 99.5q-23 -42 -50.5 -95.5t-55.5 -110.5q-12 1 -25 1.5t-28 0.5z" />
    <glyph glyph-name="Aring" unicode="&#xc5;" horiz-adv-x="414" 
d="M495 748q16 0 24.5 -5t12.5 -11t3.5 -11t-2.5 -5q-5 0 -6 3t-7 3q-10 0 -20.5 -6t-18.5 -15.5t-13.5 -21t-5.5 -21.5q0 -7 3.5 -13.5t14.5 -6.5q12 0 19 7.5t11 17.5t5.5 19.5t1.5 12.5t4.5 2t9.5 -4t9.5 -8t4.5 -11t-5 -15.5t-14 -18.5t-21.5 -15t-26.5 -6
q-29 0 -41.5 17.5t-12.5 33.5q0 15 7 29t17.5 25t23 17.5t23.5 6.5zM503 528q0 -2 -12.5 -25t-33.5 -59.5t-47.5 -85t-54.5 -101.5q8 -8 10 -15t2 -14q0 -5 -4 -2t-19 8q-54 -103 -85 -188.5t-31 -145.5q0 -13 -12 -11t-26.5 13.5t-26.5 30t-12 38.5q0 33 25 105.5t75 174.5
q-11 1 -22 1h-23h-27.5t-27.5 -2q-87 -101 -162.5 -191.5t-137 -159t-108.5 -108.5t-77 -40q-12 0 -25.5 5t-21.5 11.5t-8.5 11.5t13.5 5q28 0 78 38.5t115 102.5t141 148t154 174q-58 -7 -113 -20.5t-98 -29t-69 -32t-26 -29.5q0 -6 4.5 -8t9.5 -3t9.5 -2t4.5 -5t-7.5 -6
t-17 0.5t-17 12t-7.5 29.5q0 22 32 44t83.5 40t116.5 31t131 18q42 49 82.5 94.5t77 85.5t68.5 72t57 53l2 2q20 0 33 -8.5t21 -19.5t11 -22t3 -16zM216 290q15 0 28 -0.5t25 -1.5q28 57 55.5 110.5t50.5 95.5q-48 -48 -95.5 -99.5t-94.5 -104.5h31z" />
    <glyph glyph-name="Atilde" unicode="&#xc3;" horiz-adv-x="414" 
d="M447 715q14 0 24.5 -5t18.5 -10.5t16 -10.5t17 -5q31 0 45.5 8.5t19.5 8.5q11 0 11 -11q0 -3 -5 -11.5t-15.5 -17.5t-25.5 -16.5t-35 -7.5q-15 0 -26 6.5t-21 14t-21.5 14t-27.5 6.5q-19 0 -28 -4q-2 0 -3 2q-3 3 -3 8q0 3 5 8t13 10.5t18.5 9t22.5 3.5zM503 528
q0 -2 -12.5 -25t-33.5 -59.5t-47.5 -85t-54.5 -101.5q8 -8 10 -15t2 -14q0 -5 -4 -2t-19 8q-54 -103 -85 -188.5t-31 -145.5q0 -13 -12 -11t-26.5 13.5t-26.5 30t-12 38.5q0 33 25 105.5t75 174.5q-11 1 -22 1h-23h-27.5t-27.5 -2q-87 -101 -162.5 -191.5t-137 -159
t-108.5 -108.5t-77 -40q-12 0 -25.5 5t-21.5 11.5t-8.5 11.5t13.5 5q28 0 78 38.5t115 102.5t141 148t154 174q-58 -7 -113 -20.5t-98 -29t-69 -32t-26 -29.5q0 -6 4.5 -8t9.5 -3t9.5 -2t4.5 -5t-7.5 -6t-17 0.5t-17 12t-7.5 29.5q0 22 32 44t83.5 40t116.5 31t131 18
q42 49 82.5 94.5t77 85.5t68.5 72t57 53l2 2q20 0 33 -8.5t21 -19.5t11 -22t3 -16zM216 290q15 0 28 -0.5t25 -1.5q28 57 55.5 110.5t50.5 95.5q-48 -48 -95.5 -99.5t-94.5 -104.5h31z" />
    <glyph glyph-name="B" unicode="B" horiz-adv-x="580" 
d="M393 282q24 -8 46 -20.5t38.5 -29.5t26.5 -38t10 -45q0 -34 -21 -72.5t-57.5 -76.5t-85 -72t-103.5 -60t-114 -41.5t-116 -15.5q-58 0 -92.5 10.5t-52.5 25.5t-23 31.5t-5 27.5q0 9 4 13.5t9 4t9 -4.5t4 -11t3 -14.5t11 -13.5t23.5 -9.5t39.5 -3.5q57 0 117.5 17
t118.5 44.5t109 62.5t90 71t61.5 70t22.5 59q0 22 -18.5 30t-43.5 8q-39 0 -71.5 -9.5t-57.5 -21t-42 -21t-26 -9.5q-10 0 -22 15q-26 -42 -47.5 -80.5t-37.5 -71.5t-25 -58t-9 -38q0 -7 -10 -4t-21.5 13t-21.5 25.5t-10 33.5q0 16 21.5 61t54.5 103.5t72.5 122.5t77 117
t67.5 87.5t43 34.5q15 0 29.5 -3.5t25.5 -8.5t15 -12t-2 -14q-34 -36 -73 -87.5t-77 -108.5q28 8 59.5 23.5t62 35t58 42t48 44.5t33 41t12.5 33q0 23 -14 37t-33 22t-39.5 11t-32.5 3q-43 0 -90.5 -14.5t-93.5 -38t-87.5 -53.5t-72.5 -60t-49.5 -57.5t-18.5 -47.5
q0 -15 4 -21.5t8.5 -10.5t8.5 -7.5t4 -10.5q0 -9 -14 -7.5t-31.5 13t-31.5 33.5t-14 53q0 25 17.5 57t48.5 65t73 65t91 57t102.5 40t107.5 15q53 0 90 -21t60 -48.5t33.5 -56t10.5 -43.5q0 -28 -14.5 -56t-38.5 -54.5t-55.5 -51t-65.5 -44.5z" />
    <glyph glyph-name="C" unicode="C" horiz-adv-x="460" 
d="M259 177q-10 0 -18.5 3t-13 7t-3.5 7t9 3q13 0 37 18t53 47.5t59 67t55 77t40.5 77t15.5 67.5q0 11 -12 11q-18 0 -60.5 -26t-96 -71t-111 -104.5t-105 -126.5t-78 -137t-30.5 -136q0 -19 5 -36.5t17.5 -31.5t34 -22.5t55.5 -8.5q56 0 103.5 16.5t86 40t68.5 50.5t50 48
l30 31.5t10 2.5q0 -5 -10 -24.5t-29 -46.5t-46 -57t-62.5 -55t-78 -41.5t-91.5 -16.5q-24 0 -60 11.5t-69 38t-57 70t-24 108.5q0 60 30 128t77.5 135t105.5 128t115 107.5t105.5 74.5t76.5 28q7 0 27 -10t40 -26t36 -36.5t16 -41.5q0 -19 -14 -51.5t-37 -71.5t-53.5 -79
t-64.5 -72.5t-68.5 -53t-65.5 -20.5z" />
    <glyph glyph-name="Ccedilla" unicode="&#xc7;" horiz-adv-x="460" 
d="M112 -138q56 0 103.5 16.5t86 40t68.5 50.5t50 48l30 31.5t10 2.5q0 -5 -10 -24.5t-29 -46.5t-46 -57t-62.5 -55t-78 -41.5t-91.5 -16.5q-7 0 -11 1q10 -20 17 -45t7 -53q0 -23 -5.5 -42.5t-13.5 -33.5t-17 -22.5t-16 -8.5q-13 0 -26.5 4.5t-24.5 10.5t-18 12t-7 9
q0 8 5 9.5t11 1.5q3 0 14.5 2t23.5 10t21.5 23.5t9.5 43.5q0 37 -8.5 57t-18.5 31q-26 9 -53 25.5t-49 42.5t-36.5 63t-14.5 87q0 60 30 128t77.5 135t105.5 128t115 107.5t105.5 74.5t76.5 28q7 0 27 -10t40 -26t36 -36.5t16 -41.5q0 -19 -14 -51.5t-37 -71.5t-53.5 -79
t-64.5 -72.5t-68.5 -53t-65.5 -20.5q-10 0 -18.5 3t-13 7t-3.5 7t9 3q13 0 37 18t53 47.5t59 67t55 77t40.5 77t15.5 67.5q0 11 -12 11q-18 0 -60.5 -26t-96 -71t-111 -104.5t-105 -126.5t-78 -137t-30.5 -136q0 -19 5 -36.5t17.5 -31.5t34 -22.5t55.5 -8.5z" />
    <glyph glyph-name="D" unicode="D" horiz-adv-x="653" 
d="M457 642q45 0 84.5 -20.5t69 -54.5t46.5 -79.5t17 -94.5q0 -66 -28.5 -132.5t-75.5 -127.5t-106 -114t-120 -92.5t-118 -62t-100 -22.5q-29 0 -53.5 8.5t-43.5 21.5t-29.5 28.5t-10.5 29.5q0 7 6.5 15.5t14.5 14.5t14.5 8t6.5 -4q0 -5 -2.5 -8t-5.5 -6.5t-5.5 -8
t-2.5 -13.5q0 -17 17.5 -21.5t37.5 -4.5q10 0 20 1.5t21 3.5q-7 8 -7 20q0 19 17.5 63.5t45 100t60.5 115t63.5 109t55 81.5t34.5 32q8 0 22 -5.5t26 -13t18.5 -16t0.5 -14.5q-20 -20 -44.5 -53t-50 -73t-51.5 -84.5t-48.5 -88t-40.5 -82t-28 -67.5q47 20 97 52t98.5 73
t91.5 87.5t76 96.5t52 100t19 97q0 39 -9.5 66t-26 43t-37.5 23t-44 7q-59 0 -118 -20.5t-114 -53t-102.5 -73.5t-83 -82.5t-55.5 -80t-20 -64.5q0 -19 6.5 -27t14.5 -12t14.5 -7t6.5 -12q0 -11 -17.5 -8t-39 17.5t-39 39t-17.5 56.5q0 29 20.5 69t57 84t86 87t107.5 77
t121.5 55t127.5 21z" />
    <glyph glyph-name="E" unicode="E" horiz-adv-x="545" 
d="M603 622q11 0 23 -8t21.5 -19t16 -22.5t6.5 -17.5q0 -7 -3 -8.5t-8.5 -1t-12.5 2.5t-16 2q-30 0 -66.5 -9t-74.5 -23t-76 -31t-70 -33q-34 -45 -72.5 -99.5t-74.5 -111.5q24 12 49.5 24.5t48.5 22t43 15.5t33 6q14 0 26.5 -7.5t21.5 -18t14.5 -20.5t5.5 -16
q0 -11 -6.5 -7.5t-18.5 3.5q-21 0 -57 -13t-77 -31.5t-81.5 -39.5t-70.5 -37q-26 -51 -42 -94t-16 -73q0 -16 9.5 -29t35.5 -13q17 0 48 8t69 21.5t79.5 31t78.5 35.5t66.5 36t43.5 32q5 5 14.5 -2t18.5 -18t14 -23t0 -16q-3 -3 -22 -16.5t-49 -31t-69.5 -37.5t-83.5 -37
t-90 -28t-89 -11q-20 0 -45 12t-46.5 32.5t-36.5 47.5t-15 57q0 42 20.5 97.5t53 116.5t72.5 122t79 114q-1 8 -1 14.5v11.5q0 3 10.5 9.5t28.5 15.5q40 51 68.5 82t34.5 31q27 0 47.5 -15t25.5 -27q51 17 96 29.5t68 12.5z" />
    <glyph glyph-name="Eacute" unicode="&#xc9;" horiz-adv-x="545" 
d="M576 572q-23 0 -68 -12.5t-96 -29.5q-5 12 -25.5 27t-47.5 15q-6 0 -34.5 -31t-68.5 -82q-18 -9 -28.5 -15.5t-10.5 -9.5v-11.5t1 -14.5q-39 -53 -75 -106.5t-63 -104.5t-43.5 -99t-16.5 -90q0 -30 15 -57t36.5 -47.5t46.5 -32.5t45 -12q43 0 89 11t90 28t83.5 37
t69.5 37.5t49 31t22 16.5q5 4 0 16t-14 23t-18.5 18t-14.5 2q-14 -14 -43.5 -32t-66.5 -36t-78.5 -35.5t-79.5 -31t-69 -21.5t-48 -8q-26 0 -35.5 13t-9.5 29q0 15 2 29t7.5 29.5t14 34.5t21.5 44q30 16 70.5 37t81.5 39.5t77 31.5t57 13q12 0 18.5 -3.5t6.5 7.5
q0 6 -5.5 16t-14.5 20.5t-21.5 18t-26.5 7.5q-13 0 -33 -6t-43 -15.5t-48.5 -22t-49.5 -24.5q36 57 67.5 101.5t65.5 89.5q32 16 70 33t76 31t74.5 23t66.5 9q9 0 16 -2t12.5 -2.5t8.5 1t3 8.5q0 6 -6.5 17.5t-16 22.5t-21.5 19t-23 8zM528 747q5 5 11.5 -0.5t12.5 -15
t10 -21t4 -17.5t-17 -18.5t-41 -25t-50 -22t-44 -9.5q-7 0 -13 5t-9 10.5t-2.5 10.5t6.5 5q9 0 26.5 11.5t37.5 27t38.5 32t29.5 27.5z" />
    <glyph glyph-name="Ecircumflex" unicode="&#xca;" horiz-adv-x="545" 
d="M576 572q-23 0 -68 -12.5t-96 -29.5q-5 12 -25.5 27t-47.5 15q-6 0 -34.5 -31t-68.5 -82q-18 -9 -28.5 -15.5t-10.5 -9.5v-11.5t1 -14.5q-39 -53 -75 -106.5t-63 -104.5t-43.5 -99t-16.5 -90q0 -30 15 -57t36.5 -47.5t46.5 -32.5t45 -12q43 0 89 11t90 28t83.5 37
t69.5 37.5t49 31t22 16.5q5 4 0 16t-14 23t-18.5 18t-14.5 2q-14 -14 -43.5 -32t-66.5 -36t-78.5 -35.5t-79.5 -31t-69 -21.5t-48 -8q-26 0 -35.5 13t-9.5 29q0 15 2 29t7.5 29.5t14 34.5t21.5 44q30 16 70.5 37t81.5 39.5t77 31.5t57 13q12 0 18.5 -3.5t6.5 7.5
q0 6 -5.5 16t-14.5 20.5t-21.5 18t-26.5 7.5q-13 0 -33 -6t-43 -15.5t-48.5 -22t-49.5 -24.5q36 57 67.5 101.5t65.5 89.5q32 16 70 33t76 31t74.5 23t66.5 9q9 0 16 -2t12.5 -2.5t8.5 1t3 8.5q0 6 -6.5 17.5t-16 22.5t-21.5 19t-23 8zM386 622q6 0 24 11.5t40 29.5t42 39
t30 40q2 4 9 5t15 0t14 -3.5t7 -6.5q6 -33 15 -54t17 -34t13.5 -19.5t5.5 -9.5q0 -7 -3.5 -8.5t-7.5 -1.5q-13 0 -26.5 10.5t-24.5 23.5q-13 15 -26 34q-23 -20 -45 -36q-19 -14 -39 -24.5t-34 -10.5q-23 0 -29.5 7.5t3.5 7.5z" />
    <glyph glyph-name="Edieresis" unicode="&#xcb;" horiz-adv-x="545" 
d="M576 572q-23 0 -68 -12.5t-96 -29.5q-5 12 -25.5 27t-47.5 15q-6 0 -34.5 -31t-68.5 -82q-18 -9 -28.5 -15.5t-10.5 -9.5v-11.5t1 -14.5q-39 -53 -75 -106.5t-63 -104.5t-43.5 -99t-16.5 -90q0 -30 15 -57t36.5 -47.5t46.5 -32.5t45 -12q43 0 89 11t90 28t83.5 37
t69.5 37.5t49 31t22 16.5q5 4 0 16t-14 23t-18.5 18t-14.5 2q-14 -14 -43.5 -32t-66.5 -36t-78.5 -35.5t-79.5 -31t-69 -21.5t-48 -8q-26 0 -35.5 13t-9.5 29q0 15 2 29t7.5 29.5t14 34.5t21.5 44q30 16 70.5 37t81.5 39.5t77 31.5t57 13q12 0 18.5 -3.5t6.5 7.5
q0 6 -5.5 16t-14.5 20.5t-21.5 18t-26.5 7.5q-13 0 -33 -6t-43 -15.5t-48.5 -22t-49.5 -24.5q36 57 67.5 101.5t65.5 89.5q32 16 70 33t76 31t74.5 23t66.5 9q9 0 16 -2t12.5 -2.5t8.5 1t3 8.5q0 6 -6.5 17.5t-16 22.5t-21.5 19t-23 8zM468 679q0 -16 -12 -33t-26 -17
q-30 0 -30 30q0 7 3.5 16t9.5 16t13 12t14 5q28 0 28 -29zM587 676q0 -15 -7.5 -29t-22.5 -14q-14 0 -24 6.5t-10 21.5q0 16 13 31.5t27 15.5q15 0 19.5 -8t4.5 -24z" />
    <glyph glyph-name="Egrave" unicode="&#xc8;" horiz-adv-x="545" 
d="M576 572q-23 0 -68 -12.5t-96 -29.5q-5 12 -25.5 27t-47.5 15q-6 0 -34.5 -31t-68.5 -82q-18 -9 -28.5 -15.5t-10.5 -9.5v-11.5t1 -14.5q-39 -53 -75 -106.5t-63 -104.5t-43.5 -99t-16.5 -90q0 -30 15 -57t36.5 -47.5t46.5 -32.5t45 -12q43 0 89 11t90 28t83.5 37
t69.5 37.5t49 31t22 16.5q5 4 0 16t-14 23t-18.5 18t-14.5 2q-14 -14 -43.5 -32t-66.5 -36t-78.5 -35.5t-79.5 -31t-69 -21.5t-48 -8q-26 0 -35.5 13t-9.5 29q0 15 2 29t7.5 29.5t14 34.5t21.5 44q30 16 70.5 37t81.5 39.5t77 31.5t57 13q12 0 18.5 -3.5t6.5 7.5
q0 6 -5.5 16t-14.5 20.5t-21.5 18t-26.5 7.5q-13 0 -33 -6t-43 -15.5t-48.5 -22t-49.5 -24.5q36 57 67.5 101.5t65.5 89.5q32 16 70 33t76 31t74.5 23t66.5 9q9 0 16 -2t12.5 -2.5t8.5 1t3 8.5q0 6 -6.5 17.5t-16 22.5t-21.5 19t-23 8zM425 747q11 -11 29.5 -27.5t38.5 -32
t37.5 -27t26.5 -11.5q6 0 6.5 -5t-2.5 -10.5t-9 -10.5t-13 -5q-18 0 -44 9.5t-50 22t-41 25t-17 18.5t4 17.5t10 21t12.5 15t11.5 0.5z" />
    <glyph glyph-name="Euro" unicode="&#x20ac;" horiz-adv-x="493" 
d="M473 209q0 10 5 7t10.5 -12t10.5 -21t5 -20q0 -5 -11.5 -21.5t-33.5 -37.5t-52 -44.5t-67 -43t-80 -32t-89 -12.5q-45 0 -80.5 14.5t-61 38.5t-39 55t-13.5 64q0 11 1 21.5t3 21.5q-38 -6 -52.5 -11t-17.5 -5q-4 0 -8 6.5t-4 17.5q0 3 24.5 10t65.5 15q3 11 7.5 22.5
t9.5 22.5q-56 -9 -81 -18t-28 -9q-5 0 -10.5 8t-5.5 21q0 5 41 15.5t104 22.5q31 55 74.5 104.5t91 87t92.5 59.5t79 22q38 0 59.5 -11t32 -27.5t11 -35.5t-3 -35.5t-9.5 -27.5t-9 -11q-7 0 -15.5 8t-8.5 16q0 5 6.5 15t11.5 19.5t4.5 17t-14.5 7.5q-22 0 -52 -15t-63.5 -40
t-68.5 -58.5t-67 -70.5q40 5 78.5 7.5t73.5 2.5q13 0 25 -11.5t19.5 -26t9 -26t-5.5 -11.5t-10.5 3t-14.5 6.5t-34.5 6.5t-71.5 3q-59 0 -107 -3l-27 -39q38 5 76.5 8t72.5 3q10 0 25.5 -12.5t27.5 -27.5t15.5 -27.5t-8.5 -12.5q-6 0 -11.5 4t-17.5 9.5t-34 9.5t-61 4h-59.5
t-50.5 -2q-14 -27 -21.5 -51.5t-7.5 -46.5q0 -18 4 -34t16.5 -28.5t34.5 -20t58 -7.5q40 0 77.5 13t71.5 33t62 44t48 46t31.5 39.5t11.5 24.5z" />
    <glyph glyph-name="F" unicode="F" horiz-adv-x="395" 
d="M824 642q7 -5 21 -23.5t25 -38.5t14.5 -35.5t-9.5 -15.5q-8 0 -22 10.5t-42.5 22.5t-76 22.5t-122.5 10.5q-110 0 -204 -21t-171 -53.5t-135.5 -72t-98.5 -75.5t-60.5 -64t-20.5 -38t11.5 -18t28.5 -15.5t36.5 -15.5t36.5 -18.5t28.5 -24.5t11.5 -33q0 -11 -1 -16
q20 35 43 73t47 76q-43 -11 -73.5 -24t-45.5 -29q-3 -3 -6 -0.5t-5 8t-3 11t-1 8.5q0 12 13.5 25.5t38 27t58 26.5t73.5 23q27 40 52 74.5t46 60.5t37 41t24 15q9 0 21 -3.5t22 -9.5t14.5 -13t-2.5 -14q-19 -20 -46 -53.5t-58 -77.5q22 3 44 4t44 1q12 0 23.5 -11t17 -24.5
t2 -24.5t-20.5 -11q-42 0 -83 -2.5t-79 -7.5q-38 -57 -75 -118.5t-66 -118t-47 -102.5t-18 -72q0 -7 -10 -4.5t-22.5 12.5t-22.5 26t-10 36q0 17 16.5 55t42.5 89q0 27 -13 43t-33 27t-42.5 19t-42.5 19.5t-33 29.5t-13 48q0 36 28.5 78.5t79 86.5t120 85t152 73t174.5 51.5
t187 19.5q39 0 72.5 -4.5t59.5 -10.5t43.5 -13t25.5 -12z" />
    <glyph glyph-name="G" unicode="G" horiz-adv-x="643" 
d="M596 342q33 0 56.5 -14t36 -30.5t13 -30t-12.5 -13.5q-6 0 -11.5 2t-14 5t-22.5 5.5t-39 2.5q-1 -1 -1 -2q-12 -11 -33 -39.5t-45.5 -67t-50.5 -85.5t-47 -95.5t-34.5 -97t-13.5 -89.5q0 -14 1.5 -19t1.5 -12q0 -11 -12.5 -8t-28 15.5t-28 32.5t-12.5 44q0 57 33 130
t84 164q-40 -42 -86.5 -87.5t-90 -83.5t-79.5 -62.5t-56 -24.5q-17 0 -38 10t-39 27t-30.5 39.5t-12.5 46.5q0 66 27.5 141t73 148t104 140t120.5 117.5t122.5 81t110.5 30.5t78 -19.5t39.5 -43t10 -43t-11.5 -19.5t-13 8t-5 18t-7.5 18t-20.5 8q-58 0 -121 -29.5
t-123 -79.5t-113.5 -114.5t-94 -134.5t-64.5 -141t-24 -132q0 -25 19 -25q22 0 56.5 21.5t75 54.5t82.5 72.5t78.5 76t63 65t35.5 38.5q-52 -7 -89.5 -18t-61.5 -22t-35.5 -21.5t-11.5 -15.5q0 -8 2 -13t2 -10q0 -8 -3 -9.5t-9 -1.5q-14 0 -20 18.5t-6 38.5q0 34 30 59.5
t79 42t111 24.5t126 8z" />
    <glyph glyph-name="H" unicode="H" horiz-adv-x="515" 
d="M647 697q15 0 30 -5t25.5 -12t14 -15t-3.5 -15q-63 -60 -124.5 -151t-115.5 -193q7 -8 17.5 -24t18.5 -32t9 -28t-12 -12q-8 0 -27.5 5.5t-45.5 11.5q-31 -65 -57 -125.5t-44.5 -111.5t-29 -88.5t-10.5 -54.5q0 -14 0.5 -21t1.5 -11.5t1.5 -8t0.5 -9.5q0 -12 -16.5 -9
t-36 15t-35.5 30t-16 36q0 21 11 57.5t30.5 84.5t45.5 104.5t57 116.5q-42 -1 -78 -5t-68 -10q-23 -45 -43 -87.5t-34.5 -77.5t-23.5 -60t-9 -37q-1 -17 -0.5 -25.5t1 -13t1.5 -7.5t1 -7q-1 -12 -13.5 -10.5t-27.5 12t-27.5 27.5t-12.5 36q0 12 7 35t19.5 53t29.5 66t37 74
q-29 -7 -48.5 -12.5t-30.5 -5.5q-15 0 -27 7.5t-20.5 18t-13.5 22.5t-5 21q0 6 20.5 25.5t54 49t76 65.5t86 74.5t84 76.5t71.5 72q11 13 19 23.5t16 17.5q9 9 21 5t21.5 -13t14 -19.5t-0.5 -15.5q-19 -18 -42.5 -50t-50 -74t-54.5 -90.5t-55 -98.5q74 15 147 20
q33 61 67 120t65.5 108.5t59 87t48.5 56.5q11 11 29 11zM-3 238q6 0 44.5 10.5t95.5 24.5q24 45 49 89t51 86q-25 -21 -53.5 -44.5t-56 -46.5t-52.5 -44.5t-43.5 -38t-28 -26.5t-6.5 -10z" />
    <glyph glyph-name="I" unicode="I" horiz-adv-x="424" 
d="M-14 275q0 32 16.5 73t43 82.5t59.5 81.5t66.5 71t64 50t50.5 19q21 0 46 -7.5t46 -27.5t35.5 -55.5t14.5 -90.5q0 -61 -23.5 -133.5t-60.5 -146t-83 -141.5t-90.5 -121t-82.5 -84.5t-60 -31.5q-14 0 -26.5 6.5t-20.5 14t-10.5 14t4.5 6.5q15 0 49 31t76 82t86.5 117
t81.5 137t61 141t24 129q0 36 -3 59t-7.5 35.5t-10 17t-9.5 4.5q-12 0 -36 -17t-53 -45t-59 -64.5t-54.5 -75.5t-40.5 -78t-16 -71q0 -39 9.5 -55t20.5 -20.5t20 -3t9 -2.5q-1 -11 -22.5 -10.5t-47 13t-46.5 37t-21 60.5z" />
    <glyph glyph-name="Iacute" unicode="&#xcd;" horiz-adv-x="424" 
d="M-13 261q0 31 14.5 66t37.5 69.5t52.5 65.5t59.5 54.5t58.5 37.5t48.5 14q21 0 45.5 -7.5t45.5 -27t35.5 -53.5t14.5 -88q0 -59 -21.5 -125t-55.5 -130.5t-75.5 -123t-83 -103t-77.5 -71t-58 -26.5q-14 0 -26 6t-20 13.5t-10.5 14t4.5 6.5q15 0 46.5 25.5t70.5 68.5
t79.5 100t74.5 119t55.5 125.5t21.5 120.5q0 35 -3 57t-7.5 34.5t-10 17t-9.5 4.5q-12 0 -33.5 -12t-47 -33t-52 -49t-48 -59.5t-35 -65t-13.5 -64.5q0 -38 9 -53t20 -19.5t20 -3t9 -2.5q-1 -11 -22.5 -10t-46.5 13t-46 35.5t-21 58.5zM386 743q5 5 11.5 -0.5t12.5 -15
t10 -21t4 -17.5t-17 -18.5t-41 -25t-50 -22t-44 -9.5q-7 0 -13 5t-9 10.5t-2.5 10.5t6.5 5q9 0 26.5 11.5t37.5 27t38.5 32t29.5 27.5z" />
    <glyph glyph-name="Icircumflex" unicode="&#xce;" horiz-adv-x="424" 
d="M-13 261q0 31 14.5 66t37.5 69.5t52.5 65.5t59.5 54.5t58.5 37.5t48.5 14q21 0 45.5 -7.5t45.5 -27t35.5 -53.5t14.5 -88q0 -59 -21.5 -125t-55.5 -130.5t-75.5 -123t-83 -103t-77.5 -71t-58 -26.5q-14 0 -26 6t-20 13.5t-10.5 14t4.5 6.5q15 0 46.5 25.5t70.5 68.5
t79.5 100t74.5 119t55.5 125.5t21.5 120.5q0 35 -3 57t-7.5 34.5t-10 17t-9.5 4.5q-12 0 -33.5 -12t-47 -33t-52 -49t-48 -59.5t-35 -65t-13.5 -64.5q0 -38 9 -53t20 -19.5t20 -3t9 -2.5q-1 -11 -22.5 -10t-46.5 13t-46 35.5t-21 58.5zM191 621q6 0 24 11.5t40 29.5t42 39
t30 40q2 4 9 5t15 0t14 -3.5t7 -6.5q6 -33 15 -54t17 -34t13.5 -19.5t5.5 -9.5q0 -7 -3.5 -8.5t-7.5 -1.5q-13 0 -26.5 10.5t-24.5 23.5q-13 15 -26 34q-23 -20 -45 -36q-19 -14 -39 -24.5t-34 -10.5q-23 0 -29.5 7.5t3.5 7.5z" />
    <glyph glyph-name="Idieresis" unicode="&#xcf;" horiz-adv-x="424" 
d="M-13 261q0 31 14.5 66t37.5 69.5t52.5 65.5t59.5 54.5t58.5 37.5t48.5 14q21 0 45.5 -7.5t45.5 -27t35.5 -53.5t14.5 -88q0 -59 -21.5 -125t-55.5 -130.5t-75.5 -123t-83 -103t-77.5 -71t-58 -26.5q-14 0 -26 6t-20 13.5t-10.5 14t4.5 6.5q15 0 46.5 25.5t70.5 68.5
t79.5 100t74.5 119t55.5 125.5t21.5 120.5q0 35 -3 57t-7.5 34.5t-10 17t-9.5 4.5q-12 0 -33.5 -12t-47 -33t-52 -49t-48 -59.5t-35 -65t-13.5 -64.5q0 -38 9 -53t20 -19.5t20 -3t9 -2.5q-1 -11 -22.5 -10t-46.5 13t-46 35.5t-21 58.5zM280 679q0 -16 -12 -33t-26 -17
q-30 0 -30 30q0 7 3.5 16t9.5 16t13 12t14 5q28 0 28 -29zM400 673q0 -15 -7.5 -29t-22.5 -14q-14 0 -24 6.5t-10 21.5q0 16 13 31.5t27 15.5q15 0 19.5 -8t4.5 -24z" />
    <glyph glyph-name="Igrave" unicode="&#xcc;" horiz-adv-x="424" 
d="M-13 261q0 31 14.5 66t37.5 69.5t52.5 65.5t59.5 54.5t58.5 37.5t48.5 14q21 0 45.5 -7.5t45.5 -27t35.5 -53.5t14.5 -88q0 -59 -21.5 -125t-55.5 -130.5t-75.5 -123t-83 -103t-77.5 -71t-58 -26.5q-14 0 -26 6t-20 13.5t-10.5 14t4.5 6.5q15 0 46.5 25.5t70.5 68.5
t79.5 100t74.5 119t55.5 125.5t21.5 120.5q0 35 -3 57t-7.5 34.5t-10 17t-9.5 4.5q-12 0 -33.5 -12t-47 -33t-52 -49t-48 -59.5t-35 -65t-13.5 -64.5q0 -38 9 -53t20 -19.5t20 -3t9 -2.5q-1 -11 -22.5 -10t-46.5 13t-46 35.5t-21 58.5zM253 747q11 -11 29.5 -27.5t38.5 -32
t37.5 -27t26.5 -11.5q6 0 6.5 -5t-2.5 -10.5t-9 -10.5t-13 -5q-18 0 -44 9.5t-50 22t-41 25t-17 18.5t4 17.5t10 21t12.5 15t11.5 0.5z" />
    <glyph glyph-name="J" unicode="J" horiz-adv-x="457" 
d="M449 259q-26 -61 -62.5 -122.5t-78 -118t-86.5 -105.5t-86.5 -85t-78 -56.5t-62.5 -20.5q-14 0 -28.5 8t-26 19t-19 22.5t-7.5 18.5q0 23 17.5 52.5t47.5 63.5t70 70.5t86 73t94.5 71.5t96.5 67q22 41 41.5 83.5t34.5 83t24 76.5t9 63q0 25 -2.5 40.5t-6 24.5t-7.5 12
t-7 3q-29 0 -63 -17.5t-68 -46t-66 -65.5t-56.5 -76.5t-39.5 -78t-15 -69.5q0 -29 9 -40t20.5 -14t20.5 -2t9 -3q0 -11 -21.5 -14t-47 5.5t-47 29t-21.5 56.5q0 34 15.5 75t42.5 83t62.5 81.5t75.5 70t81.5 49t81.5 18.5q20 0 41 -13t38.5 -34.5t28.5 -49.5t11 -59
q0 -43 -10.5 -91t-29.5 -99zM-19 -179q18 0 54.5 27.5t81 74t91 107t84.5 126.5q-57 -43 -113.5 -89t-101 -89.5t-72.5 -82t-28 -66.5q0 -8 4 -8z" />
    <glyph glyph-name="K" unicode="K" horiz-adv-x="426" 
d="M616 561q9 0 18 -7t15 -15.5t7.5 -15.5t-4.5 -7q-4 0 -4 2t-6 2q-14 0 -40.5 -18t-61 -48.5t-75 -71t-82 -84t-82.5 -88.5t-76 -85q13 -25 31 -57t38 -60t40.5 -47t37.5 -19q9 0 7.5 -5.5t-9.5 -12.5t-19.5 -12.5t-20.5 -5.5q-27 0 -52 13t-46.5 34t-39.5 47.5t-30 52.5
q-5 -5 -11 -13q-30 -60 -49.5 -114.5t-19.5 -99.5q0 -19 -13 -18t-28 13.5t-28 31.5t-13 37q0 29 21.5 79.5t53.5 113t70 131.5t70 135t53.5 123.5t21.5 96.5q2 32 -25 32q-22 0 -54 -14.5t-66.5 -39.5t-69 -59t-61.5 -72t-44 -79t-17 -80q0 -26 5 -38t10.5 -17.5t10.5 -8
t5 -9.5q0 -13 -17.5 -10.5t-38.5 16.5t-38.5 38.5t-17.5 56.5q0 39 14.5 81.5t40 83.5t60 77.5t73.5 64t80.5 44t82.5 16.5q16 0 41.5 -11t50 -30t42 -45t17.5 -56q0 -27 -12.5 -63t-33.5 -78.5t-47.5 -90t-53.5 -96.5q36 44 76 89t79.5 87.5t77 79t68.5 64t54 43.5t34 16z
" />
    <glyph glyph-name="L" unicode="L" horiz-adv-x="378" 
d="M514 -95q16 -16 27 -44.5t11 -51.5q0 -19 -7 -19t-13 13t-27.5 28.5t-66 28.5t-126.5 13q-60 0 -119.5 -7.5t-115.5 -18.5q-8 -21 -13 -38t-5 -30q0 -6 -6.5 -4t-16 9.5t-19 19.5t-15.5 26q-81 -20 -135.5 -37.5t-65.5 -17.5q-6 0 -6 5q0 4 15 13t42 20.5t64 25t81 26.5
q5 29 35 85.5t72 127.5t89 149t87.5 148.5t67 127t26.5 84.5q0 32 -28 32q-33 0 -72 -17t-77.5 -45t-75 -63t-64 -71t-44.5 -69.5t-17 -57.5q0 -17 4 -25t8.5 -12t8.5 -7t4 -10t-16.5 -4t-36 14.5t-35.5 29t-16 40.5q0 32 17 71t45.5 78.5t66 76t79.5 65t86 45.5t84 17
q23 0 48.5 -12.5t47 -31t35.5 -40t14 -40.5q0 -29 -19 -76t-49 -104.5t-67.5 -122.5t-75.5 -128.5t-72.5 -122.5t-57.5 -105q68 17 139 27.5t137 10.5q12 0 32 -1t41 -3.5t39.5 -7.5t26.5 -13z" />
    <glyph glyph-name="Lslash" unicode="&#x141;" horiz-adv-x="378" 
d="M514 -95q16 -16 27 -44.5t11 -51.5q0 -19 -7 -19t-13 13t-27.5 28.5t-66 28.5t-126.5 13q-60 0 -119.5 -7.5t-115.5 -18.5q-8 -21 -13 -38t-5 -30q0 -6 -6.5 -4t-16 9.5t-19 19.5t-15.5 26q-81 -20 -135.5 -37.5t-65.5 -17.5q-6 0 -6 5q0 4 15 13t42 20.5t64 25t81 26.5
q3 18 16.5 47.5t33.5 66.5t46 80.5t54 90.5q-60 -45 -89.5 -73t-34.5 -26q-12 3 -18 12.5t-1 24.5q1 3 18.5 18.5t46 38t65 50.5t75.5 58q32 54 62 105t53 95.5t36.5 79t13.5 54.5q0 32 -28 32q-33 0 -72 -17t-77.5 -45t-75 -63t-64 -71t-44.5 -69.5t-17 -57.5q0 -17 4 -25
t8.5 -12t8.5 -7t4 -10t-16.5 -4t-36 14.5t-35.5 29t-16 40.5q0 32 17 71t45.5 78.5t66 76t79.5 65t86 45.5t84 17q23 0 48.5 -12.5t47 -31t35.5 -40t14 -40.5q0 -28 -18.5 -74.5t-48.5 -104.5q39 27 65 43.5t31 14.5q6 -2 15.5 -12t17 -22.5t9.5 -24t-7 -15.5
q-109 -49 -194 -98q-28 -49 -58 -99t-58 -97.5t-52.5 -90.5t-42.5 -79q68 17 139 27.5t137 10.5q12 0 32 -1t41 -3.5t39.5 -7.5t26.5 -13z" />
    <glyph glyph-name="M" unicode="M" horiz-adv-x="772" 
d="M624 -65q7 0 12 -4t6.5 -8.5t-2 -8t-13.5 -3.5q-8 0 -22.5 7.5t-28.5 21t-24.5 33.5t-10.5 45q0 23 8 52t21.5 61t31.5 66.5t39 67.5q-30 -33 -63.5 -71.5t-61.5 -73t-46.5 -60t-18.5 -31.5q0 -8 -8 -7q-9 3 -19.5 10t-20.5 15t-16.5 16t-6.5 13q0 11 5.5 29.5t15.5 42.5
t22.5 51t27.5 55q-39 -41 -76 -87t-69 -91t-59.5 -85.5t-48.5 -71.5t-34 -49.5t-17 -18.5q-11 0 -24 5.5t-25 13t-22.5 16.5t-15.5 17q-1 1 -1 1.5t-1 1.5q0 1 -0.5 1.5t-0.5 1.5v1q-1 1 -1 3q0 3 17.5 29t45.5 68t64.5 97t74 114.5t74 121t64.5 117.5t45.5 103t17.5 77
q0 10 -6.5 16.5t-20.5 6.5q-26 0 -65 -17.5t-81.5 -48.5t-85 -72t-76.5 -88t-55 -97t-21 -99q0 -26 4 -39.5t8.5 -20.5t8.5 -9t4 -6q0 -9 -16 -8.5t-35 11t-35 32.5t-16 57q0 53 22 107.5t57.5 105t81 95t92 77.5t90.5 52t77 19q34 0 60 -13t44 -32t27 -42t9 -42
q0 -26 -19 -72.5t-50.5 -105.5t-72 -127.5t-84.5 -138.5q41 51 81.5 98t75.5 85t63.5 65.5t45.5 38.5q11 8 17 8q12 0 24 -4t21.5 -9t15 -11t5.5 -10q0 -3 -18.5 -28.5t-45 -64t-55.5 -84.5t-50 -89q37 49 77.5 94.5t78.5 84.5t71 70.5t55 51.5q19 20 33.5 31.5t22.5 11.5
q12 0 23 -4.5t19 -11t12.5 -13.5t4.5 -11q0 -3 -20.5 -28.5t-50.5 -65t-66 -89t-66 -101.5t-50.5 -101.5t-20.5 -89.5q0 -13 3.5 -21.5t12.5 -8.5z" />
    <glyph glyph-name="N" unicode="N" horiz-adv-x="542" 
d="M418 -8q0 -14 3 -19t7 -7t7 -4.5t3 -9.5q0 -11 -16.5 -10t-36 11t-36 28.5t-16.5 43.5q0 21 7.5 52.5t20 68t28 74.5t31.5 71q-28 -32 -63.5 -76t-73 -92.5t-73.5 -97t-64.5 -90t-46 -71.5t-17.5 -40q0 -21 -13 -21.5t-28 12t-28 33.5t-13 42q0 18 16 54.5t42.5 85.5
t60 106t68.5 115.5t68.5 115t60 104t42.5 82t16 49.5q0 13 -8 20.5t-28 7.5q-35 0 -72 -17t-73 -45t-68.5 -63t-57 -70.5t-39 -68.5t-14.5 -56q0 -14 5 -18.5t11 -6t11 -3t5 -8.5q0 -11 -16.5 -11.5t-36 9.5t-36 30.5t-16.5 50.5q0 28 14 64t38 72.5t57 71.5t71.5 62
t80 43.5t83.5 16.5q27 0 55.5 -12.5t52 -31t38.5 -39.5t15 -39q0 -30 -18 -72.5t-46 -92.5t-63.5 -106t-70.5 -112.5t-66.5 -112t-51.5 -105.5q24 36 56.5 82t68 94.5t71.5 95t67.5 82.5t55.5 58.5t36 22.5h2q10 0 16 -3q22 -8 36.5 -28.5t14.5 -37.5q0 -7 -10 -27
t-25 -48.5t-33 -62.5t-33 -69t-25 -68t-10 -59z" />
    <glyph glyph-name="Ntilde" unicode="&#xd1;" horiz-adv-x="542" 
d="M418 -8q0 -14 3 -19t7 -7t7 -4.5t3 -9.5q0 -11 -16.5 -10t-36 11t-36 28.5t-16.5 43.5q0 21 7.5 52.5t20 68t28 74.5t31.5 71q-28 -32 -63.5 -76t-73 -92.5t-73.5 -97t-64.5 -90t-46 -71.5t-17.5 -40q0 -21 -13 -21.5t-28 12t-28 33.5t-13 42q0 18 16 54.5t42.5 85.5
t60 106t68.5 115.5t68.5 115t60 104t42.5 82t16 49.5q0 13 -8 20.5t-28 7.5q-35 0 -72 -17t-73 -45t-68.5 -63t-57 -70.5t-39 -68.5t-14.5 -56q0 -14 5 -18.5t11 -6t11 -3t5 -8.5q0 -11 -16.5 -11.5t-36 9.5t-36 30.5t-16.5 50.5q0 28 14 64t38 72.5t57 71.5t71.5 62
t80 43.5t83.5 16.5q27 0 55.5 -12.5t52 -31t38.5 -39.5t15 -39q0 -30 -18 -72.5t-46 -92.5t-63.5 -106t-70.5 -112.5t-66.5 -112t-51.5 -105.5q24 36 56.5 82t68 94.5t71.5 95t67.5 82.5t55.5 58.5t36 22.5h2q10 0 16 -3q22 -8 36.5 -28.5t14.5 -37.5q0 -7 -10 -27
t-25 -48.5t-33 -62.5t-33 -69t-25 -68t-10 -59zM505 664q14 0 24.5 -5t18.5 -10.5t16 -10.5t17 -5q31 0 45.5 8.5t19.5 8.5q11 0 11 -11q0 -3 -5 -11.5t-15.5 -17.5t-25.5 -16.5t-35 -7.5q-15 0 -26 6.5t-21 14t-21.5 14t-27.5 6.5q-19 0 -28 -4q-2 0 -3 2q-3 3 -3 8
q0 3 5 8t13 10.5t18.5 9t22.5 3.5z" />
    <glyph glyph-name="O" unicode="O" 
d="M390 652q33 0 67 -17.5t62.5 -45.5t46.5 -62.5t18 -68.5q0 -61 -21.5 -127.5t-55.5 -131t-77.5 -122t-88 -101.5t-85.5 -69.5t-70 -25.5q-30 0 -63.5 16.5t-61 46.5t-45.5 72t-18 93q0 38 14 89.5t37 106.5t51.5 108.5t57.5 96t56 68.5t47 26q13 0 27 -8q29 26 55 41
t47 15zM140 -74q30 0 70 32.5t82 83.5t82.5 114.5t72.5 125.5t51.5 116.5t19.5 87.5q0 19 -1 37t-6.5 32.5t-16.5 23.5t-31 9q-27 0 -59 -18t-65 -48t-63 -68.5t-54 -81t-38 -85t-14 -79.5q-1 -11 1 -20q2 -8 5.5 -13.5t11.5 -5.5q9 0 14.5 3t9 7t6.5 7t8 3t2 -8.5t-11 -19
t-20 -19t-25 -8.5q-17 0 -36 14.5t-31 43.5q-12 -39 -19.5 -74t-7.5 -63q0 -26 3 -49.5t10 -41t19 -28t30 -10.5z" />
    <glyph glyph-name="OE" unicode="&#x152;" horiz-adv-x="929" 
d="M961 648q11 0 23 -8t21.5 -19t16 -22.5t6.5 -17.5q0 -7 -3 -8.5t-8.5 -1t-12.5 2.5t-16 2q-30 0 -66.5 -9t-74.5 -23t-76 -31t-70 -33q-34 -45 -72.5 -99.5t-74.5 -111.5q24 12 49.5 24.5t48.5 22t43 15.5t33 6q14 0 26.5 -7.5t21.5 -18t14.5 -20.5t5.5 -16
q0 -11 -6.5 -7.5t-18.5 3.5q-21 0 -57 -13t-77 -31.5t-81.5 -39.5t-70.5 -37q-26 -51 -42 -94t-16 -73q0 -16 9.5 -29t35.5 -13q17 0 48 8t69 21.5t79.5 31t78.5 35.5t66.5 36t43.5 32q5 5 14.5 -2t18.5 -18t14 -23t0 -16q-3 -3 -22 -16.5t-49 -31t-69.5 -37.5t-83.5 -37
t-90 -28t-89 -11q-17 0 -37.5 9t-40 24t-35.5 35.5t-24 44.5q-50 -54 -97 -85.5t-80 -31.5q-30 0 -63.5 16.5t-61 46.5t-45.5 72t-18 93q0 38 14 89.5t37 106.5t51.5 108.5t57.5 96t56 68.5t47 26q13 0 27 -8q29 26 55 41t47 15q30 0 61 -14.5t58 -38.5t46.5 -54.5
t25.5 -61.5l1 1q-1 8 -1 14.5v11.5q0 3 10.5 9.5t28.5 15.5q40 51 68.5 82t34.5 31q27 0 47.5 -15t25.5 -27q51 17 96 29.5t68 12.5zM141 -74q30 0 70 32.5t82 83.5t82.5 114.5t72.5 125.5t51.5 116.5t19.5 87.5q0 19 -1 37t-6.5 32.5t-16.5 23.5t-31 9q-27 0 -59 -18
t-65 -48t-63 -68.5t-54 -81t-38 -85t-14 -79.5q-1 -11 1 -20q2 -8 5.5 -13.5t11.5 -5.5q9 0 14.5 3t9 7t6.5 7t8 3t2 -8.5t-11 -19t-20 -19t-25 -8.5q-17 0 -36 14.5t-31 43.5q-12 -39 -19.5 -74t-7.5 -63q0 -26 3 -49.5t10 -41t19 -28t30 -10.5z" />
    <glyph glyph-name="Oacute" unicode="&#xd3;" 
d="M350 582q-21 0 -47 -15t-55 -41q-14 8 -27 8q-20 0 -44 -21t-48.5 -55.5t-48 -79t-42 -91.5t-29.5 -93.5t-11 -84.5q0 -51 18 -93t45.5 -72t61 -46.5t63.5 -16.5q29 0 67 20.5t78 56.5t78 84.5t68 105t48.5 118t18.5 122.5q0 34 -18 68.5t-46.5 62.5t-62.5 45.5t-67 17.5
zM140 -74q-18 0 -30 10.5t-19 28t-10 41t-3 49.5q0 28 7.5 63t19.5 74q12 -29 31 -43.5t36 -14.5q13 0 25 8.5t20 19t11 19t-2 8.5t-8 -3t-6.5 -7t-9 -7t-14.5 -3q-8 0 -11.5 5.5t-5.5 13.5q-2 9 -1 20q0 55 24.5 110.5t61.5 100t81.5 72t85.5 27.5q20 0 31 -9t16.5 -23.5
t6.5 -32.5t1 -37q0 -33 -16.5 -82t-44 -103.5t-63 -109t-73 -98t-74 -70.5t-67.5 -27zM512 743q5 5 11.5 -0.5t12.5 -15t10 -21t4 -17.5t-17 -18.5t-41 -25t-50 -22t-44 -9.5q-7 0 -13 5t-9 10.5t-2.5 10.5t6.5 5q9 0 26.5 11.5t37.5 27t38.5 32t29.5 27.5z" />
    <glyph glyph-name="Ocircumflex" unicode="&#xd4;" 
d="M350 582q-21 0 -47 -15t-55 -41q-14 8 -27 8q-20 0 -44 -21t-48.5 -55.5t-48 -79t-42 -91.5t-29.5 -93.5t-11 -84.5q0 -51 18 -93t45.5 -72t61 -46.5t63.5 -16.5q29 0 67 20.5t78 56.5t78 84.5t68 105t48.5 118t18.5 122.5q0 34 -18 68.5t-46.5 62.5t-62.5 45.5t-67 17.5
zM140 -74q-18 0 -30 10.5t-19 28t-10 41t-3 49.5q0 28 7.5 63t19.5 74q12 -29 31 -43.5t36 -14.5q13 0 25 8.5t20 19t11 19t-2 8.5t-8 -3t-6.5 -7t-9 -7t-14.5 -3q-8 0 -11.5 5.5t-5.5 13.5q-2 9 -1 20q0 55 24.5 110.5t61.5 100t81.5 72t85.5 27.5q20 0 31 -9t16.5 -23.5
t6.5 -32.5t1 -37q0 -33 -16.5 -82t-44 -103.5t-63 -109t-73 -98t-74 -70.5t-67.5 -27zM299 621q6 0 24 11.5t40 29.5t42 39t30 40q2 4 9 5t15 0t14 -3.5t7 -6.5q6 -33 15 -54t17 -34t13.5 -19.5t5.5 -9.5q0 -7 -3.5 -8.5t-7.5 -1.5q-13 0 -26.5 10.5t-24.5 23.5
q-13 15 -26 34q-23 -20 -45 -36q-19 -14 -39 -24.5t-34 -10.5q-23 0 -29.5 7.5t3.5 7.5z" />
    <glyph glyph-name="Odieresis" unicode="&#xd6;" 
d="M350 582q-21 0 -47 -15t-55 -41q-14 8 -27 8q-20 0 -44 -21t-48.5 -55.5t-48 -79t-42 -91.5t-29.5 -93.5t-11 -84.5q0 -51 18 -93t45.5 -72t61 -46.5t63.5 -16.5q29 0 67 20.5t78 56.5t78 84.5t68 105t48.5 118t18.5 122.5q0 34 -18 68.5t-46.5 62.5t-62.5 45.5t-67 17.5
zM140 -74q-18 0 -30 10.5t-19 28t-10 41t-3 49.5q0 28 7.5 63t19.5 74q12 -29 31 -43.5t36 -14.5q13 0 25 8.5t20 19t11 19t-2 8.5t-8 -3t-6.5 -7t-9 -7t-14.5 -3q-8 0 -11.5 5.5t-5.5 13.5q-2 9 -1 20q0 55 24.5 110.5t61.5 100t81.5 72t85.5 27.5q20 0 31 -9t16.5 -23.5
t6.5 -32.5t1 -37q0 -33 -16.5 -82t-44 -103.5t-63 -109t-73 -98t-74 -70.5t-67.5 -27zM399 679q0 -16 -12 -33t-26 -17q-30 0 -30 30q0 7 3.5 16t9.5 16t13 12t14 5q28 0 28 -29zM516 681q0 -15 -7.5 -29t-22.5 -14q-14 0 -24 6.5t-10 21.5q0 16 13 31.5t27 15.5
q15 0 19.5 -8t4.5 -24z" />
    <glyph glyph-name="Ograve" unicode="&#xd2;" 
d="M350 582q-21 0 -47 -15t-55 -41q-14 8 -27 8q-20 0 -44 -21t-48.5 -55.5t-48 -79t-42 -91.5t-29.5 -93.5t-11 -84.5q0 -51 18 -93t45.5 -72t61 -46.5t63.5 -16.5q29 0 67 20.5t78 56.5t78 84.5t68 105t48.5 118t18.5 122.5q0 34 -18 68.5t-46.5 62.5t-62.5 45.5t-67 17.5
zM140 -74q-18 0 -30 10.5t-19 28t-10 41t-3 49.5q0 28 7.5 63t19.5 74q12 -29 31 -43.5t36 -14.5q13 0 25 8.5t20 19t11 19t-2 8.5t-8 -3t-6.5 -7t-9 -7t-14.5 -3q-8 0 -11.5 5.5t-5.5 13.5q-2 9 -1 20q0 55 24.5 110.5t61.5 100t81.5 72t85.5 27.5q20 0 31 -9t16.5 -23.5
t6.5 -32.5t1 -37q0 -33 -16.5 -82t-44 -103.5t-63 -109t-73 -98t-74 -70.5t-67.5 -27zM400 747q11 -11 29.5 -27.5t38.5 -32t37.5 -27t26.5 -11.5q6 0 6.5 -5t-2.5 -10.5t-9 -10.5t-13 -5q-18 0 -44 9.5t-50 22t-41 25t-17 18.5t4 17.5t10 21t12.5 15t11.5 0.5z" />
    <glyph glyph-name="Oslash" unicode="&#xd8;" 
d="M653 652q20 0 40 -13t33.5 -29t17 -29t-8.5 -13q-8 0 -17 6.5t-24 6.5q-17 0 -47.5 -21.5t-70.5 -59.5q3 -11 5 -21t2 -21q0 -61 -21.5 -127.5t-55.5 -131t-77.5 -122t-88 -101.5t-85.5 -69.5t-70 -25.5q-23 0 -48.5 10t-49.5 28q-34 -50 -54 -84.5t-20 -46.5
q0 -7 -6.5 -4t-14.5 11.5t-14.5 21t-6.5 24.5q0 14 19.5 46.5t52.5 78.5q-21 29 -33.5 65t-12.5 78q0 38 14 89.5t37 106.5t51.5 108.5t57.5 96t56 68.5t47 26q13 0 27 -8q29 26 55 41t47 15t42.5 -7.5t42.5 -20.5t39.5 -30.5t33.5 -38.5q43 45 71 71t35 26zM169 208
q-1 -11 1 -20q2 -8 5.5 -13.5t11.5 -5.5q16 0 21 8t11 11q37 45 76 90t77.5 88t75 82.5t68.5 73.5q-2 27 -13 46.5t-41 19.5q-27 0 -59 -18t-65 -48t-63 -68.5t-54 -81t-38 -85t-14 -79.5zM77 55v-21t1 -20q22 28 46.5 58.5t50.5 62.5q-2 -1 -4 -1q-17 0 -36 14.5t-31 43.5
q-12 -39 -19.5 -74t-7.5 -63zM139 -74q27 0 61.5 26t72 68.5t74.5 96.5t69 110.5t56 110.5t36 96q-50 -53 -105.5 -116t-109 -129t-103 -130t-87.5 -118q15 -15 36 -15z" />
    <glyph glyph-name="Otilde" unicode="&#xd5;" 
d="M350 582q33 0 67 -17.5t62.5 -45.5t46.5 -62.5t18 -68.5q0 -61 -18.5 -122.5t-48.5 -118t-68 -105t-78 -84.5t-78 -56.5t-67 -20.5q-30 0 -63.5 16.5t-61 46.5t-45.5 72t-18 93q0 38 11 84.5t29.5 93.5t42 91.5t48 79t48.5 55.5t44 21q13 0 27 -8q29 26 55 41t47 15z
M140 -74q31 0 67.5 27t74 70.5t73 98t63 109t44 103.5t16.5 82q0 19 -1 37t-6.5 32.5t-16.5 23.5t-31 9q-41 0 -85.5 -27.5t-81.5 -72t-61.5 -100t-24.5 -110.5q-1 -11 1 -20q2 -8 5.5 -13.5t11.5 -5.5q9 0 14.5 3t9 7t6.5 7t8 3t2 -8.5t-11 -19t-20 -19t-25 -8.5
q-17 0 -36 14.5t-31 43.5q-12 -39 -19.5 -74t-7.5 -63q0 -26 3 -49.5t10 -41t19 -28t30 -10.5zM392 710q14 0 24.5 -5t18.5 -10.5t16 -10.5t17 -5q31 0 45.5 8.5t19.5 8.5q11 0 11 -11q0 -3 -5 -11.5t-15.5 -17.5t-25.5 -16.5t-35 -7.5q-15 0 -26 6.5t-21 14t-21.5 14
t-27.5 6.5q-19 0 -28 -4q-2 0 -3 2q-3 3 -3 8q0 3 5 8t13 10.5t18.5 9t22.5 3.5z" />
    <glyph glyph-name="P" unicode="P" horiz-adv-x="534" 
d="M613 418q0 -48 -24.5 -92.5t-64.5 -83.5t-91 -71t-104.5 -56t-105 -39t-91.5 -19q-31 -64 -51 -120t-20 -91q0 -12 -9.5 -9.5t-21 12.5t-21 25.5t-9.5 30.5q0 23 12.5 64.5t33.5 92.5q-40 8 -64 24.5t-36 33t-12.5 29t5.5 12.5q7 0 13 -7.5t16 -16t27 -16t46 -7.5h14.5
t13.5 1q26 57 56.5 114.5t59.5 103t54.5 74.5t41.5 29q17 0 31.5 -8.5t23.5 -18.5t11.5 -18.5t-4.5 -8.5q-9 0 -27 -20.5t-42 -55t-51 -79.5t-53 -93q51 15 100.5 39.5t93 54.5t80 64t63 68t41.5 66t15 58q0 19 -7.5 38.5t-25.5 35.5t-48 26t-75 10q-51 0 -103 -17.5
t-100.5 -46t-91 -64.5t-74 -74t-49.5 -74.5t-18 -65.5q0 -22 6.5 -30.5t15 -12t15 -5t6.5 -9.5t-17 -10t-37 7t-37 33t-17 68q0 28 19.5 66t54 78.5t81.5 80.5t101.5 71.5t115 51t121.5 19.5q39 0 77.5 -19.5t69 -53t49 -77.5t18.5 -92z" />
    <glyph glyph-name="Q" unicode="Q" 
d="M346 29q89 -45 142.5 -77.5t82.5 -55.5t38 -38.5t9 -27.5q0 -27 -5.5 -44.5t-12 -26t-12 -8.5t-5.5 9q0 6 -9.5 23.5t-39 46.5t-84.5 69t-146 91q-34 -29 -64 -44.5t-52 -15.5q-27 0 -56 12.5t-55 36t-45.5 56.5t-27.5 74q-23 4 -44.5 6.5t-42.5 2.5t-33 -2.5t-18 -5.5
t-7.5 -6.5t-1.5 -6.5q0 -6 6 -7t6 -6q0 -3 -5 -3.5t-10.5 1.5t-10.5 6.5t-5 11.5q0 12 5.5 24t15 22t23.5 16.5t32 6.5q20 0 41.5 -2.5t43.5 -7.5q0 38 14.5 89.5t37.5 106.5t51.5 108t58 95t56.5 68t46 26q8 0 14.5 -2.5t12.5 -4.5q27 26 53.5 41t48.5 15q32 0 66.5 -17.5
t63 -45.5t46.5 -62.5t18 -68.5q0 -61 -21 -127t-55 -129.5t-77 -121t-87 -100.5zM106 241q-17 -58 -23 -103q45 -14 92.5 -32t96.5 -41q29 33 59 74t57.5 85.5t51.5 89.5t42 86t28 75.5t10 58.5q0 19 -1 37.5t-6.5 33.5t-16.5 24t-31 9q-27 0 -59.5 -18t-65 -48t-63 -69
t-54 -81.5t-37.5 -85.5t-14 -80q-1 -11 1 -19t5.5 -13.5t11.5 -5.5q9 0 14 3t9 7l7 7t8 3t2 -9t-10.5 -19.5t-19.5 -19t-25 -8.5q-18 0 -37 15t-32 44zM142 -24q19 0 42.5 13t48.5 37q-38 19 -77 35t-76 29q1 -24 4 -45t10.5 -36t19 -24t28.5 -9z" />
    <glyph glyph-name="R" unicode="R" horiz-adv-x="461" 
d="M485 -107q8 0 4.5 -15.5t-18 -34t-39 -34t-59.5 -15.5q-49 0 -92 28.5t-78 70t-62.5 89t-44.5 85.5q-18 -38 -28 -68.5t-10 -47.5q0 -11 -9 -8t-20 12t-20 21.5t-9 21.5q0 20 12.5 55t33 79.5t47.5 94.5t56 99t59 94t56 79t46.5 54.5t31.5 20.5q24 0 39.5 -6t23.5 -13.5
t9 -16t-3 -12.5q-32 -32 -65.5 -72.5t-66.5 -85t-63.5 -91.5t-56.5 -92q64 13 129 50.5t118 86.5t86.5 102.5t33.5 98.5q0 37 -9 61t-24.5 38.5t-38 20.5t-49.5 6q-34 0 -78 -15t-89 -41.5t-88 -61.5t-77 -75t-54.5 -83t-20.5 -85q0 -15 6 -21.5t13 -9.5t13 -5t6 -8
t-17.5 -4.5t-38 12.5t-38 31t-17.5 52q0 33 17 74.5t47.5 84t72.5 83t91.5 72t105 51t112.5 19.5q31 0 69.5 -19.5t72.5 -50.5t57 -69.5t23 -76.5q0 -52 -21.5 -100.5t-57 -90.5t-81.5 -76.5t-95 -60t-98.5 -40t-90.5 -16.5q18 -39 43 -88t57.5 -92.5t73.5 -73.5t92 -30
q22 0 33 9t17 20t9 20t11 9z" />
    <glyph glyph-name="S" unicode="S" horiz-adv-x="356" 
d="M226 226q-15 0 -26.5 6t-18.5 13t-7 13t9 6q6 0 29.5 17.5t55 46.5t66.5 66t64.5 76t48.5 76t19 67q0 20 -19 20q-36 0 -76.5 -22.5t-80.5 -58.5t-76.5 -80t-65 -86t-45 -78t-16.5 -56q0 -18 20 -43t43.5 -55.5t43.5 -65.5t20 -72q0 -19 -9.5 -42t-28.5 -43.5t-47 -34.5
t-65 -14t-62 11t-40 25.5t-21.5 29t-6.5 21.5t4 12.5t9 7.5t9 -0.5t4 -10.5q0 -17 18 -31.5t53 -14.5q18 0 39 9.5t39.5 25.5t31 37t12.5 45q0 46 -20 77.5t-44.5 58t-44.5 52.5t-20 61q0 36 19.5 79t50.5 86.5t69.5 84t76 71.5t70 50t52.5 19q21 0 48.5 -7.5t52 -21
t41.5 -33.5t17 -45q0 -21 -14.5 -55.5t-38 -74t-54 -79.5t-63.5 -72.5t-65.5 -53t-59.5 -20.5z" />
    <glyph glyph-name="Scaron" unicode="&#x160;" horiz-adv-x="356" 
d="M192 187q27 0 55.5 14.5t55.5 38.5t51 54t42 60.5t28.5 59.5t10.5 50q0 25 -17 45t-41.5 33.5t-52 21t-48.5 7.5q-20 0 -47.5 -14t-57 -37.5t-58.5 -55t-52 -67.5t-37.5 -74t-14.5 -74q0 -24 10.5 -40.5t26.5 -31t35 -28t35 -30t26.5 -38t10.5 -52.5q0 -24 -12.5 -45
t-31 -37t-39.5 -25.5t-39 -9.5q-35 0 -53 14.5t-18 31.5q0 8 -4 10.5t-9 0.5t-9 -7.5t-4 -12.5t6.5 -21.5t21.5 -29t40 -25.5t62 -11t65 14t47 34.5t28.5 43.5t9.5 42q0 37 -22 67.5t-49 55.5t-49 45.5t-22 38.5q0 20 11.5 50.5t31.5 65.5t47.5 70t60 63.5t67.5 46t71 17.5
q19 0 19 -20q0 -30 -15.5 -61.5t-39 -61.5t-51.5 -57t-54 -47t-45.5 -32t-25.5 -12q-9 0 -9 -6t7 -13t18.5 -13t26.5 -6zM515 733q-6 0 -24 -11.5t-40 -29.5t-42 -39t-30 -40q-2 -4 -9 -5t-15 0t-14 3.5t-7 6.5q-6 33 -15 54t-17 34t-13.5 19.5t-5.5 9.5q0 7 3.5 8.5
t7.5 1.5q13 0 26.5 -10.5t24.5 -23.5q13 -15 26 -34q23 19 45 35q19 14 39 25t34 11q23 0 29.5 -7.5t-3.5 -7.5z" />
    <glyph glyph-name="T" unicode="T" horiz-adv-x="424" 
d="M890 642q22 0 40 -16t28 -34.5t10 -34.5t-12 -16q-6 0 -11 1t-18.5 2.5t-39.5 2.5t-74 1q-136 0 -250 -15q-33 -41 -74 -101.5t-84 -129t-83 -139t-72 -131.5t-51 -106.5t-19 -64.5q0 -17 -11 -18.5t-24 7t-24 23.5t-11 30q0 11 10.5 38.5t28.5 66.5t42.5 87t53.5 100
q-9 13 -33.5 23.5t-55 20t-63.5 18.5t-60.5 19t-45 20.5t-17.5 24.5q0 26 9.5 52.5t20.5 36.5q8 8 45 31.5t101.5 52.5t155 59.5t206.5 53.5q21 23 33 23q26 0 46 -10q69 11 144.5 16.5t158.5 5.5zM265 231q42 75 86.5 148.5t83.5 131.5q-103 -22 -182 -50t-132.5 -54.5
t-81 -46t-27.5 -24.5t16.5 -11t42 -13.5t56.5 -16.5t59 -19t49.5 -21.5t29.5 -23.5z" />
    <glyph glyph-name="U" unicode="U" horiz-adv-x="527" 
d="M485 434q17 0 30.5 -5.5t23 -13t14.5 -16.5t5 -16q0 -4 -14.5 -27.5t-36 -59.5t-46.5 -81t-46.5 -92t-36 -91.5t-14.5 -79.5q0 -7 -10 -4t-21.5 13t-21.5 25.5t-10 33.5q0 19 5.5 44.5t15 54.5t22 60t26.5 61q-26 -39 -57 -83.5t-62.5 -88t-63 -83.5t-59.5 -71t-50.5 -49
t-36.5 -18q-19 0 -36 10.5t-30 26.5t-21 36t-8 38q0 17 14.5 50.5t38.5 77.5t54.5 96t62.5 105t62.5 104.5t54.5 95t38.5 75.5t14.5 47t13.5 15.5t30 -8.5t30.5 -25t14 -34t-25.5 -65.5t-64 -110.5t-83.5 -135t-83.5 -138.5t-64 -120.5t-25.5 -82q0 -11 7 -11q13 0 46.5 34
t77 86t92 113.5t91 118t73.5 99t41 55.5q22 34 29 34z" />
    <glyph glyph-name="Uacute" unicode="&#xda;" horiz-adv-x="527" 
d="M485 434q-7 0 -29 -34q-10 -13 -41 -55.5t-73.5 -99t-91 -118t-92 -113.5t-77 -86t-46.5 -34q-7 0 -7 11q0 28 25.5 82t64 120.5t83.5 138.5t83.5 135t64 110.5t25.5 65.5t-14 34t-30.5 25t-30 8.5t-13.5 -15.5t-14.5 -47t-38.5 -75.5t-54.5 -95t-62.5 -104.5t-62.5 -105
t-54.5 -96t-38.5 -77.5t-14.5 -50.5q0 -18 8 -38t21 -36t30 -26.5t36 -10.5q14 0 36.5 18t50.5 49t59.5 71t63 83.5t62.5 88t57 83.5q-14 -30 -26.5 -61t-22 -60t-15 -54.5t-5.5 -44.5q0 -18 10 -33.5t21.5 -25.5t21.5 -13t10 4q0 35 14.5 79.5t36 91.5t46.5 92t46.5 81
t36 59.5t14.5 27.5q0 7 -5 16t-14.5 16.5t-23 13t-30.5 5.5zM550 743q5 5 11.5 -0.5t12.5 -15t10 -21t4 -17.5t-17 -18.5t-41 -25t-50 -22t-44 -9.5q-7 0 -13 5t-9 10.5t-2.5 10.5t6.5 5q9 0 26.5 11.5t37.5 27t38.5 32t29.5 27.5z" />
    <glyph glyph-name="Ucircumflex" unicode="&#xdb;" horiz-adv-x="527" 
d="M485 434q-7 0 -29 -34q-10 -13 -41 -55.5t-73.5 -99t-91 -118t-92 -113.5t-77 -86t-46.5 -34q-7 0 -7 11q0 28 25.5 82t64 120.5t83.5 138.5t83.5 135t64 110.5t25.5 65.5t-14 34t-30.5 25t-30 8.5t-13.5 -15.5t-14.5 -47t-38.5 -75.5t-54.5 -95t-62.5 -104.5t-62.5 -105
t-54.5 -96t-38.5 -77.5t-14.5 -50.5q0 -18 8 -38t21 -36t30 -26.5t36 -10.5q14 0 36.5 18t50.5 49t59.5 71t63 83.5t62.5 88t57 83.5q-14 -30 -26.5 -61t-22 -60t-15 -54.5t-5.5 -44.5q0 -18 10 -33.5t21.5 -25.5t21.5 -13t10 4q0 35 14.5 79.5t36 91.5t46.5 92t46.5 81
t36 59.5t14.5 27.5q0 7 -5 16t-14.5 16.5t-23 13t-30.5 5.5zM378 621q6 0 24 11.5t40 29.5t42 39t30 40q2 4 9 5t15 0t14 -3.5t7 -6.5q6 -33 15 -54t17 -34t13.5 -19.5t5.5 -9.5q0 -7 -3.5 -8.5t-7.5 -1.5q-13 0 -26.5 10.5t-24.5 23.5q-13 15 -26 34q-23 -20 -45 -36
q-19 -14 -39 -24.5t-34 -10.5q-23 0 -29.5 7.5t3.5 7.5z" />
    <glyph glyph-name="Udieresis" unicode="&#xdc;" horiz-adv-x="527" 
d="M485 434q-7 0 -29 -34q-10 -13 -41 -55.5t-73.5 -99t-91 -118t-92 -113.5t-77 -86t-46.5 -34q-7 0 -7 11q0 28 25.5 82t64 120.5t83.5 138.5t83.5 135t64 110.5t25.5 65.5t-14 34t-30.5 25t-30 8.5t-13.5 -15.5t-14.5 -47t-38.5 -75.5t-54.5 -95t-62.5 -104.5t-62.5 -105
t-54.5 -96t-38.5 -77.5t-14.5 -50.5q0 -18 8 -38t21 -36t30 -26.5t36 -10.5q14 0 36.5 18t50.5 49t59.5 71t63 83.5t62.5 88t57 83.5q-14 -30 -26.5 -61t-22 -60t-15 -54.5t-5.5 -44.5q0 -18 10 -33.5t21.5 -25.5t21.5 -13t10 4q0 35 14.5 79.5t36 91.5t46.5 92t46.5 81
t36 59.5t14.5 27.5q0 7 -5 16t-14.5 16.5t-23 13t-30.5 5.5zM472 651q0 -16 -12 -33t-26 -17q-30 0 -30 30q0 7 3.5 16t9.5 16t13 12t14 5q28 0 28 -29zM591 658q0 -15 -7.5 -29t-22.5 -14q-14 0 -24 6.5t-10 21.5q0 16 13 31.5t27 15.5q15 0 19.5 -8t4.5 -24z" />
    <glyph glyph-name="Ugrave" unicode="&#xd9;" horiz-adv-x="527" 
d="M485 434q-7 0 -29 -34q-10 -13 -41 -55.5t-73.5 -99t-91 -118t-92 -113.5t-77 -86t-46.5 -34q-7 0 -7 11q0 28 25.5 82t64 120.5t83.5 138.5t83.5 135t64 110.5t25.5 65.5t-14 34t-30.5 25t-30 8.5t-13.5 -15.5t-14.5 -47t-38.5 -75.5t-54.5 -95t-62.5 -104.5t-62.5 -105
t-54.5 -96t-38.5 -77.5t-14.5 -50.5q0 -18 8 -38t21 -36t30 -26.5t36 -10.5q14 0 36.5 18t50.5 49t59.5 71t63 83.5t62.5 88t57 83.5q-14 -30 -26.5 -61t-22 -60t-15 -54.5t-5.5 -44.5q0 -18 10 -33.5t21.5 -25.5t21.5 -13t10 4q0 35 14.5 79.5t36 91.5t46.5 92t46.5 81
t36 59.5t14.5 27.5q0 7 -5 16t-14.5 16.5t-23 13t-30.5 5.5zM425 747q11 -11 29.5 -27.5t38.5 -32t37.5 -27t26.5 -11.5q6 0 6.5 -5t-2.5 -10.5t-9 -10.5t-13 -5q-18 0 -44 9.5t-50 22t-41 25t-17 18.5t4 17.5t10 21t12.5 15t11.5 0.5z" />
    <glyph glyph-name="V" unicode="V" horiz-adv-x="345" 
d="M670 724q28 0 48.5 -16t32 -35t13.5 -35t-8 -16q-6 0 -9 1.5t-9 3.5t-18 3.5t-35 1.5q-42 0 -88.5 -29t-94.5 -77t-95.5 -110t-91 -128.5t-80.5 -132t-64.5 -120t-43 -94t-15.5 -53.5q0 -8 -17 -8t-38 7.5t-38.5 22t-18.5 34.5v1q0 6 10 31.5t24.5 63.5t31.5 84.5
t31.5 96t24.5 97.5t10 88q0 19 -3 29t-7 14t-9 4.5t-8 0.5q-4 0 -4.5 -3.5t-1.5 -7t-3.5 -7t-9.5 -3.5t-8 8.5t5 19t19 19.5t34 9q32 0 53 -29t21 -85q0 -24 -4.5 -56t-12 -69.5t-17 -78t-20.5 -79.5q20 43 54 107t77 134t92.5 140t99.5 125.5t99 90.5t92 35z" />
    <glyph glyph-name="W" unicode="W" horiz-adv-x="648" 
d="M1061 700q18 0 30 -10.5t18 -22.5t5.5 -22.5t-7.5 -10.5q-4 0 -4.5 1.5l-1 3t-2.5 3t-8 1.5q-27 0 -69.5 -25t-94.5 -67.5t-109.5 -97.5t-114.5 -114.5t-110.5 -120t-97.5 -113.5t-74.5 -94t-41.5 -62q0 -17 -11.5 -17t-25.5 9.5t-25.5 24.5t-11.5 28q0 14 7 37t19 51
t27 59t31 61q-25 -24 -57.5 -57t-67.5 -68t-69 -70.5t-60.5 -65t-43 -50.5t-16.5 -28q0 -12 -11.5 -10.5t-26 11.5t-27 24t-13.5 27v1v1v1q0 8 28 46.5t70 95t91 124.5t91 135t70 126t28 97q0 22 -5 31t-14 9q-33 0 -71.5 -17t-77 -45t-75 -63t-64 -71t-44.5 -69.5
t-17 -57.5q0 -18 4 -26t8.5 -11.5t8.5 -6.5t4 -10q0 -8 -16.5 -4.5t-36 14.5t-35.5 29t-16 41q0 32 18 70.5t48.5 77.5t71 75t84 64t88.5 45t85 17q29 0 51 -16t37 -37.5t23 -44.5t8 -37q0 -30 -18 -74.5t-46.5 -97t-65.5 -109t-74 -110.5l229 220q14 17 18 17q14 0 27 -7.5
t21 -17t11 -19.5t-2 -15q-14 -14 -31 -40.5t-35.5 -59.5t-36 -69t-31.5 -69q44 59 100.5 130t118 143.5t124.5 141t120.5 121t106.5 84.5t83 32z" />
    <glyph glyph-name="X" unicode="X" horiz-adv-x="456" 
d="M622 593q29 0 50.5 -11t33 -24.5t12.5 -24.5t-11 -11q-4 0 -5.5 1.5t-3.5 3t-5.5 3t-9.5 1.5q-24 0 -66.5 -22.5t-94.5 -61t-111 -88.5t-116 -105q21 -95 52 -163t63 -112t62 -65t49 -21q10 0 11 -5t-4 -11.5t-13.5 -11.5t-16.5 -5q-36 0 -74 22.5t-74.5 64.5t-69.5 101
t-58 133q-45 -47 -84 -92.5t-68 -86t-45.5 -74.5t-16.5 -56q0 -8 4 -12t8.5 -6.5t8.5 -4.5t4 -6q0 -22 -15.5 -23t-34 13t-34 39t-15.5 55q0 25 20.5 64t56 86.5t83 100t100.5 105.5q-13 58 -20.5 120.5t-7.5 129.5q0 15 7.5 28t19.5 22.5t27 15t30 5.5q14 0 18 -4t3 -11
t-4 -15.5t-3 -17.5q0 -54 3.5 -101.5t8.5 -92.5q52 48 104 90t98 73.5t83 49.5t61 18z" />
    <glyph glyph-name="Y" unicode="Y" horiz-adv-x="504" 
d="M418 363q0 13 10.5 12.5t23 -8.5t23 -22t10.5 -29q0 -27 -12 -75t-34.5 -104t-55 -114t-73 -104.5t-88 -76.5t-100.5 -30q-29 0 -50 11.5t-35 28.5t-20.5 35.5t-6.5 32.5q0 13 4.5 23t10.5 15t10.5 4t4.5 -8q0 -18 3 -37.5t11.5 -35.5t22.5 -26.5t36 -10.5q21 0 48 19
t56 52t58.5 76.5t55 92t45.5 99t31 98.5q-27 -35 -67.5 -75t-84 -74t-86 -56.5t-74.5 -22.5q-5 0 -14.5 4t-18.5 11t-15.5 17t-6.5 23q0 10 18.5 37.5t47 65.5t61 83t61 91.5t47 90.5t18.5 79q0 23 -8 31.5t-19 8.5q-33 0 -71.5 -17t-77 -44.5t-75 -62.5t-64 -71
t-44.5 -69.5t-17 -57.5q0 -18 4 -26t8.5 -11.5t8.5 -6.5t4 -10q0 -8 -16.5 -5t-36 14.5t-35.5 29.5t-16 41q0 32 17 71t45.5 78t66 75.5t79.5 65t86 45.5t84 17q27 0 52.5 -13.5t45.5 -34t32 -45t12 -46.5q0 -33 -14.5 -72.5t-37 -81t-50.5 -83t-55 -78.5t-50.5 -67
t-36.5 -49q25 8 57 29.5t65.5 49.5t66 59t58.5 59.5t41.5 51t15.5 33.5z" />
    <glyph glyph-name="Yacute" unicode="&#xdd;" horiz-adv-x="504" 
d="M418 363q0 -11 -15.5 -33.5t-41.5 -51t-58.5 -59.5t-66 -59t-65.5 -49.5t-57 -29.5q13 19 36.5 49t50.5 67t55 78.5t50.5 83t37 81t14.5 72.5q0 22 -12 46.5t-32 45t-45.5 34t-52.5 13.5q-40 0 -84 -17t-86 -45.5t-79.5 -65t-66 -75.5t-45.5 -78t-17 -71q0 -23 16 -41
t35.5 -29.5t36 -14.5t16.5 5q0 7 -4 10t-8.5 6.5t-8.5 11.5t-4 26q0 24 17 57.5t44.5 69.5t64 71t75 62.5t77 44.5t71.5 17q11 0 19 -8.5t8 -31.5q0 -35 -18.5 -79t-47 -90.5t-61 -91.5t-61 -83t-47 -65.5t-18.5 -37.5q0 -13 6.5 -23t15.5 -17t18.5 -11t14.5 -4
q32 0 74.5 22.5t86 56.5t84 74t67.5 75q-11 -48 -31 -98.5t-45.5 -99t-55 -92t-58.5 -76.5t-56 -52t-48 -19q-22 0 -36 10.5t-22.5 26.5t-11.5 35.5t-3 37.5q0 7 -4.5 8t-10.5 -4t-10.5 -15t-4.5 -23q0 -14 6.5 -32.5t20.5 -35.5t35 -28.5t50 -11.5q53 0 100.5 30t88 76.5
t73 104.5t55 114t34.5 104t12 75q0 15 -10.5 29t-23 22t-23 8.5t-10.5 -12.5zM538 681q5 5 11.5 -0.5t12.5 -15t10 -21t4 -17.5t-17 -18.5t-41 -25t-50 -22t-44 -9.5q-7 0 -13 5t-9 10.5t-2.5 10.5t6.5 5q9 0 26.5 11.5t37.5 27t38.5 32t29.5 27.5z" />
    <glyph glyph-name="Ydieresis" unicode="&#x178;" horiz-adv-x="504" 
d="M418 363q0 -11 -15.5 -33.5t-41.5 -51t-58.5 -59.5t-66 -59t-65.5 -49.5t-57 -29.5q13 19 36.5 49t50.5 67t55 78.5t50.5 83t37 81t14.5 72.5q0 22 -12 46.5t-32 45t-45.5 34t-52.5 13.5q-40 0 -84 -17t-86 -45.5t-79.5 -65t-66 -75.5t-45.5 -78t-17 -71q0 -23 16 -41
t35.5 -29.5t36 -14.5t16.5 5q0 7 -4 10t-8.5 6.5t-8.5 11.5t-4 26q0 24 17 57.5t44.5 69.5t64 71t75 62.5t77 44.5t71.5 17q11 0 19 -8.5t8 -31.5q0 -35 -18.5 -79t-47 -90.5t-61 -91.5t-61 -83t-47 -65.5t-18.5 -37.5q0 -13 6.5 -23t15.5 -17t18.5 -11t14.5 -4
q32 0 74.5 22.5t86 56.5t84 74t67.5 75q-11 -48 -31 -98.5t-45.5 -99t-55 -92t-58.5 -76.5t-56 -52t-48 -19q-22 0 -36 10.5t-22.5 26.5t-11.5 35.5t-3 37.5q0 7 -4.5 8t-10.5 -4t-10.5 -15t-4.5 -23q0 -14 6.5 -32.5t20.5 -35.5t35 -28.5t50 -11.5q53 0 100.5 30t88 76.5
t73 104.5t55 114t34.5 104t12 75q0 15 -10.5 29t-23 22t-23 8.5t-10.5 -12.5zM440 618q0 -16 -12 -33t-26 -17q-30 0 -30 30q0 7 3.5 16t9.5 16t13 12t14 5q28 0 28 -29zM559 625q0 -15 -7.5 -29t-22.5 -14q-14 0 -24 6.5t-10 21.5q0 16 13 31.5t27 15.5q15 0 19.5 -8
t4.5 -24z" />
    <glyph glyph-name="Z" unicode="Z" horiz-adv-x="500" 
d="M573 595q12 0 23 -12t17.5 -27t7.5 -29.5t-7 -19.5q-64 -50 -143 -113t-159 -129q51 9 87 16t41 7q9 0 20 -16.5t11 -39.5q0 -4 -22 -8.5t-57 -10t-78.5 -10.5t-86.5 -10q-66 -56 -121 -107t-93 -93q43 10 95.5 20t106.5 17.5t105.5 12t93.5 4.5q33 0 53.5 -21t30 -46
t8.5 -46t-12 -21q-3 0 -4 5t-10 10.5t-31.5 10.5t-67.5 5q-118 0 -201 -14t-136.5 -30.5t-80 -30.5t-29.5 -14q-8 0 -17 12.5t-16 28.5t-9.5 31.5t2.5 21.5q1 3 6 6q9 8 32 29t57 51.5t77 69t92 81.5q-41 -5 -69 -7t-32 -2q-6 0 -11 7.5t-7 16t-1 16t7 7.5q12 0 31.5 2
t44.5 5.5t53.5 8.5t57.5 10q72 63 147.5 126.5t149.5 123.5q-51 -6 -97.5 -17t-84.5 -22.5t-67.5 -19.5t-47.5 -8q-22 0 -39.5 22.5t-27.5 49.5t-10.5 49.5t12.5 22.5q10 0 12 -5t5 -11t10.5 -11t29.5 -5q35 0 87 8t104.5 17t96 17t61.5 8z" />
    <glyph glyph-name="Zcaron" unicode="&#x17d;" horiz-adv-x="500" 
d="M573 595q-18 0 -61.5 -8t-96 -17t-104.5 -17t-87 -8q-22 0 -29.5 5t-10.5 11t-5 11t-12 5q-13 0 -12.5 -22.5t10.5 -49.5t27.5 -49.5t39.5 -22.5q18 0 47.5 8t67.5 19.5t84.5 22.5t97.5 17q-74 -60 -149.5 -123.5t-147.5 -126.5q-29 -5 -57.5 -10t-53.5 -8.5t-44.5 -5.5
t-31.5 -2q-6 0 -7 -7.5t1 -16t7 -16t11 -7.5q4 0 32 2t69 7q-49 -43 -92 -81.5t-77 -69t-57 -51.5t-32 -29q-5 -3 -6 -6q-5 -6 -2.5 -21.5t9.5 -31.5t16 -28.5t17 -12.5q3 0 29.5 14t80 30.5t136.5 30.5t201 14q45 0 67.5 -5t31.5 -10.5t10 -10.5t4 -5q11 0 12 21t-8.5 46
t-30 46t-53.5 21q-42 0 -93.5 -4.5t-105.5 -12t-106.5 -17.5t-95.5 -20q38 42 93 93t121 107q43 5 86.5 10t78.5 10.5t57 10t22 8.5q0 23 -11 39.5t-20 16.5q-5 0 -41 -7t-87 -16q80 66 159 129t143 113q8 5 7 19.5t-7.5 29.5t-17.5 27t-23 12zM594 733q-6 0 -24 -11.5
t-40 -29.5t-42 -39t-30 -40q-2 -4 -9 -5t-15 0t-14 3.5t-7 6.5q-6 33 -15 54t-17 34t-13.5 19.5t-5.5 9.5q0 7 3.5 8.5t7.5 1.5q13 0 26.5 -10.5t24.5 -23.5q13 -15 26 -34q23 19 45 35q19 14 39 25t34 11q23 0 29.5 -7.5t-3.5 -7.5z" />
    <glyph glyph-name="a" unicode="a" horiz-adv-x="352" 
d="M373 167q-20 -27 -40 -52.5t-40.5 -46t-42.5 -33t-46 -12.5q-6 0 -15 4.5t-18 12t-15.5 16.5t-6.5 19q0 15 5 36t13 44q-18 -26 -43 -59t-51 -62t-50.5 -48.5t-40.5 -19.5q-10 0 -19.5 7t-17 18t-12 24t-4.5 25q0 15 11.5 41.5t30.5 57t43 62t48 57t46.5 41.5t39.5 16
q11 0 23 -6.5t22 -15.5t16.5 -18t6.5 -14q0 -11 -10 -11q-8 0 -10.5 5.5t-14.5 5.5q-6 0 -19.5 -12t-31 -31t-36 -43t-33.5 -48t-25 -45t-10 -35q0 -10 8 -10q4 0 17 12.5t30 31.5t36.5 42t36.5 43.5t29 35.5t15 19q10 13 14 13q9 0 19.5 -4t19 -10.5t14.5 -15t6 -16.5
q0 -6 -8.5 -23l-18.5 -37t-18.5 -38.5t-8.5 -27.5q0 -8 6 -8q13 0 27.5 10.5t31 28t34 40t36.5 47.5z" />
    <glyph glyph-name="aacute" unicode="&#xe1;" horiz-adv-x="352" 
d="M373 167q-20 -27 -40 -52.5t-40.5 -46t-42.5 -33t-46 -12.5q-6 0 -15 4.5t-18 12t-15.5 16.5t-6.5 19q0 15 5 36t13 44q-18 -26 -43 -59t-51 -62t-50.5 -48.5t-40.5 -19.5q-10 0 -19.5 7t-17 18t-12 24t-4.5 25q0 15 11.5 41.5t30.5 57t43 62t48 57t46.5 41.5t39.5 16
q11 0 23 -6.5t22 -15.5t16.5 -18t6.5 -14q0 -11 -10 -11q-8 0 -10.5 5.5t-14.5 5.5q-6 0 -19.5 -12t-31 -31t-36 -43t-33.5 -48t-25 -45t-10 -35q0 -10 8 -10q4 0 17 12.5t30 31.5t36.5 42t36.5 43.5t29 35.5t15 19q10 13 14 13q9 0 19.5 -4t19 -10.5t14.5 -15t6 -16.5
q0 -6 -8.5 -23l-18.5 -37t-18.5 -38.5t-8.5 -27.5q0 -8 6 -8q13 0 27.5 10.5t31 28t34 40t36.5 47.5zM231 504q5 5 11.5 -0.5t12.5 -15t10 -21t4 -17.5t-17 -18.5t-41 -25t-50 -22t-44 -9.5q-7 0 -13 5t-9 10.5t-2.5 10.5t6.5 5q9 0 26.5 11.5t37.5 27t38.5 32t29.5 27.5z
" />
    <glyph glyph-name="acircumflex" unicode="&#xe2;" horiz-adv-x="352" 
d="M373 167q-20 -27 -40 -52.5t-40.5 -46t-42.5 -33t-46 -12.5q-6 0 -15 4.5t-18 12t-15.5 16.5t-6.5 19q0 15 5 36t13 44q-18 -26 -43 -59t-51 -62t-50.5 -48.5t-40.5 -19.5q-10 0 -19.5 7t-17 18t-12 24t-4.5 25q0 15 11.5 41.5t30.5 57t43 62t48 57t46.5 41.5t39.5 16
q11 0 23 -6.5t22 -15.5t16.5 -18t6.5 -14q0 -11 -10 -11q-8 0 -10.5 5.5t-14.5 5.5q-6 0 -19.5 -12t-31 -31t-36 -43t-33.5 -48t-25 -45t-10 -35q0 -10 8 -10q4 0 17 12.5t30 31.5t36.5 42t36.5 43.5t29 35.5t15 19q10 13 14 13q9 0 19.5 -4t19 -10.5t14.5 -15t6 -16.5
q0 -6 -8.5 -23l-18.5 -37t-18.5 -38.5t-8.5 -27.5q0 -8 6 -8q13 0 27.5 10.5t31 28t34 40t36.5 47.5zM66 416q6 0 24 11.5t40 29.5t42 39t30 40q2 4 9 5t15 0t14 -3.5t7 -6.5q6 -33 15 -54t17 -34t13.5 -19.5t5.5 -9.5q0 -7 -3.5 -8.5t-7.5 -1.5q-13 0 -26.5 10.5
t-24.5 23.5q-13 15 -26 34q-23 -20 -45 -36q-19 -14 -39 -24.5t-34 -10.5q-23 0 -29.5 7.5t3.5 7.5z" />
    <glyph glyph-name="acute" unicode="&#xb4;" horiz-adv-x="412" 
d="M229 747q5 5 11.5 -0.5t12.5 -15t10 -21t4 -17.5t-17 -18.5t-41 -25t-50 -22t-44 -9.5q-7 0 -13 5t-9 10.5t-2.5 10.5t6.5 5q9 0 26.5 11.5t37.5 27t38.5 32t29.5 27.5z" />
    <glyph glyph-name="adieresis" unicode="&#xe4;" horiz-adv-x="352" 
d="M373 167q-20 -27 -40 -52.5t-40.5 -46t-42.5 -33t-46 -12.5q-6 0 -15 4.5t-18 12t-15.5 16.5t-6.5 19q0 15 5 36t13 44q-18 -26 -43 -59t-51 -62t-50.5 -48.5t-40.5 -19.5q-10 0 -19.5 7t-17 18t-12 24t-4.5 25q0 15 11.5 41.5t30.5 57t43 62t48 57t46.5 41.5t39.5 16
q11 0 23 -6.5t22 -15.5t16.5 -18t6.5 -14q0 -11 -10 -11q-8 0 -10.5 5.5t-14.5 5.5q-6 0 -19.5 -12t-31 -31t-36 -43t-33.5 -48t-25 -45t-10 -35q0 -10 8 -10q4 0 17 12.5t30 31.5t36.5 42t36.5 43.5t29 35.5t15 19q10 13 14 13q9 0 19.5 -4t19 -10.5t14.5 -15t6 -16.5
q0 -6 -8.5 -23l-18.5 -37t-18.5 -38.5t-8.5 -27.5q0 -8 6 -8q13 0 27.5 10.5t31 28t34 40t36.5 47.5zM150 445q0 -16 -12 -33t-26 -17q-30 0 -30 30q0 7 3.5 16t9.5 16t13 12t14 5q28 0 28 -29zM269 452q0 -15 -7.5 -29t-22.5 -14q-14 0 -24 6.5t-10 21.5q0 16 13 31.5
t27 15.5q15 0 19.5 -8t4.5 -24z" />
    <glyph glyph-name="agrave" unicode="&#xe0;" horiz-adv-x="352" 
d="M373 167q-20 -27 -40 -52.5t-40.5 -46t-42.5 -33t-46 -12.5q-6 0 -15 4.5t-18 12t-15.5 16.5t-6.5 19q0 15 5 36t13 44q-18 -26 -43 -59t-51 -62t-50.5 -48.5t-40.5 -19.5q-10 0 -19.5 7t-17 18t-12 24t-4.5 25q0 15 11.5 41.5t30.5 57t43 62t48 57t46.5 41.5t39.5 16
q11 0 23 -6.5t22 -15.5t16.5 -18t6.5 -14q0 -11 -10 -11q-8 0 -10.5 5.5t-14.5 5.5q-6 0 -19.5 -12t-31 -31t-36 -43t-33.5 -48t-25 -45t-10 -35q0 -10 8 -10q4 0 17 12.5t30 31.5t36.5 42t36.5 43.5t29 35.5t15 19q10 13 14 13q9 0 19.5 -4t19 -10.5t14.5 -15t6 -16.5
q0 -6 -8.5 -23l-18.5 -37t-18.5 -38.5t-8.5 -27.5q0 -8 6 -8q13 0 27.5 10.5t31 28t34 40t36.5 47.5zM120 528q11 -11 29.5 -27.5t38.5 -32t37.5 -27t26.5 -11.5q6 0 6.5 -5t-2.5 -10.5t-9 -10.5t-13 -5q-18 0 -44 9.5t-50 22t-41 25t-17 18.5t4 17.5t10 21t12.5 15
t11.5 0.5z" />
    <glyph glyph-name="ampersand" unicode="&#x26;" horiz-adv-x="492" 
d="M520 476q0 -25 -31.5 -60.5t-80 -77.5t-106 -89t-109.5 -93q5 -36 16.5 -66.5t27.5 -56.5q21 18 40 37.5t33.5 39t22.5 39t8 36.5q0 12 -4 15.5t-9.5 3.5t-9.5 -0.5t-4 5.5q0 9 14.5 9t31.5 -7.5t31.5 -23t14.5 -37.5q0 -24 -10 -48t-27 -46.5t-40 -43t-50 -37.5
q21 -23 41 -40t36.5 -28t26.5 -17.5t10 -8.5q0 -7 -8 -8.5t-11 -1.5q-27 0 -67 19.5t-80 56.5q-70 -34 -130 -34q-57 0 -89 34.5t-32 83.5q0 24 37 60.5t92 79.5q-2 14 -3 28t-1 29q0 54 24.5 115.5t67 114.5t99 88t120.5 35q16 0 34.5 -8.5t35 -22.5t27.5 -33.5t11 -40.5z
M449 537q-19 0 -44.5 -10.5t-53 -30t-55 -46.5t-50 -60.5t-37.5 -72.5t-19 -82q51 38 102 76.5t92 74t66.5 67t25.5 55.5q0 16 -7.5 22.5t-19.5 6.5zM66 -50q23 0 53.5 12.5t63.5 32.5q-17 21 -31.5 45.5t-25.5 51.5q-33 -35 -53.5 -67.5t-20.5 -59.5q0 -9 3 -12t11 -3z" />
    <glyph glyph-name="aring" unicode="&#xe5;" horiz-adv-x="352" 
d="M373 167q-20 -27 -40 -52.5t-40.5 -46t-42.5 -33t-46 -12.5q-6 0 -15 4.5t-18 12t-15.5 16.5t-6.5 19q0 15 5 36t13 44q-18 -26 -43 -59t-51 -62t-50.5 -48.5t-40.5 -19.5q-10 0 -19.5 7t-17 18t-12 24t-4.5 25q0 15 11.5 41.5t30.5 57t43 62t48 57t46.5 41.5t39.5 16
q11 0 23 -6.5t22 -15.5t16.5 -18t6.5 -14q0 -11 -10 -11q-8 0 -10.5 5.5t-14.5 5.5q-6 0 -19.5 -12t-31 -31t-36 -43t-33.5 -48t-25 -45t-10 -35q0 -10 8 -10q4 0 17 12.5t30 31.5t36.5 42t36.5 43.5t29 35.5t15 19q10 13 14 13q9 0 19.5 -4t19 -10.5t14.5 -15t6 -16.5
q0 -6 -8.5 -23l-18.5 -37t-18.5 -38.5t-8.5 -27.5q0 -8 6 -8q13 0 27.5 10.5t31 28t34 40t36.5 47.5zM186 530q16 0 24.5 -5t12.5 -11t3.5 -11t-2.5 -5q-5 0 -6 3t-7 3q-10 0 -20.5 -6t-18.5 -15.5t-13.5 -21t-5.5 -21.5q0 -7 3.5 -13.5t14.5 -6.5q12 0 19 7.5t11 17.5
t5.5 19.5t1.5 12.5t4.5 2t9.5 -4t9.5 -8t4.5 -11t-5 -15.5t-14 -18.5t-21.5 -15t-26.5 -6q-29 0 -41.5 17.5t-12.5 33.5q0 15 7 29t17.5 25t23 17.5t23.5 6.5z" />
    <glyph glyph-name="asciicircum" unicode="^" horiz-adv-x="338" 
d="M49 565q6 0 24 11.5t40 29.5t42 39t30 40q2 4 9 5t15 0t14 -3.5t7 -6.5q6 -33 15 -54t17 -34t13.5 -19.5t5.5 -9.5q0 -7 -3.5 -8.5t-7.5 -1.5q-13 0 -26.5 10.5t-24.5 23.5q-13 15 -26 34q-23 -20 -45 -36q-19 -14 -39 -24.5t-34 -10.5q-23 0 -29.5 7.5t3.5 7.5z" />
    <glyph glyph-name="asciitilde" unicode="~" horiz-adv-x="393" 
d="M153 664q14 0 24.5 -5t18.5 -10.5t16 -10.5t17 -5q31 0 45.5 8.5t19.5 8.5q11 0 11 -11q0 -3 -5 -11.5t-15.5 -17.5t-25.5 -16.5t-35 -7.5q-15 0 -26 6.5t-21 14t-21.5 14t-27.5 6.5q-19 0 -28 -4q-2 0 -3 2q-3 3 -3 8q0 3 5 8t13 10.5t18.5 9t22.5 3.5z" />
    <glyph glyph-name="asterisk" unicode="*" horiz-adv-x="258" 
d="M194 434q2 -4 1.5 -11.5t-3.5 -12.5q-3 -6 -9 -4q-8 3 -16 5.5t-16 4.5q6 -11 11 -17t9 -11q7 -11 6 -13q-2 -10 -11 -10q-2 0 -4 1q-2 0 -4 2.5t-12 16.5q-5 7 -10.5 15t-11.5 17q-10 -11 -16.5 -19.5t-9.5 -14.5q-5 -5 -6.5 -7.5t-4.5 -1.5q-12 2 -10 15q0 2 1.5 4
t9.5 12q3 5 6.5 9.5t8.5 9.5q-11 2 -19.5 2h-13.5q-10 0 -13 3q-5 13 4 19q2 1 4.5 1h15.5q5 -1 11 -1t13 -1q-8 13 -12.5 20.5t-6.5 12t-2 6t1 2.5q1 4 6.5 9t10.5 5q6 0 9 -5q7 -23 18 -42q7 8 12 14.5t10 11.5q10 11 13.5 13t5.5 2q4 -1 9.5 -6.5t6.5 -10.5q1 -7 -3 -11
q-9 -5 -16.5 -11.5t-15.5 -12.5q15 -2 23.5 -3.5t12.5 -2.5t5 -2z" />
    <glyph glyph-name="at" unicode="@" horiz-adv-x="697" 
d="M595 200q0 10 9 9.5t20 -10t20 -27t9 -40.5q0 -20 -14 -47.5t-40 -56.5t-63 -57.5t-84 -51t-102 -36.5t-116 -14q-65 0 -109 18t-71 46t-39 61.5t-12 63.5q0 37 13.5 79t38 84t59 80t76.5 67.5t90 47t100 17.5q44 0 79.5 -12t61 -31.5t39 -45t13.5 -53.5
q0 -18 -9.5 -45.5t-26 -58t-37.5 -60.5t-43.5 -54.5t-46 -39.5t-43.5 -15q-7 0 -17.5 4.5t-20 12t-16.5 18t-7 22.5q0 11 5.5 28.5t13.5 37.5q-17 -24 -34.5 -48.5t-34.5 -44t-31.5 -32t-24.5 -12.5q-9 0 -21 7t-23 18t-19 24t-8 25q0 25 20 62.5t47 72.5t55 60t44 25
t30.5 -5.5t25 -13t16.5 -15.5t6 -14t-2.5 -5.5t-6.5 2.5t-9 5t-10 3q-11 0 -26.5 -12t-33 -31.5t-35 -43.5t-31.5 -47.5t-22.5 -44.5t-8.5 -34q0 -9 5 -9q11 0 33.5 23t49 54.5t52 65.5t41.5 57q7 12 12 19.5t7 7.5q5 0 14.5 -5.5t18 -13t13 -17t0.5 -16.5q-5 -7 -16.5 -30
t-23.5 -48.5t-21.5 -47.5t-9.5 -27q0 -4 1 -7q2 -6 12 -6q8 0 24 13t35 34t38.5 48.5t35.5 56.5t26.5 56.5t10.5 50.5q0 20 -5.5 37.5t-18 31t-32.5 21t-49 7.5q-49 0 -96 -19t-89 -49t-77.5 -68t-61 -76t-39.5 -73t-14 -59q0 -25 5.5 -54t23 -54.5t49 -42.5t84.5 -17
q51 0 99 17.5t90 45t77 61t59.5 65t38.5 57t14 37.5q0 9 -1.5 14t-3 7.5t-3 4t-1.5 5.5z" />
    <glyph glyph-name="atilde" unicode="&#xe3;" horiz-adv-x="352" 
d="M373 167q-20 -27 -40 -52.5t-40.5 -46t-42.5 -33t-46 -12.5q-6 0 -15 4.5t-18 12t-15.5 16.5t-6.5 19q0 15 5 36t13 44q-18 -26 -43 -59t-51 -62t-50.5 -48.5t-40.5 -19.5q-10 0 -19.5 7t-17 18t-12 24t-4.5 25q0 15 11.5 41.5t30.5 57t43 62t48 57t46.5 41.5t39.5 16
q11 0 23 -6.5t22 -15.5t16.5 -18t6.5 -14q0 -11 -10 -11q-8 0 -10.5 5.5t-14.5 5.5q-6 0 -19.5 -12t-31 -31t-36 -43t-33.5 -48t-25 -45t-10 -35q0 -10 8 -10q4 0 17 12.5t30 31.5t36.5 42t36.5 43.5t29 35.5t15 19q10 13 14 13q9 0 19.5 -4t19 -10.5t14.5 -15t6 -16.5
q0 -6 -8.5 -23l-18.5 -37t-18.5 -38.5t-8.5 -27.5q0 -8 6 -8q13 0 27.5 10.5t31 28t34 40t36.5 47.5zM130 474q14 0 24.5 -5t18.5 -10.5t16 -10.5t17 -5q31 0 45.5 8.5t19.5 8.5q11 0 11 -11q0 -3 -5 -11.5t-15.5 -17.5t-25.5 -16.5t-35 -7.5q-15 0 -26 6.5t-21 14t-21.5 14
t-27.5 6.5q-19 0 -28 -4q-2 0 -3 2q-3 3 -3 8q0 3 5 8t13 10.5t18.5 9t22.5 3.5z" />
    <glyph glyph-name="b" unicode="b" horiz-adv-x="451" 
d="M326 382q11 0 26 -8.5t28.5 -21.5t23 -28t9.5 -28q0 -40 -16.5 -84.5t-44 -89t-62.5 -85t-72 -71t-72.5 -49t-64.5 -18.5q-43 0 -65 13.5t-30.5 30t-6.5 30t7 13.5t7.5 -6.5t7 -14t13.5 -14t28 -6.5q20 0 50.5 23t63.5 58.5t66.5 79.5t60.5 86t43.5 78t16.5 55
q0 25 -10 25t-32 -18.5t-50.5 -48t-61 -66t-62.5 -72.5t-55 -68t-39 -51q-1 -5 -1.5 -9.5t-0.5 -8.5q0 -7 -12 -5.5t-26 8.5t-26 18.5t-12 26.5q0 17 18 62t46 102.5t61.5 119.5t65 113.5t57 85t36.5 33.5q10 0 24.5 -5.5t27 -13t19 -16t-0.5 -15.5q-23 -23 -57 -70.5
t-70 -105t-69 -119.5t-54 -115q16 21 38.5 49t48 58t52.5 59.5t51 52.5t44.5 37t32.5 14z" />
    <glyph glyph-name="backslash" unicode="\" horiz-adv-x="247" 
d="M297 -87q-5 -17 -16.5 -23.5t-23 -6.5t-18.5 6.5t-4 17.5t-7 56t-31 111t-52 145.5t-68.5 159.5t-81 152.5t-90.5 124.5q-10 14 -1 25.5t26.5 19t38 10.5t32.5 -1q6 -2 22.5 -35.5t39.5 -87.5t49.5 -123t53.5 -141.5t51.5 -142.5t43 -127t28.5 -95t8 -45z" />
    <glyph glyph-name="bar" unicode="|" horiz-adv-x="235" 
d="M91 -69q-4 5 -7 37t-4.5 81.5t-2 110.5t0 124.5t2.5 124t5 108.5t6.5 79t8.5 34q10 6 28.5 9.5t36 2.5t29 -7.5t7.5 -19.5q-25 -53 -40 -121.5t-23 -140.5t-10 -142.5t0 -127t7.5 -94.5t11.5 -45t1.5 -14t-14 -10.5t-21.5 -1.5t-22 13z" />
    <glyph glyph-name="braceleft" unicode="{" horiz-adv-x="295" 
d="M329 566q17 0 26.5 -8t14 -17.5t5 -17.5t-2.5 -8q-5 0 -5 2.5t-10 2.5q-28 0 -50 -21.5t-40.5 -53.5t-36 -69.5t-35 -69.5t-37.5 -53.5t-45 -21.5q7 -5 12 -14q5 -8 9 -21.5t4 -33.5q0 -21 -15.5 -54t-34.5 -68.5t-34.5 -68t-15.5 -52.5q0 -15 5 -18.5t5 -10.5
t-11.5 -7.5t-25.5 7.5t-25.5 25t-11.5 45q0 18 15 47.5t33.5 61.5t33.5 63.5t15 54.5q0 17 -2 26t-4 14.5t-4 8t-2 6.5q0 8 5.5 8.5t10.5 0.5q22 0 39.5 23.5t33.5 58.5t33 75.5t37.5 75.5t47 58.5t63.5 23.5z" />
    <glyph glyph-name="braceright" unicode="}" horiz-adv-x="274" 
d="M232 564q0 7 12 6t26.5 -8t26.5 -19.5t12 -27.5q0 -19 -15.5 -51.5t-34.5 -68.5t-34.5 -70.5t-15.5 -57.5q0 -17 1.5 -26t3.5 -14t3.5 -8t1.5 -6q0 -9 -5.5 -9.5t-10.5 -0.5q-19 0 -35 -24t-30.5 -60.5t-28.5 -78.5t-30.5 -78.5t-36.5 -60.5t-45 -24q-23 0 -37 7.5
t-21 17t-6.5 17t5.5 7.5q8 0 8.5 -2.5t10.5 -2.5q27 0 47.5 22.5t37 56.5t30.5 73.5t28.5 73.5t30 56.5t35.5 22.5q-7 3 -12 12q-5 7 -8.5 20t-3.5 34t15.5 54t34 68t34 68t15.5 54q0 14 -4.5 17.5t-4.5 10.5z" />
    <glyph glyph-name="bracketleft" unicode="[" horiz-adv-x="333" 
d="M451 616q14 0 23 -13t13.5 -29t4.5 -29t-3 -13q-4 0 -9 3t-13.5 6t-20.5 6t-30 3q-19 0 -33 -1t-25 -2l-21 -3q-87 -127 -146.5 -237t-97.5 -193q-44 -97 -72 -177q27 4 51 8q20 3 39.5 6t28.5 3t16 -10t11.5 -22t4.5 -22t-4 -10h-15.5h-33.5t-42 0.5t-41 0.5h-31.5
t-11.5 0q-9 0 -15.5 4.5t-11 11.5t-7 14t-2.5 13q0 3 14 33t37 76.5t52.5 105.5l60 120t60.5 119.5t53.5 105t38.5 75t17 30.5q3 3 27 6t52 5.5t52.5 4t29.5 1.5z" />
    <glyph glyph-name="bracketright" unicode="]" horiz-adv-x="304" 
d="M253 541q-14 0 -14.5 9.5t5.5 21.5t14.5 23.5t12.5 15.5t22.5 5.5t41.5 2t44.5 0t30.5 -0.5t17 -7t13 -16.5t5.5 -19t-3.5 -13.5q-3 -3 -25.5 -33.5t-57 -80.5t-76.5 -114.5t-82.5 -135t-75.5 -143t-56 -138.5q-3 -16 -23 -16q-6 0 -21.5 0.5t-32.5 1t-31.5 1t-18.5 0.5
q-9 0 -18.5 9t-15 20.5t-6 20.5t7.5 9h58q19 0 42 1q73 134 140 251q28 50 58 101t58.5 97.5t54 85.5t44.5 63q-16 0 -33 -3.5t-32 -7t-27.5 -7t-19.5 -3.5z" />
    <glyph glyph-name="breve" unicode="&#x2d8;" horiz-adv-x="380" 
d="M109 749q8 0 9.5 -5t1.5 -11q0 -3 2 -14.5t10 -23.5t23.5 -21.5t43.5 -9.5q33 0 53 7t31 16t15.5 16t6.5 7q5 0 9 -10t4 -21q0 -5 -11 -15t-30 -19.5t-44 -16.5t-53 -7q-23 0 -42.5 5.5t-34 13.5t-23 17t-8.5 16q0 13 4.5 26.5t10.5 24.5t12.5 18t9.5 7z" />
    <glyph glyph-name="bullet" unicode="&#x2022;" horiz-adv-x="151" 
d="M6 206q0 9 6.5 23.5t17 28t23.5 23.5t26 10q24 0 38 -14.5t14 -32.5q0 -14 -6 -29.5t-16 -28.5t-22 -21.5t-25 -8.5q-26 0 -41 12.5t-15 37.5z" />
    <glyph glyph-name="c" unicode="c" horiz-adv-x="304" 
d="M211 243q0 10 -14 10q-15 0 -35 -15t-42 -39t-43.5 -54t-38.5 -60t-27.5 -58t-10.5 -47q0 -8 4 -14t13 -6q19 0 41 9.5t46 25t48 35t46 40.5q52 48 106 110l18 -14q-53 -68 -108 -122q-23 -23 -48.5 -44.5t-51.5 -38.5t-51 -27.5t-47 -10.5q-10 0 -24.5 8t-27.5 22.5
t-22.5 33.5t-9.5 40q0 17 10 45t28 59.5t41.5 64t51 58t56.5 42t57 16.5q6 0 20 -6.5t28.5 -17t25.5 -24t11 -28.5q0 -21 -10.5 -41.5t-24.5 -37t-27.5 -27t-20.5 -10.5q-11 0 -20 4.5t-15 10.5t-7.5 10.5t4.5 4.5q9 0 21 9t23 22.5t19 30t8 31.5z" />
    <glyph glyph-name="caron" unicode="&#x2c7;" horiz-adv-x="338" 
d="M293 671q-6 0 -24 -11.5t-40 -29.5t-42 -39t-30 -40q-2 -4 -9 -5t-15 0t-14 3.5t-7 6.5q-6 33 -15 54t-17 34t-13.5 19.5t-5.5 9.5q0 7 3.5 8.5t7.5 1.5q13 0 26.5 -10.5t24.5 -23.5q13 -15 26 -34q23 19 45 35q19 14 39 25t34 11q23 0 29.5 -7.5t-3.5 -7.5z" />
    <glyph glyph-name="ccedilla" unicode="&#xe7;" horiz-adv-x="304" 
d="M322 166q-50 -62 -100 -113q-21 -22 -45 -43.5t-48.5 -39t-49 -30t-46.5 -16.5q10 -19 17 -44t7 -54q0 -23 -5.5 -42.5t-13.5 -34t-17 -23t-16 -8.5q-13 0 -26.5 4.5t-24.5 10.5t-18 12.5t-7 9.5q0 8 5 9.5t11 1.5q3 0 14.5 2t23.5 10t21.5 23.5t9.5 43.5q0 37 -8.5 57
t-18.5 31q-20 13 -37.5 38t-17.5 56q0 17 10 45t28 59.5t41.5 64t51 58t56.5 42t57 16.5q6 0 20 -6.5t28.5 -17t25.5 -24t11 -28.5q0 -21 -10.5 -41.5t-24.5 -37t-27.5 -27t-20.5 -10.5q-11 0 -20 4.5t-15 10.5t-7.5 10.5t4.5 4.5q9 0 21 9t23 22.5t19 30t8 31.5
q0 10 -14 10q-15 0 -35 -15t-42 -39t-43.5 -54t-38.5 -60t-27.5 -58t-10.5 -47q0 -8 4 -14t13 -6q19 0 41 9.5t46 25t48 35t46 40.5q52 48 106 110l18 -14v0z" />
    <glyph glyph-name="cent" unicode="&#xa2;" horiz-adv-x="304" 
d="M290 367q16 -11 28 -25t12 -30q0 -21 -10.5 -41.5t-24.5 -37t-27.5 -27t-20.5 -10.5q-12 0 -22.5 5.5t-15.5 12.5q-23 -45 -45.5 -89.5t-41.5 -81.5q18 8 38 20t40 26q7 5 12.5 3t7.5 -8t-0.5 -14.5t-10.5 -14.5q-27 -22 -55 -36.5t-54 -18.5l-12 -24t-7 -15
q-3 -7 -9 -7.5t-10.5 3.5t-6.5 12t2 18l4 8t4 9q-11 6 -22 15.5t-20.5 22.5t-15.5 28.5t-6 32.5t10 45t28 59.5t41.5 64t51 58t56.5 42t57 16.5q1 0 9 -2q14 29 17 38q5 14 12 12.5t13 -10t8.5 -19.5t-0.5 -16q-2 -3 -5.5 -9t-8.5 -15zM69 56q0 -16 12 -19q13 27 29 59
l33 66t34.5 68.5t32.5 66.5q-24 -22 -49 -54.5t-45.5 -67t-33.5 -66.5t-13 -53zM216 227q9 3 20.5 12.5t21 22.5t16 28t6.5 29q0 8 -11 10q-11 -22 -24.5 -47.5t-28.5 -54.5z" />
    <glyph glyph-name="circumflex" unicode="&#x2c6;" horiz-adv-x="338" 
d="M49 565q6 0 24 11.5t40 29.5t42 39t30 40q2 4 9 5t15 0t14 -3.5t7 -6.5q6 -33 15 -54t17 -34t13.5 -19.5t5.5 -9.5q0 -7 -3.5 -8.5t-7.5 -1.5q-13 0 -26.5 10.5t-24.5 23.5q-13 15 -26 34q-23 -20 -45 -36q-19 -14 -39 -24.5t-34 -10.5q-23 0 -29.5 7.5t3.5 7.5z" />
    <glyph glyph-name="colon" unicode=":" horiz-adv-x="121" 
d="M-35 32q0 6 4 15.5t11 18t15.5 15t16.5 6.5q16 0 25 -9.5t9 -20.5q0 -19 -14 -38t-31 -19t-26.5 8t-9.5 24zM6 218q0 6 4 15.5t11 18t15.5 15t16.5 6.5q16 0 25 -9.5t9 -20.5q0 -19 -14 -38t-31 -19t-26.5 8t-9.5 24z" />
    <glyph glyph-name="comma" unicode="," horiz-adv-x="174" 
d="M31 -5q0 16 -7 19.5t-7 9.5t11.5 13.5t40.5 7.5q18 0 32.5 -11.5t14.5 -26.5t-19 -39.5t-43.5 -48t-48.5 -40.5t-33 -17q-12 0 -12 11q0 6 11 16t24.5 25t24.5 35t11 46z" />
    <glyph glyph-name="copyright" unicode="&#xa9;" horiz-adv-x="491" 
d="M516 211q0 10 8.5 9.5t19 -9.5t19 -25t8.5 -38q0 -18 -13 -43t-37 -52t-59 -53.5t-78 -47.5t-94.5 -34t-108.5 -13q-59 0 -99.5 17t-66 43t-37 56.5t-11.5 58.5q0 34 12.5 73t35.5 77.5t55 74t71.5 62.5t84 43t93.5 16q39 0 72 -11t56.5 -29t36.5 -42t13 -49
q0 -26 -14.5 -58t-39 -65.5t-56 -65.5t-66 -57t-68.5 -40t-63 -15q-6 0 -16.5 5.5t-20 15.5t-16.5 23.5t-7 29.5q0 18 16 53t41.5 69t57 59.5t62.5 25.5q4 0 14.5 -5t20.5 -13.5t18 -19t8 -20.5q0 -14 -7.5 -28.5t-17 -26.5t-20 -20t-16.5 -8q-7 0 -13.5 3.5t-10.5 8t-5 8
t4 3.5t14 6t17.5 16t14.5 21t6 22q0 5 -3.5 7t-7.5 2q-17 0 -41.5 -23t-47 -55t-39 -65t-16.5 -54q0 -14 14 -14q20 0 48.5 12.5t59 33.5t61 49.5t54.5 59.5t39 64t15 64q0 39 -21.5 65t-75.5 26q-46 0 -89.5 -17.5t-82.5 -46t-71.5 -64.5t-56 -73t-36.5 -72.5t-13 -61.5
q0 -11 5.5 -34.5t21.5 -47t46 -41t79 -17.5q47 0 91.5 16.5t83 42t70.5 56.5t55.5 60t36 53t12.5 36q0 17 -4.5 19.5t-4.5 8.5z" />
    <glyph glyph-name="d" unicode="d" horiz-adv-x="403" 
d="M421 166q-21 -26 -47 -55.5t-50.5 -55.5t-45 -43t-32.5 -17q-9 0 -25 5t-31 15.5t-26 26.5t-11 37q0 14 13.5 43.5t33.5 65.5q-32 -44 -63 -86.5t-58 -76t-47 -56t-28 -25.5h-2q-8 0 -21 7t-25 18t-21 25t-9 29q0 18 12 47.5t31.5 62.5t44.5 66.5t51 60t51 43.5t45 17
q13 0 26 -7t23 -16t16.5 -18.5t7.5 -13.5q28 38 51.5 72t40.5 60q12 20 17.5 33.5t8.5 16.5q4 4 15.5 2t23.5 -10t21.5 -22.5t9.5 -35.5q0 -4 -13.5 -25t-34.5 -51.5t-44.5 -67t-44.5 -72.5t-34.5 -67.5t-13.5 -52.5q0 -12 9 -12q13 0 31.5 14t39.5 35.5t43 47.5t43 50z
M9 -12q5 0 26 23.5t51.5 61t66.5 84.5t71 94q-10 -2 -10 9q0 10 -11 10q-12 0 -33.5 -21t-46.5 -52t-49.5 -68t-42 -68t-25 -52t2.5 -21z" />
    <glyph glyph-name="degree" unicode="&#xb0;" horiz-adv-x="239" 
d="M217 567q21 0 32.5 -6.5t16.5 -14.5t4.5 -14.5t-3.5 -6.5q-6 0 -7.5 4t-9.5 4q-14 0 -27.5 -8t-24.5 -20.5t-18 -27.5t-7 -29q0 -9 5 -17.5t19 -8.5q15 0 25 10t15 23t7 25t2 17q0 3 6 2t12.5 -5t12.5 -10.5t6 -14.5t-6.5 -20.5t-18.5 -24t-28.5 -20t-35.5 -8.5
t-32.5 6.5t-22 17t-12.5 22t-4 22.5q0 20 9 38.5t23 33t30.5 23t31.5 8.5z" />
    <glyph glyph-name="dieresis" unicode="&#xa8;" horiz-adv-x="338" 
d="M146 686q0 -16 -12 -33t-26 -17q-30 0 -30 30q0 7 3.5 16t9.5 16t13 12t14 5q28 0 28 -29zM265 693q0 -15 -7.5 -29t-22.5 -14q-14 0 -24 6.5t-10 21.5q0 16 13 31.5t27 15.5q15 0 19.5 -8t4.5 -24z" />
    <glyph glyph-name="dollar" unicode="$" horiz-adv-x="356" 
d="M337 617q20 -6 37.5 -17t30.5 -24t20.5 -26.5t7.5 -24.5q0 -16 -10 -39t-26 -48.5t-35.5 -51.5t-38.5 -46.5t-35.5 -33.5t-25.5 -13q-3 0 -8.5 7t3.5 15q2 2 13 16.5t25.5 35t31 45.5t30.5 50t23 46.5t9 35.5q0 17 -18 17q-31 0 -69 -23q-41 -95 -73 -182.5t-56 -165.5
q17 -23 31 -45.5t14 -45.5q0 -14 -7.5 -31.5t-21.5 -34t-34 -31t-44 -23.5q-13 -50 -19.5 -80.5t-8.5 -36.5q-2 -10 -8 -11.5t-11.5 1.5t-9 8.5t-1.5 9.5q1 2 9 29.5t22 73.5q-5 -1 -11 -1h-12q-35 0 -54 13t-28 29.5t-11 31.5t-2 20q0 9 4 20.5t18 11.5q7 0 7.5 -13.5
t2 -29t8 -29t25.5 -13.5q17 0 36 7.5t37 20.5q10 31 20.5 65t21.5 69q-12 20 -29.5 39t-33.5 39t-27.5 42.5t-11.5 49.5q0 44 25.5 90t62.5 85t78 66t72 35q9 30 15 48.5t9 30t4.5 16t2.5 6.5q4 3 10 6l12.5 5t18.5 5q20 5 32 -1.5t4 -21.5q-9 -17 -15.5 -28t-12 -21
t-11.5 -21.5t-14 -27.5zM164 123q0 12 -5 25q-7 -22 -13 -43t-11 -41q13 14 21 28.5t8 30.5zM157 211q21 70 43 141.5t42 137.5q-24 -23 -45 -49t-37.5 -51.5t-26 -49.5t-9.5 -42q0 -23 9.5 -44.5t23.5 -42.5z" />
    <glyph glyph-name="dotaccent" unicode="&#x2d9;" horiz-adv-x="227" 
d="M146 686q0 -16 -12 -33t-26 -17q-30 0 -30 30q0 7 3.5 16t9.5 16t13 12t14 5q28 0 28 -29z" />
    <glyph glyph-name="dotlessi" unicode="&#x131;" horiz-adv-x="192" 
d="M25 36q20 0 41.5 13.5t43 34.5t42.5 46.5t40 49.5l17 -14q-21 -26 -47.5 -58t-54.5 -60.5t-56.5 -48t-52.5 -19.5q-5 0 -13 4.5t-15.5 14t-13 24.5t-5.5 37q0 15 7.5 35.5t19.5 43.5t25 46t25 43t19.5 34.5t7.5 19.5q0 9 10.5 6.5t23 -11t23 -20t10.5 -20.5
q0 -4 -7.5 -17t-18.5 -30.5t-24.5 -38t-24.5 -40.5t-18.5 -37t-7.5 -28q0 -10 4 -10z" />
    <glyph glyph-name="e" unicode="e" horiz-adv-x="285" 
d="M303 166q-21 -26 -51 -57t-62.5 -58.5t-65 -46t-59.5 -18.5q-12 0 -29 9t-32 23t-25.5 31t-10.5 34q0 27 11 55t28.5 55t38.5 50.5t40.5 41.5t34.5 28.5t21 10.5q15 0 31 -9t29.5 -22t22.5 -27t9 -23q0 -19 -17 -44t-40.5 -47t-49 -37.5t-42.5 -15.5q-7 0 -13 3t-11 8
q-10 -20 -15.5 -38.5t-5.5 -33.5q0 -11 3.5 -16.5t8.5 -5.5q28 0 60 16.5t63.5 41.5t60 53.5t49.5 52.5zM195 262q-11 0 -27 -11.5t-33 -30.5t-34.5 -43.5t-30.5 -49.5q24 6 52 27.5t49.5 45.5t30 43t-6.5 19z" />
    <glyph glyph-name="eacute" unicode="&#xe9;" horiz-adv-x="285" 
d="M303 166q-21 -26 -51 -57t-62.5 -58.5t-65 -46t-59.5 -18.5q-12 0 -29 9t-32 23t-25.5 31t-10.5 34q0 27 11 55t28.5 55t38.5 50.5t40.5 41.5t34.5 28.5t21 10.5q15 0 31 -9t29.5 -22t22.5 -27t9 -23q0 -19 -17 -44t-40.5 -47t-49 -37.5t-42.5 -15.5q-7 0 -13 3t-11 8
q-10 -20 -15.5 -38.5t-5.5 -33.5q0 -11 3.5 -16.5t8.5 -5.5q28 0 60 16.5t63.5 41.5t60 53.5t49.5 52.5zM195 262q-11 0 -27 -11.5t-33 -30.5t-34.5 -43.5t-30.5 -49.5q24 6 52 27.5t49.5 45.5t30 43t-6.5 19zM198 532q5 5 11.5 -0.5t12.5 -15t10 -21t4 -17.5t-17 -18.5
t-41 -25t-50 -22t-44 -9.5q-7 0 -13 5t-9 10.5t-2.5 10.5t6.5 5q9 0 26.5 11.5t37.5 27t38.5 32t29.5 27.5z" />
    <glyph glyph-name="ecircumflex" unicode="&#xea;" horiz-adv-x="285" 
d="M303 166q-21 -26 -51 -57t-62.5 -58.5t-65 -46t-59.5 -18.5q-12 0 -29 9t-32 23t-25.5 31t-10.5 34q0 27 11 55t28.5 55t38.5 50.5t40.5 41.5t34.5 28.5t21 10.5q15 0 31 -9t29.5 -22t22.5 -27t9 -23q0 -19 -17 -44t-40.5 -47t-49 -37.5t-42.5 -15.5q-7 0 -13 3t-11 8
q-10 -20 -15.5 -38.5t-5.5 -33.5q0 -11 3.5 -16.5t8.5 -5.5q28 0 60 16.5t63.5 41.5t60 53.5t49.5 52.5zM195 262q-11 0 -27 -11.5t-33 -30.5t-34.5 -43.5t-30.5 -49.5q24 6 52 27.5t49.5 45.5t30 43t-6.5 19zM33 411q6 0 24 11.5t40 29.5t42 39t30 40q2 4 9 5t15 0t14 -3.5
t7 -6.5q6 -33 15 -54t17 -34t13.5 -19.5t5.5 -9.5q0 -7 -3.5 -8.5t-7.5 -1.5q-13 0 -26.5 10.5t-24.5 23.5q-13 15 -26 34q-23 -20 -45 -36q-19 -14 -39 -24.5t-34 -10.5q-23 0 -29.5 7.5t3.5 7.5z" />
    <glyph glyph-name="edieresis" unicode="&#xeb;" horiz-adv-x="285" 
d="M303 166q-21 -26 -51 -57t-62.5 -58.5t-65 -46t-59.5 -18.5q-12 0 -29 9t-32 23t-25.5 31t-10.5 34q0 27 11 55t28.5 55t38.5 50.5t40.5 41.5t34.5 28.5t21 10.5q15 0 31 -9t29.5 -22t22.5 -27t9 -23q0 -19 -17 -44t-40.5 -47t-49 -37.5t-42.5 -15.5q-7 0 -13 3t-11 8
q-10 -20 -15.5 -38.5t-5.5 -33.5q0 -11 3.5 -16.5t8.5 -5.5q28 0 60 16.5t63.5 41.5t60 53.5t49.5 52.5zM195 262q-11 0 -27 -11.5t-33 -30.5t-34.5 -43.5t-30.5 -49.5q24 6 52 27.5t49.5 45.5t30 43t-6.5 19zM117 450q0 -16 -12 -33t-26 -17q-30 0 -30 30q0 7 3.5 16
t9.5 16t13 12t14 5q28 0 28 -29zM236 457q0 -15 -7.5 -29t-22.5 -14q-14 0 -24 6.5t-10 21.5q0 16 13 31.5t27 15.5q15 0 19.5 -8t4.5 -24z" />
    <glyph glyph-name="egrave" unicode="&#xe8;" horiz-adv-x="285" 
d="M303 166q-21 -26 -51 -57t-62.5 -58.5t-65 -46t-59.5 -18.5q-12 0 -29 9t-32 23t-25.5 31t-10.5 34q0 27 11 55t28.5 55t38.5 50.5t40.5 41.5t34.5 28.5t21 10.5q15 0 31 -9t29.5 -22t22.5 -27t9 -23q0 -19 -17 -44t-40.5 -47t-49 -37.5t-42.5 -15.5q-7 0 -13 3t-11 8
q-10 -20 -15.5 -38.5t-5.5 -33.5q0 -11 3.5 -16.5t8.5 -5.5q28 0 60 16.5t63.5 41.5t60 53.5t49.5 52.5zM195 262q-11 0 -27 -11.5t-33 -30.5t-34.5 -43.5t-30.5 -49.5q24 6 52 27.5t49.5 45.5t30 43t-6.5 19zM87 520q11 -11 29.5 -27.5t38.5 -32t37.5 -27t26.5 -11.5
q6 0 6.5 -5t-2.5 -10.5t-9 -10.5t-13 -5q-18 0 -44 9.5t-50 22t-41 25t-17 18.5t4 17.5t10 21t12.5 15t11.5 0.5z" />
    <glyph glyph-name="eight" unicode="8" horiz-adv-x="403" 
d="M417 504q0 -27 -17.5 -57t-46 -60.5t-65 -62.5t-73.5 -63q29 -12 52 -38.5t23 -68.5q0 -29 -19 -64.5t-48.5 -66.5t-66.5 -51.5t-73 -20.5t-59.5 13.5t-37.5 32t-20 38.5t-6 32q0 28 17.5 59t46 62.5t64.5 64t74 64.5q-8 1 -21 8.5t-25 20t-21 29t-9 36.5q0 31 20.5 67.5
t51.5 67.5t67 52t66 21q13 0 34 -9t41.5 -24.5t35.5 -36.5t15 -45zM210 177q0 23 -5.5 38.5t-13.5 24.5q-32 -27 -60.5 -53.5t-50 -52.5t-34.5 -50.5t-13 -47.5q0 -22 14 -22q31 0 60.5 16.5t52 41.5t36.5 53t14 52zM187 339q33 28 62.5 54.5t52.5 51.5t36.5 47.5t13.5 42.5
q0 23 -17 23q-27 0 -57.5 -20.5t-56 -50.5t-42.5 -62.5t-17 -56.5q0 -11 3 -16t7 -7t8.5 -3t6.5 -3z" />
    <glyph glyph-name="ellipsis" unicode="&#x2026;" horiz-adv-x="341" 
d="M15 21q0 6 4 15.5t11 18t15.5 15t16.5 6.5q16 0 25 -9.5t9 -20.5q0 -19 -14 -38t-31 -19t-26.5 8t-9.5 24zM118 21q0 6 4 15.5t11 18t15.5 15t16.5 6.5q16 0 25 -9.5t9 -20.5q0 -19 -14 -38t-31 -19t-26.5 8t-9.5 24zM223 21q0 6 4 15.5t11 18t15.5 15t16.5 6.5
q16 0 25 -9.5t9 -20.5q0 -19 -14 -38t-31 -19t-26.5 8t-9.5 24z" />
    <glyph glyph-name="emdash" unicode="&#x2014;" horiz-adv-x="465" 
d="M18 266q0 7 20 16.5t62.5 18t108.5 14.5t158 6q18 0 31.5 -12.5t20 -28t5 -28t-11.5 -12.5q-9 0 -12.5 1.5t-8 4t-12 5.5t-24.5 5.5t-46 4t-75 1.5q-56 0 -90 -2t-53.5 -4t-29 -4t-15.5 -2q-11 0 -19.5 4.5t-8.5 11.5z" />
    <glyph glyph-name="endash" unicode="&#x2013;" horiz-adv-x="357" 
d="M18 269q0 6 15.5 15t48 17.5t83.5 14t122 5.5q14 0 24.5 -12t15 -26.5t3.5 -26.5t-9 -12q-10 0 -12.5 3.5t-12 7t-34 7t-78.5 3.5q-43 0 -69 -1.5t-41 -4t-22.5 -4t-11.5 -1.5q-9 0 -15.5 4t-6.5 11z" />
    <glyph glyph-name="equal" unicode="=" horiz-adv-x="419" 
d="M390 376q18 0 30.5 -12t18.5 -27t4.5 -27t-11.5 -12q-8 0 -11.5 1.5t-7.5 4t-11.5 5.5t-23.5 5.5t-43 4t-71 1.5q-53 0 -85.5 -2t-51 -4t-27.5 -4t-14 -2q-11 0 -19 4t-8 11q0 6 19 15.5t59 17.5t103 14t150 6zM300 251q15 0 32 -17t28 -37t12 -37t-15 -17
q-9 0 -15.5 4.5t-17.5 11.5t-29.5 15t-50.5 15t-81 11.5t-121 4.5q-26 0 -26 13q0 5 20 11t57 11t89.5 8t117.5 3z" />
    <glyph glyph-name="exclam" unicode="!" horiz-adv-x="238" 
d="M-24 -12q0 7 5 19t12.5 23.5t16.5 19.5t16 8t16.5 -2.5t18 -6.5t14.5 -9.5t6 -12.5t-4.5 -19.5t-11.5 -24.5t-17 -21t-20 -9q-21 0 -36.5 7.5t-15.5 27.5zM260 620q8 0 18.5 -4t19.5 -11t15.5 -16t6.5 -19q0 -8 -10 -32.5t-26.5 -58.5t-37.5 -74.5t-43 -81.5
q-51 -97 -116 -213q-7 0 -13 4.5t-10.5 11t-7 13.5t-2.5 12q0 14 14 54.5t35 92.5t46.5 109t48.5 104.5t40 78t22 30.5z" />
    <glyph glyph-name="exclamdown" unicode="&#xa1;" horiz-adv-x="238" 
d="M336 592q0 -8 -5 -19.5t-12.5 -23t-16.5 -19.5t-16 -8t-16.5 2.5t-18 6.5t-14.5 9.5t-6 12.5t4.5 19.5t11.5 24.5t16.5 21t20.5 9q21 0 36.5 -7.5t15.5 -27.5zM52 -40q5 0 22 30.5t40 78t48.5 104.5t46.5 109t35 92.5t14 54.5q0 5 -2.5 12t-7 13.5t-10.5 11t-13 4.5
q-66 -118 -117 -214q-22 -41 -42.5 -81.5t-37 -74.5t-26.5 -58t-10 -32q0 -10 6.5 -19t15.5 -16t19.5 -11t18.5 -4z" />
    <glyph glyph-name="f" unicode="f" horiz-adv-x="213" 
d="M263 555q11 0 24 -7t23 -16.5t14.5 -19t-1.5 -15.5q-63 -63 -120 -147.5t-105 -175.5q42 1 84 13.5t74 38.5q11 8 10.5 12t4.5 8q4 3 6 -3t1.5 -16.5t-5.5 -22.5t-15 -20q-13 -10 -35 -18.5t-49 -13.5q-44 -8 -90 -5q-2 -3 -3 -6.5t-3 -6.5q6 -13 11.5 -37t5.5 -63
q0 -45 -14.5 -93.5t-35.5 -89t-45 -68t-43 -30.5h-5q-8 0 -19 5t-21.5 12.5t-17.5 17t-7 18.5q0 78 33 173t82 195q-8 8 -9.5 13.5t23.5 12.5q36 71 74.5 135.5t73 113t61 77.5t38.5 29zM65 33q0 33 -8 59q-46 -99 -72 -177.5t-26 -124.5q0 -7 1 -9q13 2 31 27t34.5 62
t28 80.5t11.5 82.5z" />
    <glyph glyph-name="fi" unicode="&#xfb01;" horiz-adv-x="409" 
d="M242 37q19 0 40.5 13t43.5 34t43 46.5t40 49.5l17 -14q-21 -26 -47.5 -58t-54.5 -60.5t-56.5 -48t-52.5 -19.5q-6 0 -14 4.5t-15.5 14t-13 25t-5.5 37.5q0 17 10.5 42t24.5 52t29.5 52.5t26.5 45.5q-32 -5 -68 -14.5t-68 -20.5q-7 -11 -12.5 -21.5t-11.5 -21.5l-13 -27
q-5 -8 -6 -14q6 -13 11.5 -36.5t5.5 -62.5q0 -46 -14.5 -94.5t-35.5 -89t-45 -68t-43 -30.5h-6q-8 0 -19 5t-21.5 12.5t-17.5 17t-7 18.5q0 39 9 82.5t24.5 90.5t36.5 96.5t45 99.5q-4 3 -6.5 6.5t-2 6.5t6 6.5t17.5 6.5q36 71 74.5 135.5t73 113t61 77.5t38.5 29
q11 0 24 -7t22.5 -16.5t14.5 -19t-1 -15.5q-49 -50 -95 -113t-88 -133q44 15 83.5 26.5t53.5 11.5h3q2 -1 5.5 -1.5t6.5 -1.5q7 -4 15 -10t15 -12.5t11.5 -13.5t4.5 -13q0 -4 -7.5 -17t-18.5 -30.5t-24.5 -38t-24.5 -40.5t-18.5 -37t-7.5 -28q0 -10 4 -10zM-40 -219
q13 2 31 27t34.5 62t28 80.5t11.5 82.5q0 33 -8 59q-46 -98 -71.5 -177t-25.5 -124v-10zM440 554q10 0 21.5 -5.5t20.5 -13.5t13 -16.5t-1 -13.5q-6 -6 -17.5 -20.5t-25 -33t-27 -38.5t-25 -38.5t-18.5 -33t-7 -20.5t-8 -3t-17.5 11t-17.5 19.5t-8 22.5q0 3 7.5 18
t19.5 35.5t26 43t27 42t23 32t14 12.5z" />
    <glyph glyph-name="five" unicode="5" horiz-adv-x="399" 
d="M419 564q0 -4 -20 -12.5t-53 -17t-75 -16t-85 -10.5q-6 -17 -16.5 -43t-23.5 -56q20 8 39 12t37 4q15 0 35.5 -8.5t39 -25t32 -39.5t13.5 -52q0 -39 -14.5 -80.5t-40 -80.5t-59 -74t-71 -61t-77.5 -41.5t-77 -15.5q-32 0 -54 12.5t-33 28t-12 28t9 12.5t12 -4.5t3.5 -9.5
t5.5 -9.5t19 -4.5q36 0 73.5 17.5t73.5 46t67 64t55 71.5t37.5 68.5t13.5 55.5q0 26 -7 35.5t-17 9.5q-35 0 -66.5 -18.5t-56.5 -41t-41.5 -41.5t-22.5 -20q-8 0 -18 9.5t-19 21.5t-15.5 24.5t-6.5 18.5q0 4 7.5 23t19.5 45.5t26.5 56.5t27.5 55t23 41.5t14 16.5
q13 0 24 -2.5t20 -6.5q34 6 68 20.5t62 29t48 25.5t26 11t15 -9.5t16.5 -22t13 -24.5t5.5 -16z" />
    <glyph glyph-name="four" unicode="4" horiz-adv-x="404" 
d="M301 551q14 0 30 -6t28.5 -14.5t18.5 -17t1 -14.5q-21 -26 -47.5 -69t-52.5 -96h6q20 0 35.5 -14t24.5 -31.5t12 -31.5t-2 -14t-8 1.5t-7.5 4t-12.5 4t-23 1.5q-17 0 -33 -1t-31 -3q-21 -46 -39.5 -90.5t-31.5 -82t-19.5 -65.5t-4.5 -40q0 -11 1 -13t3 -8
q1 -6 -11.5 -3.5t-29 12t-31 25t-17.5 34.5q-1 8 4.5 28t16 48t25 62.5t31.5 72.5q-48 -13 -77.5 -25t-34.5 -12q-9 0 -18.5 8t-17 18t-12.5 20t-6 15q0 2 12.5 22t31 49.5t40 66.5t39 72.5t28.5 67.5t8 52q-2 9 6.5 8.5t19 -7t20 -17t11.5 -20.5q3 -22 -5.5 -53t-24 -65
t-35.5 -68.5t-39 -62.5q22 7 46.5 13.5t51.5 11.5q21 45 41 86t36.5 72.5t28 50t14.5 18.5z" />
    <glyph glyph-name="fraction" unicode="&#x2044;" horiz-adv-x="314" 
d="M-50 -46q0 8 21 41t55.5 82t79 108.5t91.5 120.5t93.5 119t84 103t63.5 72t32 27q13 0 32 -8.5t33 -21t19.5 -26.5t-8.5 -24q-60 -36 -123.5 -92.5t-123 -121t-112.5 -131.5t-93 -123.5t-63 -97t-23 -51.5t-9 -15t-20 -1t-20 13t-9 27z" />
    <glyph glyph-name="g" unicode="g" horiz-adv-x="362" 
d="M248 263q0 8 10.5 5t23.5 -11.5t23.5 -19.5t10.5 -18q0 -34 -13.5 -81t-36.5 -97t-52.5 -99t-62.5 -87.5t-66 -62.5t-62 -24q-35 0 -56.5 10.5t-32.5 23.5t-12 23.5t6 10.5q2 0 4 -4t5.5 -9t9.5 -9t16 -4q30 0 59.5 20.5t57 54t52.5 76t45.5 86.5t35.5 86t24 74
q-20 -32 -52.5 -80.5t-68 -95t-69 -79.5t-55.5 -33q-8 0 -18.5 6.5t-20 18t-16 26.5t-6.5 32q0 28 13.5 66.5t36 79t52 80t61.5 70.5t64 50t60 19q12 0 23.5 -5.5t21 -13t15.5 -16t6 -14.5q0 -14 -1.5 -21.5t-14.5 -7.5q-3 0 -3.5 4t-1.5 9t-3.5 9t-8.5 4q-9 0 -30.5 -17
t-49 -44.5t-57.5 -64t-55 -75t-41 -77t-16 -70.5q9 0 25 12.5t35 33.5t40 47.5t42 54.5q48 65 104 148z" />
    <glyph glyph-name="germandbls" unicode="&#xdf;" horiz-adv-x="435" 
d="M234 288q23 -4 48.5 -12.5t47.5 -24t36 -40t14 -60.5q0 -30 -14 -57t-37 -50.5t-52.5 -42.5t-60 -32.5t-59.5 -21t-51 -7.5q-6 0 -13 4t-10.5 9t-2 9t12.5 4q24 0 58.5 18t66 47t54 64t22.5 70q0 107 -107 107q-7 0 -11 10q-2 4 -2 11q58 33 105 69q19 15 38 33t34 36.5
t24 38t9 39.5q0 18 -7.5 28.5t-25.5 10.5q-27 0 -56.5 -26t-59 -69t-57.5 -98t-53.5 -114t-47 -117t-37 -106t-24.5 -81.5t-9 -43.5q0 -9 -13 -6.5t-29 13.5t-29 28.5t-13 38.5q0 9 9.5 40t27 76.5t41 100.5t52.5 111t61 108.5t66 93.5t69 65.5t69 24.5q15 0 37 -6.5
t42.5 -21t34.5 -37.5t14 -57q0 -33 -24.5 -61t-58.5 -50.5t-70 -39t-59 -26.5z" />
    <glyph glyph-name="grave" unicode="`" horiz-adv-x="379" 
d="M118 747q11 -11 29.5 -27.5t38.5 -32t37.5 -27t26.5 -11.5q6 0 6.5 -5t-2.5 -10.5t-9 -10.5t-13 -5q-18 0 -44 9.5t-50 22t-41 25t-17 18.5t4 17.5t10 21t12.5 15t11.5 0.5z" />
    <glyph glyph-name="greater" unicode="&#x3e;" horiz-adv-x="310" 
d="M18 386q4 0 7 -5.5t11 -15t23.5 -23.5t44 -31t71.5 -37.5t107 -42.5q7 -2 10 -13t2.5 -24t-3 -24t-5.5 -12q-2 0 -17.5 -6.5t-38 -16t-48 -21t-48 -23.5t-38 -23t-18.5 -18q-3 -8 -10 -7.5t-7 11.5q0 15 13.5 29.5t37.5 30t56.5 31t69.5 32.5q-28 11 -63 29.5t-67.5 37.5
t-56.5 35t-31 22q-6 6 -9 20.5t-2.5 28.5t3 25t6.5 11z" />
    <glyph glyph-name="guillemotleft" unicode="&#xab;" horiz-adv-x="448" 
d="M252 383q10 8 17 0.5t11.5 -21t6.5 -27.5t2 -19q0 -3 -10.5 -10t-27.5 -17t-39 -22l-44 -24q-53 -28 -119 -63q43 -12 83 -24q33 -11 66.5 -23.5t50.5 -25.5q9 -8 10.5 -16.5t-0.5 -14.5t-6.5 -8t-7.5 3q-12 13 -33 22.5t-45 16t-49 11t-46 8t-35 6t-16 5.5q-4 4 -8 14.5
t-8 23t-6 25t-1 21.5q0 5 15.5 15.5t39.5 23.5t53 28.5t57.5 31.5t52 31.5t36.5 28.5zM390 324q10 8 16.5 0.5t10.5 -20.5t5 -26.5t0 -17.5t-14.5 -13t-34.5 -19.5t-47.5 -21t-53.5 -17.5q24 -8 46 -18q19 -8 37 -18.5t28 -20.5q5 -6 6.5 -12t0 -9.5t-5 -4t-9.5 5.5
q-17 14 -42.5 24t-50.5 17t-44.5 10.5t-24.5 4.5q-5 0 -8 5.5t-4.5 12t-2.5 13.5t-1 11q-1 4 21.5 14t54 25t64.5 34t53 41z" />
    <glyph glyph-name="guillemotright" unicode="&#xbb;" horiz-adv-x="425" 
d="M33 301q3 0 11 -10.5t28.5 -26t57 -34.5t95.5 -35q4 -1 5.5 -7t1 -13t-3 -13t-6.5 -7q-40 -8 -66.5 -17.5t-42 -18t-22 -15t-6.5 -9.5q0 -7 -8 -5.5t-8 9.5q0 12 21.5 33t55.5 32q-23 7 -43.5 16.5t-36 19.5t-26.5 18.5t-15 13.5q-4 4 -5 15.5t0.5 23.5t5 21t7.5 9z
M108 386q3 0 6.5 -5.5t11.5 -15t23.5 -23.5t44 -31t71.5 -37.5t107 -42.5q7 -2 10 -13t2.5 -24t-3 -24t-5.5 -12q-2 0 -17.5 -6.5t-38 -16t-48 -21t-48 -23.5t-38 -23t-18.5 -18q-3 -8 -10 -7.5t-7 11.5q0 15 13.5 29.5t37.5 30t56.5 31t69.5 32.5q-28 11 -63 29.5
t-67.5 37.5t-56.5 35t-31 22q-6 6 -9 20.5t-2.5 28.5t3 25t6.5 11z" />
    <glyph glyph-name="guilsinglleft" unicode="&#x2039;" horiz-adv-x="303" 
d="M252 383q10 8 17 0.5t11.5 -21t6.5 -27.5t2 -19q0 -3 -10.5 -10t-27.5 -17t-39 -22l-44 -24q-53 -28 -119 -63q43 -12 83 -24q33 -11 66.5 -23.5t50.5 -25.5q9 -8 10.5 -16.5t-0.5 -14.5t-6.5 -8t-7.5 3q-12 13 -33 22.5t-45 16t-49 11t-46 8t-35 6t-16 5.5q-4 4 -8 14.5
t-8 23t-6 25t-1 21.5q0 5 15.5 15.5t39.5 23.5t53 28.5t57.5 31.5t52 31.5t36.5 28.5z" />
    <glyph glyph-name="guilsinglright" unicode="&#x203a;" horiz-adv-x="310" 
d="M18 386q4 0 7 -5.5t11 -15t23.5 -23.5t44 -31t71.5 -37.5t107 -42.5q7 -2 10 -13t2.5 -24t-3 -24t-5.5 -12q-2 0 -17.5 -6.5t-38 -16t-48 -21t-48 -23.5t-38 -23t-18.5 -18q-3 -8 -10 -7.5t-7 11.5q0 15 13.5 29.5t37.5 30t56.5 31t69.5 32.5q-28 11 -63 29.5t-67.5 37.5
t-56.5 35t-31 22q-6 6 -9 20.5t-2.5 28.5t3 25t6.5 11z" />
    <glyph glyph-name="h" unicode="h" horiz-adv-x="412" 
d="M429 166q-14 -17 -34 -45t-42.5 -60t-46.5 -64t-47.5 -58t-44.5 -42.5t-37 -16.5q-9 0 -20.5 6t-21.5 16t-17 21.5t-7 23.5q0 15 6.5 43t17 60.5t23.5 66t26 59.5q-29 -27 -60 -59.5t-57 -61.5q-31 -33 -59 -67v7v-7q0 -9 -10 -5.5t-21.5 12.5t-21.5 21.5t-10 22.5
q0 23 17 64t45 92q-8 5 -8.5 12t6.5 7q4 0 14 2q33 57 74 117t80 109t72 80.5t50 31.5t34 -8.5t28 -18t12.5 -18t-11.5 -8.5q-14 0 -35 -17t-46.5 -46t-54 -67t-56.5 -80q28 19 55 39t47 38.5t32.5 34t12.5 24.5q0 8 4.5 9t9.5 -2t9.5 -8.5t4.5 -10.5q0 -9 -19 -31.5
t-50 -50t-69 -56t-77 -49.5q-33 -53 -60 -101.5t-42 -84.5q10 11 27 29.5t36.5 39.5t40.5 42t40.5 38.5t34.5 28t23 10.5q10 0 21 -6.5t20 -15.5t15 -18.5t6 -15.5q0 -4 -6.5 -17t-15.5 -31.5t-20.5 -40.5t-20.5 -44.5t-15.5 -43t-6.5 -36.5q0 -9 6 -9q13 0 38.5 26.5
t55 63.5t59 75.5t50.5 62.5z" />
    <glyph glyph-name="hungarumlaut" unicode="&#x2dd;" horiz-adv-x="294" 
d="M106 738q5 5 13.5 3.5t16 -7t13 -13t5.5 -13.5t-11.5 -21t-25.5 -32t-25.5 -33t-11.5 -25q0 -7 -5.5 -7.5t-12.5 3.5t-12.5 11t-5.5 15q0 5 5.5 20t14.5 33.5t20 36.5t22 29zM221 741q5 5 12.5 2.5t14 -9.5t11 -15.5t4.5 -14.5t-11.5 -20t-25.5 -29.5t-25.5 -30
t-11.5 -23.5q0 -7 -5 -6.5t-10.5 6t-10.5 13.5t-5 16q0 5 6 19t15 31t20 33.5t22 27.5z" />
    <glyph glyph-name="hyphen" unicode="-" horiz-adv-x="427" 
d="M18 268q0 7 18 16t55.5 17t96 14t140.5 6q16 0 28 -12t18 -27t4.5 -27t-10.5 -12q-8 0 -11 1.5t-7 4t-11 5t-22 5t-40.5 4t-66.5 1.5q-50 0 -80 -1.5t-47.5 -4t-26 -4t-13.5 -1.5q-10 0 -17.5 4t-7.5 11z" />
    <glyph glyph-name="i" unicode="i" horiz-adv-x="192" 
d="M223 553q10 0 21.5 -5.5t20.5 -13.5t13 -16.5t-1 -13.5q-6 -6 -17.5 -20.5t-25 -33t-27 -38.5t-25 -38.5t-18.5 -33t-7 -20.5t-8 -3t-17.5 11t-17.5 19.5t-8 22.5q0 3 7.5 18t19.5 35.5t26 43t27 42t23 32t14 12.5zM25 36q20 0 41.5 13.5t43 34.5t42.5 46.5t40 49.5
l17 -14q-21 -26 -47.5 -58t-54.5 -60.5t-56.5 -48t-52.5 -19.5q-5 0 -13 4.5t-15.5 14t-13 24.5t-5.5 37q0 15 7.5 35.5t19.5 43.5t25 46t25 43t19.5 34.5t7.5 19.5q0 9 10.5 6.5t23 -11t23 -20t10.5 -20.5q0 -4 -7.5 -17t-18.5 -30.5t-24.5 -38t-24.5 -40.5t-18.5 -37
t-7.5 -28q0 -10 4 -10z" />
    <glyph glyph-name="iacute" unicode="&#xed;" horiz-adv-x="192" 
d="M25 36q20 0 41.5 13.5t43 34.5t42.5 46.5t40 49.5l17 -14q-21 -26 -47.5 -58t-54.5 -60.5t-56.5 -48t-52.5 -19.5q-5 0 -13 4.5t-15.5 14t-13 24.5t-5.5 37q0 15 7.5 35.5t19.5 43.5t25 46t25 43t19.5 34.5t7.5 19.5q0 9 10.5 6.5t23 -11t23 -20t10.5 -20.5
q0 -4 -7.5 -17t-18.5 -30.5t-24.5 -38t-24.5 -40.5t-18.5 -37t-7.5 -28q0 -10 4 -10zM175 501q5 5 11.5 -0.5t12.5 -15t10 -21t4 -17.5t-17 -18.5t-41 -25t-50 -22t-44 -9.5q-7 0 -13 5t-9 10.5t-2.5 10.5t6.5 5q9 0 26.5 11.5t37.5 27t38.5 32t29.5 27.5z" />
    <glyph glyph-name="icircumflex" unicode="&#xee;" horiz-adv-x="192" 
d="M25 36q20 0 41.5 13.5t43 34.5t42.5 46.5t40 49.5l17 -14q-21 -26 -47.5 -58t-54.5 -60.5t-56.5 -48t-52.5 -19.5q-5 0 -13 4.5t-15.5 14t-13 24.5t-5.5 37q0 15 7.5 35.5t19.5 43.5t25 46t25 43t19.5 34.5t7.5 19.5q0 9 10.5 6.5t23 -11t23 -20t10.5 -20.5
q0 -4 -7.5 -17t-18.5 -30.5t-24.5 -38t-24.5 -40.5t-18.5 -37t-7.5 -28q0 -10 4 -10zM-13 387q6 0 24 11.5t40 29.5t42 39t30 40q2 4 9 5t15 0t14 -3.5t7 -6.5q6 -33 15 -54t17 -34t13.5 -19.5t5.5 -9.5q0 -7 -3.5 -8.5t-7.5 -1.5q-13 0 -26.5 10.5t-24.5 23.5
q-13 15 -26 34q-23 -20 -45 -36q-19 -14 -39 -24.5t-34 -10.5q-23 0 -29.5 7.5t3.5 7.5z" />
    <glyph glyph-name="idieresis" unicode="&#xef;" horiz-adv-x="192" 
d="M25 36q20 0 41.5 13.5t43 34.5t42.5 46.5t40 49.5l17 -14q-21 -26 -47.5 -58t-54.5 -60.5t-56.5 -48t-52.5 -19.5q-5 0 -13 4.5t-15.5 14t-13 24.5t-5.5 37q0 15 7.5 35.5t19.5 43.5t25 46t25 43t19.5 34.5t7.5 19.5q0 9 10.5 6.5t23 -11t23 -20t10.5 -20.5
q0 -4 -7.5 -17t-18.5 -30.5t-24.5 -38t-24.5 -40.5t-18.5 -37t-7.5 -28q0 -10 4 -10zM95 411q0 -16 -12 -33t-26 -17q-30 0 -30 30q0 7 3.5 16t9.5 16t13 12t14 5q28 0 28 -29zM214 418q0 -15 -7.5 -29t-22.5 -14q-14 0 -24 6.5t-10 21.5q0 16 13 31.5t27 15.5q15 0 19.5 -8
t4.5 -24z" />
    <glyph glyph-name="igrave" unicode="&#xec;" horiz-adv-x="192" 
d="M25 36q20 0 41.5 13.5t43 34.5t42.5 46.5t40 49.5l17 -14q-21 -26 -47.5 -58t-54.5 -60.5t-56.5 -48t-52.5 -19.5q-5 0 -13 4.5t-15.5 14t-13 24.5t-5.5 37q0 15 7.5 35.5t19.5 43.5t25 46t25 43t19.5 34.5t7.5 19.5q0 9 10.5 6.5t23 -11t23 -20t10.5 -20.5
q0 -4 -7.5 -17t-18.5 -30.5t-24.5 -38t-24.5 -40.5t-18.5 -37t-7.5 -28q0 -10 4 -10zM41 478q11 -11 29.5 -27.5t38.5 -32t37.5 -27t26.5 -11.5q6 0 6.5 -5t-2.5 -10.5t-9 -10.5t-13 -5q-18 0 -44 9.5t-50 22t-41 25t-17 18.5t4 17.5t10 21t12.5 15t11.5 0.5z" />
    <glyph glyph-name="j" unicode="j" horiz-adv-x="218" 
d="M83 295q1 10 12.5 10.5t24.5 -8.5t23.5 -26t10.5 -41q0 -16 -14.5 -58t-39.5 -95t-58 -110.5t-69.5 -105.5t-74 -79t-72.5 -31q-28 0 -45 8t-26.5 19t-12.5 22t-3 16t1 12.5t3.5 14.5t6.5 12t9 5t6.5 -7t3.5 -15t8.5 -15t22.5 -7q11 0 30 18.5t42.5 50t49.5 72.5t51 85
t47.5 88.5t38.5 83.5q-16 -20 -30 -36.5t-19 -21.5q-5 -6 -10.5 -6.5t-8.5 2t-3.5 8t4.5 11.5t20 23t30.5 36.5t27.5 37.5t12 24q0 2 1 3zM225 575q8 0 24 -6.5t30.5 -15.5t22.5 -19.5t0 -18.5t-25 -29.5t-33.5 -45.5t-29 -44.5t-12.5 -26.5t-9.5 -3t-21.5 10.5t-21.5 18.5
t-9.5 22q0 12 10 38t24 53t28.5 47t22.5 20z" />
    <glyph glyph-name="k" unicode="k" horiz-adv-x="350" 
d="M447 -158q9 -4 0.5 -13.5t-26.5 -17.5t-42.5 -10.5t-48.5 8.5q-29 13 -63.5 42.5t-68.5 72.5q-32 41 -59.5 89.5t-47.5 100.5q-29 -43 -54.5 -84.5t-44.5 -77.5q-14 -44 -14 -67q0 -10 -12 -8.5t-27 10.5t-28 24t-13 31q0 15 14 52.5t37.5 89t54 112.5t63.5 122.5
t66.5 119t62.5 101.5t52 70.5t34 26.5q16 0 28.5 -6.5t20.5 -15t10.5 -16.5t-0.5 -12q-20 -20 -47 -58.5t-58 -88.5t-64 -108.5t-64 -117.5q2 -7 3.5 -13t3.5 -12q4 0 6 1q24 33 48 63.5t45.5 53.5t39 36.5t28.5 13.5q13 0 26 -7.5t23.5 -18t17 -23t6.5 -22.5
q1 -27 -22.5 -55.5t-56.5 -51.5t-68.5 -38t-57.5 -15q-4 0 -12 5q19 -43 46 -85t60.5 -79.5t72.5 -67.5t83 -49q13 -6 19.5 -6.5t11 0t7.5 1.5t9 -2zM290 336q-8 0 -22.5 -11t-33 -30.5t-41 -45.5t-45.5 -56q24 7 50.5 24.5t48 38t35.5 40.5t14 32q0 8 -6 8zM78 152
q-11 -21 -20.5 -41t-17.5 -39q10 15 21 31t22 33q-2 3 -2.5 7t-2.5 9z" />
    <glyph glyph-name="l" unicode="l" horiz-adv-x="175" 
d="M278 632q15 0 28 -6t22 -14.5t12.5 -17t-2.5 -14.5q-40 -40 -79.5 -92t-74.5 -109t-65 -115.5t-52 -111.5t-34.5 -97t-12.5 -72q0 -8 1 -12.5t2.5 -8l3 -7t1.5 -9.5q0 -8 -11.5 -6t-25.5 10.5t-25.5 22t-11.5 29.5q0 45 20.5 109.5t52 134.5t70 139t74.5 124t65 89t42 34
z" />
    <glyph glyph-name="less" unicode="&#x3c;" horiz-adv-x="303" 
d="M252 383q10 8 17 0.5t11.5 -21t6.5 -27.5t2 -19q0 -3 -10.5 -10t-27.5 -17t-39 -22l-44 -24q-53 -28 -119 -63q43 -12 83 -24q33 -11 66.5 -23.5t50.5 -25.5q9 -8 10.5 -16.5t-0.5 -14.5t-6.5 -8t-7.5 3q-12 13 -33 22.5t-45 16t-49 11t-46 8t-35 6t-16 5.5q-4 4 -8 14.5
t-8 23t-6 25t-1 21.5q0 5 15.5 15.5t39.5 23.5t53 28.5t57.5 31.5t52 31.5t36.5 28.5z" />
    <glyph glyph-name="lslash" unicode="&#x142;" horiz-adv-x="149" 
d="M346 528q6 -2 15.5 -12t17 -22.5t9 -24t-7.5 -15.5q-71 -31 -130 -62.5t-107 -61.5q-30 -52 -54.5 -103t-42.5 -97t-28 -84t-10 -63q0 -8 1 -12.5t2.5 -8l3 -7t1.5 -9.5q0 -8 -11.5 -6t-25.5 10.5t-25.5 22t-11.5 29.5q0 45 19.5 106.5t50.5 130.5q-54 -42 -80.5 -67
t-31.5 -23q-12 4 -18 13t-1 25q1 3 15 15.5t37.5 31.5t54.5 43.5t66 50.5q30 60 63 115t62.5 97t52.5 67t34 25q15 0 28 -6t22 -14.5t12.5 -17t-2.5 -14.5q-57 -57 -108 -132q50 36 86 58.5t42 21.5z" />
    <glyph glyph-name="m" unicode="m" horiz-adv-x="558" 
d="M575 166q-21 -26 -48.5 -62.5t-57 -70t-59 -57.5t-53.5 -24q-7 0 -20 7.5t-25.5 19.5t-22 27t-9.5 30q0 27 19.5 66.5t43.5 78.5q-23 -27 -49 -58.5t-48 -59.5t-36.5 -48t-14.5 -26q0 -11 -11 -7t-24 15t-24 27t-11 29q0 8 8 27t20.5 43.5t27 51.5t28.5 52
q-28 -32 -68.5 -79t-80 -95t-71.5 -89t-43 -62l-3 -6l-2 -7q0 -10 -10.5 -7.5t-23 13.5t-23 28t-10.5 36q0 5 15.5 32t39.5 66t51 86t51 93.5t39.5 88t15.5 69.5q0 8 -3.5 11t-3.5 8q0 7 13.5 3.5t30 -13.5t30 -23.5t13.5 -27.5q0 -20 -11 -51t-28 -68.5t-39.5 -78
t-44.5 -79.5l204 237q3 6 12.5 1t19 -15.5t17.5 -24t8 -23.5q0 -6 -6.5 -22t-17 -37t-22.5 -45.5t-24 -49.5l175 207q4 7 14.5 5t22 -10.5t20 -20t8.5 -22.5q0 -8 -8.5 -25.5t-21.5 -40.5t-27.5 -49t-27.5 -50.5t-21.5 -45.5t-8.5 -33q0 -10 8 -10q20 0 44 19t49.5 46.5
t51 58.5t46.5 55z" />
    <glyph glyph-name="macron" unicode="&#xaf;" horiz-adv-x="428" 
d="M127 673q33 0 65 3.5t58.5 8t45.5 8t25 3.5t13.5 -8t14.5 -18t11.5 -19.5t4.5 -11.5q0 -5 -6 -6.5t-12 -1.5q-3 0 -7.5 2t-16 4t-33.5 4t-62 2q-51 0 -81.5 -4t-47.5 -9t-23.5 -9t-9.5 -4q-7 0 -13 10t-6 18q0 15 9.5 22.5t17.5 7.5q9 0 22 -1t31 -1z" />
    <glyph glyph-name="minus" unicode="&#x2212;" horiz-adv-x="427" 
d="M18 268q0 7 18 16t55.5 17t96 14t140.5 6q16 0 28 -12t18 -27t4.5 -27t-10.5 -12q-8 0 -11 1.5t-7 4t-11 5t-22 5t-40.5 4t-66.5 1.5q-50 0 -80 -1.5t-47.5 -4t-26 -4t-13.5 -1.5q-10 0 -17.5 4t-7.5 11z" />
    <glyph glyph-name="mu" unicode="&#xb5;" horiz-adv-x="393" 
d="M268 284q4 0 13.5 -5.5t19 -13.5t17 -16.5t7.5 -14.5q0 -9 -15.5 -37t-34 -62t-34 -66t-15.5 -48q0 -5 -9.5 -6.5t-20.5 2.5t-20.5 13.5t-9.5 26.5q0 8 4.5 22.5t11.5 33t16 39.5t19 41q-24 -27 -56 -62.5t-62 -67.5t-55 -56.5t-36 -28.5q-1 -1 -3 -1t-3 0.5t-3 0.5
q-34 -85 -37 -140q0 -12 3.5 -13.5t3.5 -9.5t-12 -6t-25.5 12.5t-24 29t-9.5 43.5q0 40 15.5 90.5t40 102.5t54 101.5t57 88.5t49.5 62.5t31 23.5q24 0 39.5 -5.5t24 -12.5t10.5 -14t-1 -10q-6 -6 -20.5 -23t-33.5 -41.5t-40 -53.5t-41 -59t-36 -59t-25 -52l-3 -6
q13 14 35.5 38.5t49.5 53t55 58t51 53.5t39 39t19 15z" />
    <glyph glyph-name="n" unicode="n" horiz-adv-x="359" 
d="M377 166q-21 -26 -48 -58t-55 -60.5t-56.5 -48t-52.5 -19.5q-12 0 -24 8.5t-21.5 20.5t-15.5 25.5t-6 23.5q0 14 11.5 45.5t27.5 66.5q-24 -31 -54.5 -70.5t-58 -78t-49.5 -69.5t-29 -44q-5 -12 -5 -17q1 -4 -3.5 -6.5t-12.5 1.5h-1q-7 4 -15 12t-14.5 17.5t-11 20
t-4.5 19.5q0 13 13.5 39.5t33 60t43 72t43 75t33 68.5t13.5 53q0 8 5 8q6 0 16.5 -5.5t21 -14.5t18 -19t7.5 -19q0 -10 -7.5 -29.5t-19.5 -44.5t-27.5 -54t-31.5 -59q26 34 53 69.5t50 64t38.5 47t18.5 18.5q4 0 13.5 -5.5t19 -13.5t17 -16.5t7.5 -14.5q0 -9 -15 -37
t-33 -62t-33 -65.5t-15 -47.5q0 -7 3.5 -10t7.5 -3q20 0 44 17.5t48.5 43.5t49 55.5t45.5 53.5z" />
    <glyph glyph-name="nine" unicode="9" horiz-adv-x="392" 
d="M281 481q0 14 13.5 12t30 -13.5t30.5 -29t14 -34.5q0 -5 -15 -35.5t-38 -75t-49 -98t-49 -105.5t-38 -97t-15 -73q0 -15 -16.5 -14t-36.5 12.5t-36.5 29t-16.5 35.5q0 4 10 24.5t26 52.5t37 71.5t42 82t41.5 84t35.5 76.5q-22 -27 -49 -59.5t-53 -60t-48 -46t-33 -18.5
q-22 0 -38.5 10t-28 25t-17 33t-5.5 34q0 25 11 57t29.5 66t43 67t50.5 58.5t52 41.5t48 16q18 0 36 -7t32 -17.5t23 -22.5t9 -21q0 -18 -10 -18q-3 0 -5 2.5t-5.5 5t-10 5t-18.5 2.5q-14 0 -33.5 -15.5t-41.5 -40t-43.5 -55.5t-39 -61.5t-28 -58t-10.5 -44.5q0 -20 11 -20
q6 0 20 12.5t33 32.5t40.5 45t41.5 49t37 44.5t27 32.5q3 12 3 21z" />
    <glyph glyph-name="ntilde" unicode="&#xf1;" horiz-adv-x="359" 
d="M377 166q-21 -26 -48 -58t-55 -60.5t-56.5 -48t-52.5 -19.5q-12 0 -24 8.5t-21.5 20.5t-15.5 25.5t-6 23.5q0 14 11.5 45.5t27.5 66.5q-24 -31 -54.5 -70.5t-58 -78t-49.5 -69.5t-29 -44q-5 -12 -5 -17q1 -4 -3.5 -6.5t-12.5 1.5h-1q-7 4 -15 12t-14.5 17.5t-11 20
t-4.5 19.5q0 13 13.5 39.5t33 60t43 72t43 75t33 68.5t13.5 53q0 8 5 8q6 0 16.5 -5.5t21 -14.5t18 -19t7.5 -19q0 -10 -7.5 -29.5t-19.5 -44.5t-27.5 -54t-31.5 -59q26 34 53 69.5t50 64t38.5 47t18.5 18.5q4 0 13.5 -5.5t19 -13.5t17 -16.5t7.5 -14.5q0 -9 -15 -37
t-33 -62t-33 -65.5t-15 -47.5q0 -7 3.5 -10t7.5 -3q20 0 44 17.5t48.5 43.5t49 55.5t45.5 53.5zM133 498q14 0 24.5 -5t18.5 -10.5t16 -10.5t17 -5q31 0 45.5 8.5t19.5 8.5q11 0 11 -11q0 -3 -5 -11.5t-15.5 -17.5t-25.5 -16.5t-35 -7.5q-15 0 -26 6.5t-21 14t-21.5 14
t-27.5 6.5q-19 0 -28 -4q-2 0 -3 2q-3 3 -3 8q0 3 5 8t13 10.5t18.5 9t22.5 3.5z" />
    <glyph glyph-name="numbersign" unicode="#" horiz-adv-x="2286" 
d="M1082 402q-18 -29 -36.5 -59.5t-37.5 -63.5q-36 -66 -66 -129q-15 -32 -27 -61t-21 -58q-9 -28 -14 -51t-5 -43q0 -13 -10 -13q-11 2 -23 10q-11 8 -22 21q-10 15 -10 24q0 40 21 103q2 6 4.5 11.5t4.5 11.5q-13 -14 -25 -28t-25 -27q-14 -14 -26.5 -25.5t-24.5 -21.5
q-25 -19 -41 -19q-11 0 -22 8q-5 5 -9 9.5t-7 10.5t-5.5 12t-4.5 12q-2 7 -3 12.5t-1 10.5t1.5 10t3.5 13t5 16t6 17q4 9 7.5 18.5t8.5 20.5t9.5 21t9.5 20q-12 -14 -25.5 -29t-30.5 -33q-16 -18 -31.5 -34.5t-30.5 -33.5q-15 -16 -28.5 -30t-26.5 -26q-25 -25 -36 -29
l-1 -1h-2q-8 0 -18 6q-5 4 -10.5 8t-10.5 9q-11 11 -18 22q-7 14 -7 24q0 16 15 49q8 17 17.5 36t20.5 39l24 40t26 40t26.5 36.5t23.5 30.5q-29 -10 -59 -24q-16 -8 -32.5 -16t-33.5 -19q-26 -62 -60 -122q-17 -31 -35 -60t-38 -58q-39 -58 -79 -106q-20 -24 -40 -45.5
t-40 -39.5q-40 -37 -73 -57q-34 -20 -60 -20q-13 0 -29 8q-7 5 -13.5 9.5t-12.5 9.5q-5 6 -9.5 11.5t-9.5 10.5q-7 14 -7 19q0 35 33 83q32 48 87 103q27 27 57.5 54.5t65.5 55.5t70 53.5t70 48.5q45 82 72 159q28 77 28 132v23t-2 18q-3 15 -6 24t-8 12q-3 3 -7 3
q-28 0 -64 -18q-36 -19 -71 -48q-37 -31 -70 -68q-17 -20 -31.5 -39.5t-28.5 -39.5q-25 -39 -42 -80q-8 -20 -12 -37.5t-4 -33.5q0 -37 10 -55q9 -15 20 -20q12 -4 20 -3q9 1 9 -3q0 -10 -22 -10q-19 0 -47 13q-26 12 -47 36t-21 60q0 35 18 77q9 22 20.5 43.5t26.5 44.5
t31.5 44.5t36.5 42.5q41 45 81 77q41 32 86 54q22 11 42.5 15.5t40.5 4.5q21 0 41 -13q19 -11 39 -34q17 -20 28 -50q11 -25 11 -59q0 -21 -2.5 -44t-7.5 -47q-11 -48 -30 -99q23 12 44 21t41 16q40 15 69 18h1q12 0 22 -1t18 -4q16 -6 24 -13q8 -6 10 -14q3 -6 -1 -10
q-5 -5 -20 -23q-8 -8 -16 -18.5t-18 -22.5q-9 -12 -19 -25t-21 -28q-20 -26 -40 -58q-10 -15 -18.5 -29.5t-16.5 -28.5q-15 -27 -24 -51q13 15 36 39q11 12 23 25.5t26 27.5t27.5 28.5t27.5 29.5t27 28t24 25l39 39q16 15 19 15q6 0 14 -5q5 -3 9.5 -6t9.5 -8q5 -4 9 -7.5
t8 -8.5q7 -8 7 -15t-7 -21t-19 -35q-5 -10 -11 -20.5t-12 -22.5l-24 -45q-5 -11 -9.5 -21t-8.5 -19q-8 -19 -8 -29q0 -6 5 -6q11 0 31 17q10 8 20.5 18.5t21.5 22.5q12 13 23.5 26.5t23.5 27.5q11 13 20 24t17 22q5 11 9.5 20.5t9.5 20.5q17 36 35 71.5t38 71.5t39.5 68
t37.5 61t34 52t30 41q28 36 37 36q15 0 28 -5q14 -4 25 -12q12 -7 16 -16t-3 -16q-20 -20 -53 -65q-17 -22 -34 -47t-35 -54zM212 31q21 30 41 61.5t39 64.5q-29 -21 -56 -43.5t-53 -45.5t-48.5 -45t-42.5 -45q-20 -21 -35 -41.5t-27 -40.5q-24 -38 -24 -66q0 -8 4 -8
q18 0 50 27q17 14 34 32.5t37 41.5q39 48 81 108zM1168 425q6 11 12.5 21.5t13.5 21.5q15 22 27 42q7 10 12.5 18t10.5 14q10 12 14 12q12 0 22 -5q12 -6 20 -14q11 -9 13 -16q4 -9 -1 -14t-17 -20l-12 -16t-13 -17q-14 -18 -27 -39q-7 -10 -13 -19.5t-12 -18.5t-10.5 -17
t-8.5 -16q-3 -8 -5 -13t-2 -8q0 -6 -8 -3q-7 3 -17 11q-5 5 -9 9.5t-9 10.5q-8 13 -8 22q0 2 8 18q4 8 8.5 16.5t10.5 19.5zM1861 349q-26 -45 -52 -98q-14 -27 -26.5 -54.5t-25.5 -56.5t-24 -57t-22 -55q-10 -27 -18 -52.5t-14 -49.5q-12 -47 -12 -79q0 -7 2 -11q2 -1 2 -7
q0 -7 -7 -7q-5 0 -17 7q-11 7 -21 18t-18 26q-8 16 -8 29q0 28 18 85q9 30 20.5 63t25.5 70q15 37 31.5 75t35.5 78q20 40 39.5 76.5t39.5 70.5q-11 -1 -21 -1.5t-21 -0.5q-19 0 -40 -3q-1 -1 -20 -31q-9 -14 -19 -32t-22 -41q-24 -45 -51 -99q-14 -27 -26 -54.5t-24 -54.5
q-23 -56 -38 -106t-15 -85q0 -9 2 -13q2 -1 2 -5q0 -8 -8 -8q-4 0 -18 7q-5 4 -10 8.5t-10 9.5q-10 13 -17 26q-7 17 -7 29q0 32 15 83q5 17 11 33.5t13 34.5l-7 -7q-15 -15 -30 -29.5t-32 -28.5t-32.5 -25.5t-32.5 -20.5q-35 -19 -60 -19q-11 0 -29 9q-16 9 -32 23
q-13 13 -26 31q-10 20 -10 34q0 12 3 26l-1 -1q-14 -16 -27.5 -31t-27.5 -29t-28 -26t-28 -23q-30 -19 -53 -19q-2 0 -5 1t-8 3q-4 3 -7.5 6t-8.5 8q-3 5 -6.5 11t-6.5 14q-5 17 -5 37q0 8 2 16.5t5 19.5q5 11 9.5 21.5t10.5 21.5q6 12 12.5 23.5t12.5 22.5q7 12 13 22.5
t12 20.5q6 11 11 19t9 16q7 14 7 19q0 10 11 7q13 -4 23 -11q6 -5 12 -9.5t11 -10.5q10 -11 10 -21q0 -4 -7 -17q-4 -6 -8.5 -13.5t-10.5 -16.5q-5 -9 -11 -18t-13 -20q-14 -22 -25 -41q-11 -21 -18 -37q-8 -18 -8 -28t4 -10q20 0 42 14q11 7 21.5 15t21.5 19t21 22.5
t21 24.5t20.5 25t19.5 23q3 7 8 14q9 14 18 26.5t20 24.5t21 22t20 19t18 16.5t16 12.5q14 10 21 10q16 0 31 -9q18 -10 30 -22q12 -11 22 -27q9 -14 9 -23q0 -20 -17 -44q-8 -12 -18 -24t-22 -23t-24 -20t-25 -17q-27 -16 -43 -16q-7 0 -13 3q-3 2 -5.5 4t-5.5 4
q-8 -18 -15 -38q-6 -18 -6 -34q0 -8 4 -16q3 -6 8 -6q28 0 60 17q17 8 32.5 18.5t31.5 22.5q31 25 60 54q14 14 26 27t23 24q11 25 22.5 50.5t24.5 51.5q17 32 33 63t33 61q-39 -4 -70.5 -7.5t-54.5 -6.5q-45 -6 -49 -6q-8 0 -15 3q-6 3 -6 12q0 2 17 8q18 6 48 15
q33 9 73 18q21 5 43 9t46 9q24 39 45 72q11 17 21 30.5t19 25.5q18 24 32 38q13 13 21 13q19 0 32 -4q15 -4 27 -11q10 -5 17 -12q6 -6 2 -11q-20 -20 -44 -50q-12 -15 -24 -31.5t-26 -36.5q22 3 39 6q9 2 18.5 2.5t20.5 2.5q15 23 28 40.5t24 31.5q22 26 33 26q19 0 30 -5
q13 -4 22 -12q10 -7 13 -14q3 -8 -1 -12q-17 -17 -38 -44q13 2 23.5 2.5t19.5 1.5t18.5 1h20.5q16 0 30 -15q15 -16 20 -32q7 -20 4 -33q-3 -15 -17 -15q-6 0 -6 2q0 3 -1 5q0 2 -8 4q-4 2 -27 2h-36.5t-34.5 -1t-33.5 -1.5t-33.5 -2.5q-11 -14 -22 -32.5t-24 -41.5z
M1328 178q-9 -12 -16.5 -24.5t-14.5 -25.5q24 6 52 28q30 22 50 45t30 43q9 19 -7 19q-12 0 -27 -11q-17 -13 -33 -31q-8 -9 -16.5 -20t-17.5 -23zM2262 245q8 -11 8 -31q0 -21 -24 -57q-25 -36 -60 -68q-18 -17 -37.5 -30.5t-40.5 -25.5q-42 -24 -78 -24q-11 0 -21 7
q-9 8 -17 17q-6 9 -11 19q-2 5 -3 8t-1 5q0 3 1 7t3 10t4.5 12t5.5 14t6.5 16t6.5 16q4 8 7 15.5t6 14.5q-12 -14 -24.5 -28t-24.5 -30t-22.5 -31t-21.5 -29q-10 -14 -19 -25.5t-17 -20.5q-16 -19 -24 -19q-7 0 -21 7q-12 8 -21 19q-9 12 -16 26q-7 17 -7 32q0 17 12 43
q7 14 15 27.5t17 28.5q11 15 22 29.5t23 29.5t24.5 28t24.5 25t23.5 21.5t22.5 17.5q22 15 37 15q23 0 37 -11q14 -9 22 -23q8 -11 10 -24q2 -11 -3 -11q-2 0 -3 0.5t-2 0.5l-3 3q-1 1 -5 3q-2 1 -9 1q-8 0 -26 -12t-39 -33t-43 -46q-11 -13 -21 -25.5t-19 -26.5
q-9 -13 -16 -25.5t-13 -24.5q-12 -24 -12 -43q0 -8 3 -8q1 0 12 14q6 8 12.5 16t14.5 19t17 21.5t18 22.5q10 12 19 23l18 22t17 19t16 15q14 14 23 14q6 0 14 -4q5 -2 9 -4.5t9 -5.5q10 -7 16 -14q7 -6 7 -13q0 -5 -12 -29l-12 -24t-13 -25t-12.5 -24t-10.5 -22
q-9 -20 -3 -20q29 0 63 26q33 25 60 60q27 33 46 69q18 36 18 54q0 13 -4 16q-5 3 -5 8q0 6 9 6q7 0 19 -7q5 -3 9.5 -8t9.5 -11z" />
    <glyph glyph-name="o" unicode="o" horiz-adv-x="323" 
d="M61 -23q-11 0 -27 7.5t-32 21t-27 33.5t-11 45q0 21 8 42t21 41t30.5 38t35.5 34q3 18 14.5 39t29.5 39.5t41 30.5t50 12q9 0 24 -6.5t29.5 -20t25.5 -33t11 -46.5q0 -43 -22 -91.5t-55 -90t-72 -68.5t-74 -27zM44 6q17 0 50 21.5t65.5 58.5t57 85.5t24.5 102.5
q0 4 -0.5 13t-3 17t-8.5 14.5t-17 6.5q-12 0 -27 -13t-28 -36q17 -4 28 -12t16.5 -16.5t6.5 -15t-3 -6.5q-3 0 -4.5 2.5t-11.5 2.5t-26.5 -12t-36.5 -32l-1 -9q0 -8 1.5 -12.5t1.5 -8.5q0 -5 -8 -4t-19 8q-30 -35 -52 -70.5t-22 -63.5q0 -5 2 -13t15 -8z" />
    <glyph glyph-name="oacute" unicode="&#xf3;" horiz-adv-x="323" 
d="M61 -23q-11 0 -27 7.5t-32 21t-27 33.5t-11 45q0 21 8 42t21 41t30.5 38t35.5 34q3 18 14.5 39t29.5 39.5t41 30.5t50 12q9 0 24 -6.5t29.5 -20t25.5 -33t11 -46.5q0 -43 -22 -91.5t-55 -90t-72 -68.5t-74 -27zM44 6q17 0 50 21.5t65.5 58.5t57 85.5t24.5 102.5
q0 4 -0.5 13t-3 17t-8.5 14.5t-17 6.5q-12 0 -27 -13t-28 -36q17 -4 28 -12t16.5 -16.5t6.5 -15t-3 -6.5q-3 0 -4.5 2.5t-11.5 2.5t-26.5 -12t-36.5 -32l-1 -9q0 -8 1.5 -12.5t1.5 -8.5q0 -5 -8 -4t-19 8q-30 -35 -52 -70.5t-22 -63.5q0 -5 2 -13t15 -8zM251 597
q5 5 11.5 -0.5t12.5 -15t10 -21t4 -17.5t-17 -18.5t-41 -25t-50 -22t-44 -9.5q-7 0 -13 5t-9 10.5t-2.5 10.5t6.5 5q9 0 26.5 11.5t37.5 27t38.5 32t29.5 27.5z" />
    <glyph glyph-name="ocircumflex" unicode="&#xf4;" horiz-adv-x="323" 
d="M61 -23q-11 0 -27 7.5t-32 21t-27 33.5t-11 45q0 21 8 42t21 41t30.5 38t35.5 34q3 18 14.5 39t29.5 39.5t41 30.5t50 12q9 0 24 -6.5t29.5 -20t25.5 -33t11 -46.5q0 -43 -22 -91.5t-55 -90t-72 -68.5t-74 -27zM44 6q17 0 50 21.5t65.5 58.5t57 85.5t24.5 102.5
q0 4 -0.5 13t-3 17t-8.5 14.5t-17 6.5q-12 0 -27 -13t-28 -36q17 -4 28 -12t16.5 -16.5t6.5 -15t-3 -6.5q-3 0 -4.5 2.5t-11.5 2.5t-26.5 -12t-36.5 -32l-1 -9q0 -8 1.5 -12.5t1.5 -8.5q0 -5 -8 -4t-19 8q-30 -35 -52 -70.5t-22 -63.5q0 -5 2 -13t15 -8zM77 448q6 0 24 11.5
t40 29.5t42 39t30 40q2 4 9 5t15 0t14 -3.5t7 -6.5q6 -33 15 -54t17 -34t13.5 -19.5t5.5 -9.5q0 -7 -3.5 -8.5t-7.5 -1.5q-13 0 -26.5 10.5t-24.5 23.5q-13 15 -26 34q-23 -20 -45 -36q-19 -14 -39 -24.5t-34 -10.5q-23 0 -29.5 7.5t3.5 7.5z" />
    <glyph glyph-name="odieresis" unicode="&#xf6;" horiz-adv-x="323" 
d="M61 -23q-11 0 -27 7.5t-32 21t-27 33.5t-11 45q0 21 8 42t21 41t30.5 38t35.5 34q3 18 14.5 39t29.5 39.5t41 30.5t50 12q9 0 24 -6.5t29.5 -20t25.5 -33t11 -46.5q0 -43 -22 -91.5t-55 -90t-72 -68.5t-74 -27zM44 6q17 0 50 21.5t65.5 58.5t57 85.5t24.5 102.5
q0 4 -0.5 13t-3 17t-8.5 14.5t-17 6.5q-12 0 -27 -13t-28 -36q17 -4 28 -12t16.5 -16.5t6.5 -15t-3 -6.5q-3 0 -4.5 2.5t-11.5 2.5t-26.5 -12t-36.5 -32l-1 -9q0 -8 1.5 -12.5t1.5 -8.5q0 -5 -8 -4t-19 8q-30 -35 -52 -70.5t-22 -63.5q0 -5 2 -13t15 -8zM176 494
q0 -16 -12 -33t-26 -17q-30 0 -30 30q0 7 3.5 16t9.5 16t13 12t14 5q28 0 28 -29zM295 501q0 -15 -7.5 -29t-22.5 -14q-14 0 -24 6.5t-10 21.5q0 16 13 31.5t27 15.5q15 0 19.5 -8t4.5 -24z" />
    <glyph glyph-name="ograve" unicode="&#xf2;" horiz-adv-x="323" 
d="M61 -23q-11 0 -27 7.5t-32 21t-27 33.5t-11 45q0 21 8 42t21 41t30.5 38t35.5 34q3 18 14.5 39t29.5 39.5t41 30.5t50 12q9 0 24 -6.5t29.5 -20t25.5 -33t11 -46.5q0 -43 -22 -91.5t-55 -90t-72 -68.5t-74 -27zM44 6q17 0 50 21.5t65.5 58.5t57 85.5t24.5 102.5
q0 4 -0.5 13t-3 17t-8.5 14.5t-17 6.5q-12 0 -27 -13t-28 -36q17 -4 28 -12t16.5 -16.5t6.5 -15t-3 -6.5q-3 0 -4.5 2.5t-11.5 2.5t-26.5 -12t-36.5 -32l-1 -9q0 -8 1.5 -12.5t1.5 -8.5q0 -5 -8 -4t-19 8q-30 -35 -52 -70.5t-22 -63.5q0 -5 2 -13t15 -8zM152 592
q11 -11 29.5 -27.5t38.5 -32t37.5 -27t26.5 -11.5q6 0 6.5 -5t-2.5 -10.5t-9 -10.5t-13 -5q-18 0 -44 9.5t-50 22t-41 25t-17 18.5t4 17.5t10 21t12.5 15t11.5 0.5z" />
    <glyph glyph-name="one" unicode="1" horiz-adv-x="402" 
d="M331 587q13 0 25.5 -7.5t21 -18t10.5 -22t-4 -18.5q-4 -5 -23 -32t-46 -67t-57.5 -89t-57 -98.5t-45 -94.5t-21.5 -77q19 2 45 3.5t41 1.5q11 0 24.5 -3t21.5 -11q4 -4 12.5 -16.5t16.5 -27t13 -28t1 -19.5t-9.5 -0.5t-16 14.5t-28 17.5t-45.5 8.5q-82 0 -136.5 -6
t-88.5 -12.5t-50 -12.5t-21 -6q-6 0 -9 7q-2 4 -3 8q-2 9 12.5 19t39 20t56.5 18.5t67 14.5q-11 8 -19.5 18.5t-8.5 22.5q0 28 15 71.5t39.5 93t55 101.5t61.5 98q-23 -21 -48 -42t-49 -37.5t-45.5 -27t-36.5 -10.5q-11 0 -25 7.5t-24 17t-12 17t11 7.5q36 0 72.5 14.5
t71.5 36.5t66.5 47.5t57 47.5t44.5 36.5t28 14.5z" />
    <glyph glyph-name="oslash" unicode="&#xf8;" horiz-adv-x="323" 
d="M320 400q6 0 18 -8t21.5 -18t14 -21t-3.5 -17q-23 -17 -45 -34t-42 -34q1 -5 1 -14q0 -43 -22 -91.5t-55 -90t-72 -68.5t-74 -27q-8 0 -19 3.5t-23 11.5q-22 -29 -33 -45.5t-15 -16.5q-28 2 -27 33q0 3 11 19t31 40q-10 13 -16 28.5t-6 33.5q0 21 8 42t21 41t30.5 38
t35.5 34q3 18 14.5 39t29.5 39.5t41 30.5t50 12q9 0 24.5 -6.5t29.5 -20.5q29 31 48 49.5t24 17.5zM157 276q17 -4 29 -13q12 14 23.5 27t22.5 25q-7 10 -20 10q-12 0 -27 -13t-28 -36zM44 6q15 0 43.5 17t58 47t55 70.5t35.5 86.5q-74 -66 -123.5 -121.5t-80.5 -95.5
q4 -4 12 -4z" />
    <glyph glyph-name="otilde" unicode="&#xf5;" horiz-adv-x="323" 
d="M61 -23q-11 0 -27 7.5t-32 21t-27 33.5t-11 45q0 21 8 42t21 41t30.5 38t35.5 34q3 18 14.5 39t29.5 39.5t41 30.5t50 12q9 0 24 -6.5t29.5 -20t25.5 -33t11 -46.5q0 -43 -22 -91.5t-55 -90t-72 -68.5t-74 -27zM44 6q17 0 50 21.5t65.5 58.5t57 85.5t24.5 102.5
q0 4 -0.5 13t-3 17t-8.5 14.5t-17 6.5q-12 0 -27 -13t-28 -36q17 -4 28 -12t16.5 -16.5t6.5 -15t-3 -6.5q-3 0 -4.5 2.5t-11.5 2.5t-26.5 -12t-36.5 -32l-1 -9q0 -8 1.5 -12.5t1.5 -8.5q0 -5 -8 -4t-19 8q-30 -35 -52 -70.5t-22 -63.5q0 -5 2 -13t15 -8zM159 525
q14 0 24.5 -5t18.5 -10.5t16 -10.5t17 -5q31 0 45.5 8.5t19.5 8.5q11 0 11 -11q0 -3 -5 -11.5t-15.5 -17.5t-25.5 -16.5t-35 -7.5q-15 0 -26 6.5t-21 14t-21.5 14t-27.5 6.5q-19 0 -28 -4q-2 0 -3 2q-3 3 -3 8q0 3 5 8t13 10.5t18.5 9t22.5 3.5z" />
    <glyph glyph-name="p" unicode="p" horiz-adv-x="447" 
d="M356 411q7 0 20 -4.5t25.5 -13t21.5 -22t9 -31.5q0 -34 -13 -76.5t-34.5 -86.5t-49 -86t-57 -74.5t-59 -52t-53.5 -19.5q-37 0 -55 12t-24 26t-2.5 26t9.5 12t7.5 -4t2 -8.5t3 -8t10.5 -3.5q21 0 47 22t53.5 56t53 75.5t46 81.5t32.5 73.5t12 50.5q0 11 -5 11
q-11 0 -39 -25t-66.5 -67t-83.5 -97.5t-89.5 -116t-85.5 -122.5t-71 -118q-7 -20 -7 -30q0 -6 -12 -7t-26.5 3.5t-26.5 14.5t-12 25q0 7 10 32.5t26.5 62.5t38 81.5t44 89.5t45 88t41 76t31 53t16.5 20q22 0 36.5 -5t22.5 -11t10 -12t0 -8q-5 -5 -18 -26.5t-30 -53
t-37.5 -71t-41.5 -81.5q45 66 96.5 129t97.5 111.5t81.5 78.5t49.5 30z" />
    <glyph glyph-name="parenleft" unicode="(" horiz-adv-x="362" 
d="M483 597q26 0 25 -9.5t-19 -19.5q-15 -7 -48.5 -34.5t-75 -70t-85.5 -97.5t-80.5 -115.5t-60 -124.5t-23.5 -125q0 -44 9.5 -64t20.5 -28.5t20.5 -10.5t9.5 -8q0 -4 -11.5 -7.5t-29 -2.5t-37.5 7.5t-37.5 22t-29 41.5t-11.5 65q0 65 31 134t78.5 133.5t104.5 121.5
t108.5 99.5t90 67.5t50.5 25z" />
    <glyph glyph-name="parenright" unicode=")" horiz-adv-x="334" 
d="M233 640q0 12 14 12q9 0 30.5 -11t43.5 -34t39 -58.5t17 -85.5q0 -30 -15.5 -70t-41.5 -86t-60 -94.5t-71 -95t-74.5 -88t-71 -72.5t-60 -49t-41.5 -18q-16 0 -19.5 7t7.5 15q28 20 65 57t76 84t76.5 103t66.5 115t47 118.5t18 114.5q0 43 -7 68t-16 38.5t-16 19t-7 10.5
z" />
    <glyph glyph-name="percent" unicode="%" horiz-adv-x="521" 
d="M483 530q15 0 28 -10t20.5 -21.5t8.5 -21.5t-9 -10q-5 0 -5.5 4.5t-11.5 4.5q-20 0 -50.5 -18t-67 -47.5t-76.5 -68t-79 -80t-74 -83t-61.5 -76t-42 -60.5t-15.5 -36q0 -5 -4 -5t-8.5 3.5t-8 11t-3.5 16.5q0 15 17.5 44t47 66.5t67 81t78.5 86.5t81 82.5t74 70t59 48.5
t35 18zM190 546q16 0 28.5 -8t19.5 -18t8.5 -18t-3.5 -8q-6 0 -6 2.5t-7 2.5q-15 0 -39.5 -16.5t-48 -40.5t-41 -51.5t-17.5 -49.5q0 -18 14 -18q15 0 33 12t33.5 29t25.5 35t10 29t-2.5 13t-2.5 8q0 5 7.5 4.5t16.5 -6.5t16.5 -16t7.5 -25q0 -19 -9.5 -39.5t-25.5 -38
t-38.5 -29t-47.5 -11.5q-18 0 -35 10t-30 24t-21 29t-8 25q0 22 17.5 51t42.5 55.5t53 45t49 18.5zM397 324q14 0 26.5 -9.5t21 -20.5t12 -20.5t-1.5 -9.5q-7 0 -6 2t-6 2q-16 0 -36 -11t-41.5 -28.5t-42 -40t-36.5 -46t-26 -45.5t-10 -39q0 -19 23 -19q17 0 40.5 13.5
t45 37.5t36.5 57t15 72q0 6 9 5t20 -8.5t20 -19.5t9 -28q0 -18 -17.5 -45t-44 -52.5t-59 -44t-62.5 -18.5q-17 0 -34.5 10t-31 24t-22 29t-8.5 26q0 21 11.5 46t30 50t41.5 49t46 42t43.5 29t34.5 11z" />
    <glyph glyph-name="period" unicode="." horiz-adv-x="210" 
d="M15 21q0 6 4 15.5t11 18t15.5 15t16.5 6.5q16 0 25 -9.5t9 -20.5q0 -19 -14 -38t-31 -19t-26.5 8t-9.5 24z" />
    <glyph glyph-name="perthousand" unicode="&#x2030;" horiz-adv-x="800" 
d="M483 530q15 0 28 -10t20.5 -21.5t8.5 -21.5t-9 -10q-5 0 -5.5 4.5t-11.5 4.5q-20 0 -50.5 -18t-67 -47.5t-76.5 -68t-79 -80t-74 -83t-61.5 -76t-42 -60.5t-15.5 -36q0 -5 -4 -5t-8.5 3.5t-8 11t-3.5 16.5q0 15 17.5 44t47 66.5t67 81t78.5 86.5t81 82.5t74 70t59 48.5
t35 18zM190 546q16 0 28.5 -8t19.5 -18t8.5 -18t-3.5 -8q-6 0 -6 2.5t-7 2.5q-15 0 -39.5 -16.5t-48 -40.5t-41 -51.5t-17.5 -49.5q0 -18 14 -18q15 0 33 12t33.5 29t25.5 35t10 29t-2.5 13t-2.5 8q0 5 7.5 4.5t16.5 -6.5t16.5 -16t7.5 -25q0 -19 -9.5 -39.5t-25.5 -38
t-38.5 -29t-47.5 -11.5q-18 0 -35 10t-30 24t-21 29t-8 25q0 22 17.5 51t42.5 55.5t53 45t49 18.5zM397 324q14 0 26.5 -9.5t21 -20.5t12 -20.5t-1.5 -9.5q-7 0 -6 2t-6 2q-16 0 -36 -11t-41.5 -28.5t-42 -40t-36.5 -46t-26 -45.5t-10 -39q0 -19 23 -19q17 0 40.5 13.5
t45 37.5t36.5 57t15 72q0 6 9 5t20 -8.5t20 -19.5t9 -28q0 -18 -17.5 -45t-44 -52.5t-59 -44t-62.5 -18.5q-17 0 -34.5 10t-31 24t-22 29t-8.5 26q0 21 11.5 46t30 50t41.5 49t46 42t43.5 29t34.5 11zM672 307q12 0 24 -9.5t20 -21.5t11 -21.5t-1 -9.5q-6 0 -5 2t-5 2
q-14 0 -32 -9.5t-36.5 -25t-36 -35.5t-31.5 -39.5t-22.5 -38t-8.5 -31.5q0 -6 1 -11.5t12 -5.5q13 0 34 11.5t41 31t34 44t14 51.5q0 8 -3 9.5t-3 6.5q0 6 9 5.5t19.5 -5.5t19.5 -15t9 -24q0 -16 -15.5 -40t-39.5 -47t-52.5 -39.5t-55.5 -16.5q-15 0 -30.5 9t-28 21.5
t-20 26t-7.5 22.5q0 28 22 63.5t52 66.5t61.5 52t49.5 21z" />
    <glyph glyph-name="plus" unicode="+" horiz-adv-x="373" 
d="M304 319q17 0 34 -15t28 -33.5t13.5 -33.5t-8.5 -15q-8 0 -13.5 7.5t-20.5 16.5t-47 16.5t-94 8.5q-20 -38 -38.5 -79.5t-32.5 -83.5q-3 -9 -12 -7t-18.5 9t-16 17t-4.5 18q0 3 5 14t12.5 28t17.5 38t21 44q-34 -2 -56 -4.5t-35.5 -5.5t-21 -5t-11.5 -2q-11 0 -17 8
t-7 13q0 3 6.5 8.5t25.5 11.5t52 11.5t84 9.5q11 24 21 46.5t17.5 40.5t11.5 30.5t3 16.5q-2 12 4 15.5t16 1t22 -10t21.5 -15.5t14.5 -16t1 -13q-5 -6 -21.5 -30.5t-37.5 -61.5q18 1 38 1h43z" />
    <glyph glyph-name="q" unicode="q" horiz-adv-x="367" 
d="M266 287q0 4 8.5 1.5t19 -10.5t19 -19.5t8.5 -24.5t-18.5 -49t-45.5 -84t-59.5 -101.5t-59.5 -102t-45.5 -86t-18.5 -52.5q0 -10 -10.5 -7t-23.5 12.5t-23.5 23.5t-10.5 26q0 6 9.5 25t25 47t36 63t43 72.5t44.5 75.5t42 73q-23 -30 -49.5 -61.5t-51.5 -57t-46.5 -41.5
t-34.5 -16q-8 0 -20 6t-22.5 15.5t-18 22t-7.5 26.5q0 21 13.5 54.5t36.5 71t52.5 75.5t61.5 69t63.5 50t58.5 19q26 0 41.5 -13t22.5 -28t7 -28t-5 -13q-7 0 -8.5 5t-1.5 10.5t-1.5 10.5t-7.5 5q-16 0 -40.5 -17.5t-53 -45.5t-57 -62.5t-51 -68t-37 -62t-14.5 -44.5
q0 -5 5 -5q7 0 20 10.5t30 27t36.5 38t39.5 44.5q46 53 99 120z" />
    <glyph glyph-name="question" unicode="?" horiz-adv-x="380" 
d="M58 -11q0 7 5.5 19t13 23.5t16.5 19.5t16 8t16.5 -2.5t17.5 -6.5t14 -9.5t6 -12.5t-4.5 -19.5t-11.5 -24.5t-16.5 -21t-19.5 -9q-21 0 -37 7.5t-16 27.5zM5 389q0 16 13.5 40.5t37 51.5t54.5 54t66 48.5t71.5 35t71.5 13.5q16 0 37.5 -15t41 -37.5t32.5 -49t13 -50.5
q0 -33 -24 -67t-59.5 -67t-77.5 -64.5t-77.5 -59t-59.5 -50.5t-24 -40q0 -9 3 -13.5t7 -6t7 -3t3 -4.5q0 -10 -8 -11.5t-13 -1.5q-6 0 -17 6t-21 15.5t-17.5 23t-7.5 28.5q0 23 24.5 51t61.5 59.5t80.5 65t80.5 66.5t61.5 65t24.5 60q0 23 -9.5 30t-23.5 7
q-17 0 -43.5 -11.5t-57.5 -30.5t-62.5 -43t-56.5 -48t-41 -47t-16 -39q0 -11 2.5 -15t5.5 -5.5t5.5 -2.5t2.5 -7q0 -5 -14 -4.5t-31.5 9t-31.5 24t-14 40.5z" />
    <glyph glyph-name="questiondown" unicode="&#xbf;" horiz-adv-x="380" 
d="M352 597q0 -8 -5.5 -19.5t-13 -23t-16.5 -19.5t-16 -8t-16.5 2.5t-17.5 6.5t-14 9.5t-6 12.5t4.5 19.5t11.5 24.5t16.5 21t19.5 9q21 0 37 -7.5t16 -27.5zM405 197q0 -17 -13.5 -41t-37 -51t-54.5 -54t-66 -48.5t-72 -35t-71 -13.5q-17 0 -38 15t-40.5 37.5t-32.5 49
t-13 50.5q0 33 24 67t59.5 67t77.5 64.5t77.5 59t59.5 50.5t24 40q0 9 -3 13.5t-7 6t-7 3t-3 4.5q0 10 8 11.5t13 1.5q6 0 17 -6t21 -15.5t17.5 -23t7.5 -28.5q0 -23 -24.5 -51t-61.5 -59.5t-80.5 -65t-80.5 -66.5t-61.5 -65t-24.5 -60q0 -23 9.5 -30t23.5 -7q16 0 43 11.5
t58 30.5t62.5 43t56.5 48t41 47t16 39q0 11 -2.5 15t-5.5 5.5t-5.5 2.5t-2.5 7q0 5 14 4.5t31.5 -9t31.5 -24t14 -40.5z" />
    <glyph glyph-name="quotedbl" unicode="&#x22;" horiz-adv-x="188" 
d="M130 611q5 5 13.5 2.5t17 -8.5t14.5 -13.5t6 -11.5q0 -6 -10.5 -19.5t-23 -30t-23 -34t-10.5 -32.5q0 -5 -6.5 -4.5t-15 5t-15 11.5t-6.5 15q0 5 5 20.5t13.5 34t19 36.5t21.5 29zM235 604q5 5 15 3t19 -7.5t14.5 -12.5t1.5 -12q-8 -9 -20.5 -26.5t-24.5 -35.5t-21 -32.5
t-9 -18.5q0 -7 -6.5 -7t-14.5 4.5t-14.5 12.5t-6.5 16q0 7 6.5 22t16 32.5t21.5 34t23 27.5z" />
    <glyph glyph-name="quotedblbase" unicode="&#x201e;" horiz-adv-x="188" 
d="M199 16q-5 -5 -14 -2.5t-17 8.5t-14 13t-6 12q0 6 10.5 19.5t23 30t23 34t10.5 32.5q0 5 6.5 4.5t15 -5t15 -11.5t6.5 -15q0 -5 -5 -20.5t-13.5 -34t-19 -37t-21.5 -28.5zM94 23q-5 -5 -15 -3t-19 7.5t-14.5 12.5t-1.5 12q7 9 20 26.5t25 35.5t21 32.5t9 18.5
q0 7 6.5 6.5t14.5 -5t14.5 -12t6.5 -15.5q0 -7 -6.5 -22t-16 -32.5t-21.5 -34.5t-23 -27z" />
    <glyph glyph-name="quotedblleft" unicode="&#x201c;" horiz-adv-x="188" 
d="M130 611q5 5 13.5 2.5t17 -8.5t14.5 -13.5t6 -11.5q0 -6 -10.5 -19.5t-23 -30t-23 -34t-10.5 -32.5q0 -5 -6.5 -4.5t-15 5t-15 11.5t-6.5 15q0 5 5 20.5t13.5 34t19 36.5t21.5 29zM235 604q5 5 15 3t19 -7.5t14.5 -12.5t1.5 -12q-8 -9 -20.5 -26.5t-24.5 -35.5t-21 -32.5
t-9 -18.5q0 -7 -6.5 -7t-14.5 4.5t-14.5 12.5t-6.5 16q0 7 6.5 22t16 32.5t21.5 34t23 27.5z" />
    <glyph glyph-name="quotedblright" unicode="&#x201d;" horiz-adv-x="188" 
d="M199 457q-5 -5 -14 -2.5t-17 8.5t-14 13t-6 12q0 6 10.5 19.5t23 30t23 34t10.5 32.5q0 5 6.5 4.5t15 -5t15 -11.5t6.5 -15q0 -5 -5 -20.5t-13.5 -34t-19 -37t-21.5 -28.5zM94 464q-5 -5 -15 -3t-19 7.5t-14.5 12.5t-1.5 12q7 9 20 26.5t25 35.5t21 32.5t9 18.5
q0 7 6.5 6.5t14.5 -5t14.5 -12t6.5 -15.5q0 -7 -6.5 -22t-16 -32.5t-21.5 -34.5t-23 -27z" />
    <glyph glyph-name="quoteleft" unicode="&#x2018;" horiz-adv-x="146" 
d="M130 611q5 5 13.5 2.5t17 -8.5t14.5 -13.5t6 -11.5q0 -6 -10.5 -19.5t-23 -30t-23 -34t-10.5 -32.5q0 -5 -6.5 -4.5t-15 5t-15 11.5t-6.5 15q0 5 5 20.5t13.5 34t19 36.5t21.5 29z" />
    <glyph glyph-name="quoteright" unicode="&#x2019;" horiz-adv-x="146" 
d="M90 463q-5 -5 -14 -2.5t-17 8.5t-14 13t-6 12q0 6 10.5 19.5t23 30t23 34t10.5 32.5q0 5 6.5 4.5t15 -5t15 -11.5t6.5 -15q0 -5 -5 -20.5t-13.5 -34t-19 -37t-21.5 -28.5z" />
    <glyph glyph-name="quotesinglbase" unicode="&#x201a;" horiz-adv-x="146" 
d="M90 7q-5 -5 -14 -2.5t-17 8.5t-14 13t-6 12q0 6 10.5 19.5t23 30t23 34t10.5 32.5q0 5 6.5 4.5t15 -5t15 -11.5t6.5 -15q0 -5 -5 -20.5t-13.5 -34t-19 -37t-21.5 -28.5z" />
    <glyph glyph-name="quotesingle" unicode="'" horiz-adv-x="146" 
d="M130 611q5 5 13.5 2.5t17 -8.5t14.5 -13.5t6 -11.5q0 -6 -10.5 -19.5t-23 -30t-23 -34t-10.5 -32.5q0 -5 -6.5 -4.5t-15 5t-15 11.5t-6.5 15q0 5 5 20.5t13.5 34t19 36.5t21.5 29z" />
    <glyph glyph-name="r" unicode="r" horiz-adv-x="304" 
d="M321 166q-14 -17 -34.5 -44.5t-45 -58.5t-51.5 -62t-52.5 -56t-49 -41t-41.5 -16q-11 0 -23.5 10t-23 23t-18 26t-7.5 19q0 20 14 47.5t34.5 58t44.5 61t44.5 56t34.5 42t14 20.5q0 6 -17.5 9t-44.5 6q-23 -31 -46 -59t-43 -51q-9 -10 -16 -12.5t-10 0.5t-1.5 10.5
t10.5 17.5q17 20 37 45.5t40 52.5q-24 4 -48 9.5t-43.5 15t-31.5 23.5t-12 35q0 18 20 55t54 74t80 65t97 28q7 0 17.5 -4.5t20 -11.5t16.5 -15.5t7 -15.5q0 -18 -9.5 -43t-26 -54t-38 -61.5t-45.5 -64.5q19 -3 33 -4.5t20 -1.5q10 0 21.5 -8.5t21.5 -20.5t16.5 -24.5
t6.5 -21.5q0 -10 -12.5 -30t-32 -45.5t-41.5 -54t-41.5 -55t-32 -49t-12.5 -35.5q0 -9 6 -9q11 0 28 13t37 33.5t42 46.5t43 52t40 49.5t33 39.5zM16 339q0 -9 25.5 -16.5t57.5 -12.5q22 30 41.5 60t34.5 56.5t23.5 47t8.5 32.5q0 11 -14 7.5t-35.5 -16.5t-46 -32.5t-46 -42
t-35.5 -44.5t-14 -39z" />
    <glyph glyph-name="registered" unicode="&#xae;" horiz-adv-x="464" 
d="M365 527q0 5 4 4.5t9.5 -5t9.5 -12.5t4 -18q0 -14 -14.5 -35t-40 -40.5t-61.5 -33.5t-79 -14q-30 0 -50 8.5t-33 21.5t-18.5 28.5t-5.5 29.5q0 26 14 56.5t37.5 56.5t55.5 43.5t68 17.5q41 0 65.5 -20t24.5 -46q0 -10 -6.5 -6.5t-6.5 11.5q0 19 -11 32t-37 13
q-35 0 -66.5 -20t-55.5 -47t-38.5 -55.5t-14.5 -45.5q0 -11 2.5 -23.5t10.5 -23t22.5 -17t39.5 -6.5q36 0 67.5 17.5t55.5 40t38 44t14 30.5q0 8 -2 9t-2 5zM331 543q0 -15 -11.5 -32t-28 -32.5t-36 -27t-35.5 -16.5q7 -10 15 -19.5t15 -9.5q3 0 4 0.5t3 0.5q3 0 -1.5 -4.5
t-12.5 -4.5q-5 0 -17 9.5t-21 20.5q-5 -11 -8 -18.5t-3 -9.5q0 -6 -5.5 -0.5t-5.5 8.5q0 5 2.5 14t8.5 21q-2 5 -1.5 9t2.5 4q3 0 2 -2t1 -4q7 16 15.5 33t16.5 31t14.5 23t9.5 9q14 0 15.5 -5t-1.5 -7q-10 -10 -23.5 -33.5t-26.5 -46.5q15 6 32.5 18.5t32 27t24 28.5
t9.5 24q0 9 -7 18t-29 9q-17 0 -35 -11.5t-33 -27t-24.5 -30.5t-9.5 -22q0 -12 4 -10.5t4 -1.5q0 -2 -4 -2.5t-9 1.5t-9 7t-4 14q0 11 10.5 28t27.5 32.5t37 26.5t40 11q7 0 16.5 -4t18.5 -11t15 -16.5t6 -19.5z" />
    <glyph glyph-name="ring" unicode="&#x2da;" horiz-adv-x="344" 
d="M186 644q16 0 24.5 -5t12.5 -11t3.5 -11t-2.5 -5q-5 0 -6 3t-7 3q-10 0 -20.5 -6t-18.5 -15.5t-13.5 -21t-5.5 -21.5q0 -7 3.5 -13.5t14.5 -6.5q12 0 19 7.5t11 17.5t5.5 19.5t1.5 12.5t4.5 2t9.5 -4t9.5 -8t4.5 -11t-5 -15.5t-14 -18.5t-21.5 -15t-26.5 -6
q-29 0 -41.5 17.5t-12.5 33.5q0 15 7 29t17.5 25t23 17.5t23.5 6.5z" />
    <glyph glyph-name="s" unicode="s" horiz-adv-x="202" 
d="M198 355q0 -5 -2.5 -6t-4.5 -1q-3 0 -4 2.5t-5 2.5q-5 0 -27.5 -15.5t-47.5 -39.5t-44.5 -52.5t-19.5 -54.5t9 -46.5t20 -38.5t20 -35.5t9 -39.5t-13.5 -41t-34 -33.5t-44 -23t-42.5 -8.5q-20 0 -35 5.5t-25.5 13.5t-16 17.5t-5.5 17.5q0 13 9 13q5 0 6 -2.5t18 -2.5
q16 0 38 5t41.5 14t33 22.5t13.5 30.5q0 10 -9 28t-20 40.5t-20 50t-9 57.5q0 24 14 53t35 54.5t45 42.5t45 17q10 0 23 -5.5t24 -13t18.5 -15.5t7.5 -13z" />
    <glyph glyph-name="scaron" unicode="&#x161;" horiz-adv-x="202" 
d="M198 355q0 -5 -2.5 -6t-4.5 -1q-3 0 -4 2.5t-5 2.5q-5 0 -27.5 -15.5t-47.5 -39.5t-44.5 -52.5t-19.5 -54.5t9 -46.5t20 -38.5t20 -35.5t9 -39.5t-13.5 -41t-34 -33.5t-44 -23t-42.5 -8.5q-20 0 -35 5.5t-25.5 13.5t-16 17.5t-5.5 17.5q0 13 9 13q5 0 6 -2.5t18 -2.5
q16 0 38 5t41.5 14t33 22.5t13.5 30.5q0 10 -9 28t-20 40.5t-20 50t-9 57.5q0 24 14 53t35 54.5t45 42.5t45 17q10 0 23 -5.5t24 -13t18.5 -15.5t7.5 -13zM243 606q-6 0 -24 -11.5t-40 -29.5t-42 -39t-30 -40q-2 -4 -9 -5t-15 0t-14 3.5t-7 6.5q-6 33 -15 54t-17 34
t-13.5 19.5t-5.5 9.5q0 7 3.5 8.5t7.5 1.5q13 0 26.5 -10.5t24.5 -23.5q13 -15 26 -34q23 19 45 35q19 14 39 25t34 11q23 0 29.5 -7.5t-3.5 -7.5z" />
    <glyph glyph-name="semicolon" unicode=";" horiz-adv-x="174" 
d="M-14 50q0 16 -7 19.5t-7 9.5t11.5 13.5t40.5 7.5q18 0 32.5 -11.5t14.5 -26.5t-19 -39.5t-43.5 -48t-48.5 -40.5t-33 -17q-12 0 -12 11q0 6 11 16t24.5 25t24.5 35t11 46zM6 218q0 6 4 15.5t11 18t15.5 15t16.5 6.5q16 0 25 -9.5t9 -20.5q0 -19 -14 -38t-31 -19t-26.5 8
t-9.5 24z" />
    <glyph glyph-name="seven" unicode="7" horiz-adv-x="463" 
d="M381 352q10 0 24 -12t25 -26.5t15 -26.5t-5 -12q-6 0 -10.5 3t-12 6.5t-19.5 6.5t-33 3q-20 0 -39 -0.5t-36 -1.5q-40 -47 -78.5 -94t-69 -88t-49 -74t-18.5 -51q0 -9 3.5 -18.5t-6.5 -9.5q-5 0 -17 7.5t-24 21t-21.5 32t-9.5 41.5q0 11 12 33t32.5 51t48 63.5t58.5 71.5
q-62 -11 -91 -21.5t-34 -10.5q-7 0 -9 4q-1 2 -1 5q0 9 14.5 18.5t39 18.5t56.5 17.5t66 16.5q41 48 81 93t72 80q38 41 72 78q-16 -5 -41.5 -15t-56 -23t-62 -27t-59.5 -25.5t-48.5 -19t-27.5 -7.5q-12 0 -26.5 8.5t-27.5 20t-22 23.5t-9 20q0 13 4 17q2 2 5 2q5 0 8.5 -2
t8.5 -4.5t12.5 -4.5t19.5 -2q18 0 46.5 5t62 13t68 16.5t63.5 16.5t50 13t27 5q9 0 22.5 -7.5t26.5 -18.5t22 -24.5t9 -26.5q0 -3 -12 -18.5t-33 -39.5t-48.5 -55.5t-58.5 -66.5q12 1 22.5 1.5t18.5 0.5z" />
    <glyph glyph-name="six" unicode="6" horiz-adv-x="475" 
d="M353 593q34 0 55.5 -11.5t33 -25t14 -25t-2.5 -11.5q-7 0 -8 3.5t-10 3.5q-30 0 -68.5 -23.5t-78.5 -62.5t-79 -89t-69.5 -103.5t-49 -107t-18.5 -97.5q0 -21 11 -41.5t40 -20.5q15 0 37.5 12.5t46.5 32.5t47.5 46t42.5 53t30.5 52.5t11.5 45.5q0 17 -9 30.5t-34 13.5
q-26 0 -44.5 -6.5t-31.5 -14.5t-21.5 -14.5t-14.5 -6.5q-8 0 -8 6q0 4 9 15.5t24 24.5t35.5 23t44.5 10t46 -10.5t39 -27t27.5 -37.5t10.5 -41q0 -26 -11 -54.5t-30.5 -56.5t-45 -53.5t-54 -45t-59 -31t-58.5 -11.5q-37 0 -65.5 17t-48.5 42t-30.5 53.5t-10.5 51.5
q0 56 20 114.5t52 113.5t71.5 103t79 84t74.5 56.5t57 20.5z" />
    <glyph glyph-name="slash" unicode="/" horiz-adv-x="314" 
d="M-50 -46q0 8 21 41t55.5 82t79 108.5t91.5 120.5t93.5 119t84 103t63.5 72t32 27q13 0 32 -8.5t33 -21t19.5 -26.5t-8.5 -24q-60 -36 -123.5 -92.5t-123 -121t-112.5 -131.5t-93 -123.5t-63 -97t-23 -51.5t-9 -15t-20 -1t-20 13t-9 27z" />
    <glyph glyph-name="space" unicode=" " horiz-adv-x="250" 
 />
    <glyph glyph-name="sterling" unicode="&#xa3;" horiz-adv-x="455" 
d="M314 282q11 0 29 24t35.5 60.5t30 80t12.5 81.5q0 30 -18 30q-20 0 -42 -30.5t-45.5 -78t-47 -106t-47.5 -115.5q14 5 23.5 7.5t15.5 2.5q16 0 28.5 -9.5t20 -21t8.5 -21t-7 -9.5q-7 0 -17 7t-36 7q-11 0 -25.5 -3.5t-31.5 -8.5q-23 -52 -44.5 -91.5t-41.5 -55.5
q31 14 68 25q31 10 71.5 18t84.5 8q26 0 39.5 -11t19 -24.5t4 -24.5t-6.5 -11t-5 3.5t-2.5 7t-10 7t-25.5 3.5q-59 0 -117.5 -18t-106.5 -40t-82 -40t-45 -18t-22.5 8t-20.5 17.5t-13 18t-1 10.5q37 13 68.5 53.5t60.5 97.5q-17 -9 -28.5 -14.5t-14.5 -5.5q-9 0 -17.5 9
t-8.5 24q13 6 29 13q14 6 31 14.5t37 17.5q32 69 62.5 144t62 136.5t66 101.5t74.5 40q31 0 54.5 -12t39.5 -30.5t23.5 -42t7.5 -45.5q0 -43 -16 -82.5t-39 -69.5t-47.5 -48t-40.5 -18q-13 0 -23.5 4.5t-16 9.5t-5 9.5t11.5 4.5z" />
    <glyph glyph-name="t" unicode="t" horiz-adv-x="179" 
d="M364 531q12 -1 24 -15.5t18.5 -31t4 -29.5t-19.5 -11q-14 1 -24 4t-23.5 7t-35 9t-58.5 10q-47 -70 -90.5 -149t-77.5 -155t-54.5 -142.5t-20.5 -110.5q0 -12 3.5 -13.5t3.5 -9.5t-11.5 -6t-25.5 11.5t-25.5 27.5t-11.5 43q0 45 18.5 107.5t48 132t66.5 141t75 133.5
q-63 6 -107 8.5t-72.5 4t-43.5 1.5t-20 1q-6 0 -9.5 2.5t-5.5 4.5q-3 3 -4 7q0 5 27 8.5t69 6t94 4t103 2.5q22 34 42.5 62t38.5 48t32 31.5t23 11.5q16 0 29.5 -6.5t22 -15t11.5 -17.5t-1 -13q-20 -20 -41.5 -45.5t-43.5 -56.5q23 0 41.5 -0.5t30.5 -1.5z" />
    <glyph glyph-name="three" unicode="3" horiz-adv-x="456" 
d="M277 311q27 -2 49.5 -8.5t39.5 -19.5t26.5 -33t9.5 -48q0 -26 -20 -54t-52.5 -55t-75 -51t-88 -42.5t-90.5 -29t-83 -10.5q-21 0 -34 13.5t-17.5 30t-0.5 30.5t18 14q6 0 5.5 -2t0.5 -5t7.5 -5t26.5 -2q35 0 75 12t80 31t76 42.5t64 46t44.5 42t16.5 30.5q0 19 -23.5 26
t-55.5 7q-35 0 -59.5 -4t-38.5 -9q-20 -9 -23 -9q-5 0 -11.5 9t-12 21t-8 23t2.5 15q3 3 26 16.5t56 34t71 46.5t70 52.5t53 51.5t21 45q0 15 -12 15q-23 0 -53 -10t-61.5 -25.5t-62 -35t-54.5 -39.5t-38.5 -38.5t-14.5 -30.5q0 -6 2 -12t2.5 -11.5t-2.5 -8.5t-13 -3
t-19.5 6.5t-16.5 17t-11.5 24.5t-4.5 28q0 18 29 47.5t75 57.5t103.5 48.5t114.5 20.5q21 0 38 -9t29 -23t18 -32t6 -36q0 -24 -19.5 -51.5t-49 -55t-64.5 -52.5t-67 -44z" />
    <glyph glyph-name="tilde" unicode="&#x2dc;" horiz-adv-x="393" 
d="M153 664q14 0 24.5 -5t18.5 -10.5t16 -10.5t17 -5q31 0 45.5 8.5t19.5 8.5q11 0 11 -11q0 -3 -5 -11.5t-15.5 -17.5t-25.5 -16.5t-35 -7.5q-15 0 -26 6.5t-21 14t-21.5 14t-27.5 6.5q-19 0 -28 -4q-2 0 -3 2q-3 3 -3 8q0 3 5 8t13 10.5t18.5 9t22.5 3.5z" />
    <glyph glyph-name="trademark" unicode="&#x2122;" horiz-adv-x="465" 
d="M384 560q8 0 14.5 -7t6.5 -10q0 -1 -12.5 -21t-27 -47.5t-27 -57t-12.5 -48.5q0 -6 -3.5 -7t-7.5 2t-7.5 9t-3.5 14q0 10 4 24t11 29.5t15.5 32t16.5 31.5q-14 -15 -29 -31.5t-28 -30.5q-15 -17 -29 -32q0 -2 -4 -0.5t-9 4.5t-9 7.5t-4 7.5q0 17 13 47t29 59
q-18 -24 -37.5 -52.5t-37 -53t-31 -41t-19.5 -16.5q-10 0 -16.5 4t-10.5 8.5t-5 8.5t1 4t3.5 -1.5t4.5 -1.5q9 0 30 22.5t45.5 53.5t48.5 61.5t38 47.5q-2 0 -4.5 0.5t-4.5 0.5q-22 0 -42 -1.5t-39 -3.5q-16 -20 -37 -53t-40 -66.5t-32.5 -61t-13.5 -36.5q0 -6 -3.5 -6.5
t-8 2.5t-8 7.5t-3.5 9.5q0 8 12.5 34.5t31.5 60.5q-5 6 -19.5 10.5t-30 9t-27.5 9.5t-12 11q0 8 3 17t7 12q2 3 14 10.5t33 17t50 19t67 17.5q7 7 10 7q9 0 15 -3q22 3 46.5 5t51.5 2q3 0 4 -1q3 1 6.5 1h6.5q8 0 16.5 -8t5.5 -11q-6 -7 -16.5 -23.5t-22 -37.5t-22 -43.5
t-16.5 -41.5q10 10 25 25.5t31 31.5t30.5 31.5t24.5 26.5zM109 477l28 48t27 43q-33 -7 -58.5 -16.5t-43 -18t-26 -15t-8.5 -7.5q0 -2 11 -5.5t25.5 -8t27.5 -9.5t17 -11z" />
    <glyph glyph-name="two" unicode="2" horiz-adv-x="490" 
d="M321 88q7 0 19 -8t24.5 -20t24 -26t17 -26t3.5 -20t-15 -8q-3 0 -11 6t-22 12.5t-33 12.5t-44 6q-27 0 -64.5 -10t-72 -22t-61 -22t-32.5 -10q-9 0 -18.5 6.5t-17 17t-12.5 23t-5 24.5q0 17 32 56.5t80.5 89.5t104.5 106t104.5 106.5t80.5 90t32 57.5q0 22 -14 22
q-24 0 -55.5 -13.5t-65 -35.5t-66 -49.5t-58 -55t-41.5 -52.5t-16 -42t4.5 -23t4.5 -14q0 -16 -14 -16q-11 0 -24.5 8t-25 21t-19.5 30.5t-8 35.5q0 13 17 36t46.5 50t67.5 55t80 51t85 37.5t82 14.5q17 0 32 -8t26 -20.5t17.5 -27.5t6.5 -29q0 -31 -21.5 -68.5t-56.5 -77.5
t-79 -82.5t-88.5 -85.5t-85.5 -84.5t-70 -79.5q32 10 64.5 20.5t62.5 19.5t55 15t43 6z" />
    <glyph glyph-name="u" unicode="u" horiz-adv-x="393" 
d="M218 -17q-12 0 -22 8t-16.5 19.5t-10 24.5t-3.5 23q0 8 4.5 22.5t11.5 33t16 39.5t19 41q-24 -27 -56 -62.5t-62 -67.5t-55 -56.5t-36 -28.5q-1 -1 -3 -1q-8 0 -18.5 6.5t-21 16.5t-17.5 22t-7 24q0 13 12 41.5t31.5 64t43 72.5t46 68t41.5 51t30 20q24 0 39.5 -5.5
t24 -12.5t10.5 -14t-1 -10q-6 -6 -21 -24t-34.5 -43t-41.5 -55t-42 -60.5t-36 -59.5t-24 -52q13 14 35.5 38.5t49.5 53t55 58t51 53.5t39 39t19 15q4 0 13.5 -5.5t19 -13.5t17 -16.5t7.5 -14.5t-7.5 -21t-18.5 -35t-23.5 -43t-23.5 -45t-18.5 -40.5t-7.5 -28.5q0 -6 5 -6
q11 0 30.5 16.5t42.5 41.5t46.5 53.5t42.5 52.5l18 -14q-21 -26 -47.5 -57.5t-53.5 -59.5t-51 -47t-41 -19z" />
    <glyph glyph-name="uacute" unicode="&#xfa;" horiz-adv-x="393" 
d="M218 -17q-12 0 -22 8t-16.5 19.5t-10 24.5t-3.5 23q0 8 4.5 22.5t11.5 33t16 39.5t19 41q-24 -27 -56 -62.5t-62 -67.5t-55 -56.5t-36 -28.5q-1 -1 -3 -1q-8 0 -18.5 6.5t-21 16.5t-17.5 22t-7 24q0 13 12 41.5t31.5 64t43 72.5t46 68t41.5 51t30 20q24 0 39.5 -5.5
t24 -12.5t10.5 -14t-1 -10q-6 -6 -21 -24t-34.5 -43t-41.5 -55t-42 -60.5t-36 -59.5t-24 -52q13 14 35.5 38.5t49.5 53t55 58t51 53.5t39 39t19 15q4 0 13.5 -5.5t19 -13.5t17 -16.5t7.5 -14.5t-7.5 -21t-18.5 -35t-23.5 -43t-23.5 -45t-18.5 -40.5t-7.5 -28.5q0 -6 5 -6
q11 0 30.5 16.5t42.5 41.5t46.5 53.5t42.5 52.5l18 -14q-21 -26 -47.5 -57.5t-53.5 -59.5t-51 -47t-41 -19zM289 594q5 5 11.5 -0.5t12.5 -15t10 -21t4 -17.5t-17 -18.5t-41 -25t-50 -22t-44 -9.5q-7 0 -13 5t-9 10.5t-2.5 10.5t6.5 5q9 0 26.5 11.5t37.5 27t38.5 32
t29.5 27.5z" />
    <glyph glyph-name="ucircumflex" unicode="&#xfb;" horiz-adv-x="393" 
d="M218 -17q-12 0 -22 8t-16.5 19.5t-10 24.5t-3.5 23q0 8 4.5 22.5t11.5 33t16 39.5t19 41q-24 -27 -56 -62.5t-62 -67.5t-55 -56.5t-36 -28.5q-1 -1 -3 -1q-8 0 -18.5 6.5t-21 16.5t-17.5 22t-7 24q0 13 12 41.5t31.5 64t43 72.5t46 68t41.5 51t30 20q24 0 39.5 -5.5
t24 -12.5t10.5 -14t-1 -10q-6 -6 -21 -24t-34.5 -43t-41.5 -55t-42 -60.5t-36 -59.5t-24 -52q13 14 35.5 38.5t49.5 53t55 58t51 53.5t39 39t19 15q4 0 13.5 -5.5t19 -13.5t17 -16.5t7.5 -14.5t-7.5 -21t-18.5 -35t-23.5 -43t-23.5 -45t-18.5 -40.5t-7.5 -28.5q0 -6 5 -6
q11 0 30.5 16.5t42.5 41.5t46.5 53.5t42.5 52.5l18 -14q-21 -26 -47.5 -57.5t-53.5 -59.5t-51 -47t-41 -19zM141 452q6 0 24 11.5t40 29.5t42 39t30 40q2 4 9 5t15 0t14 -3.5t7 -6.5q6 -33 15 -54t17 -34t13.5 -19.5t5.5 -9.5q0 -7 -3.5 -8.5t-7.5 -1.5q-13 0 -26.5 10.5
t-24.5 23.5q-13 15 -26 34q-23 -20 -45 -36q-19 -14 -39 -24.5t-34 -10.5q-23 0 -29.5 7.5t3.5 7.5z" />
    <glyph glyph-name="udieresis" unicode="&#xfc;" horiz-adv-x="393" 
d="M218 -17q-12 0 -22 8t-16.5 19.5t-10 24.5t-3.5 23q0 8 4.5 22.5t11.5 33t16 39.5t19 41q-24 -27 -56 -62.5t-62 -67.5t-55 -56.5t-36 -28.5q-1 -1 -3 -1q-8 0 -18.5 6.5t-21 16.5t-17.5 22t-7 24q0 13 12 41.5t31.5 64t43 72.5t46 68t41.5 51t30 20q24 0 39.5 -5.5
t24 -12.5t10.5 -14t-1 -10q-6 -6 -21 -24t-34.5 -43t-41.5 -55t-42 -60.5t-36 -59.5t-24 -52q13 14 35.5 38.5t49.5 53t55 58t51 53.5t39 39t19 15q4 0 13.5 -5.5t19 -13.5t17 -16.5t7.5 -14.5t-7.5 -21t-18.5 -35t-23.5 -43t-23.5 -45t-18.5 -40.5t-7.5 -28.5q0 -6 5 -6
q11 0 30.5 16.5t42.5 41.5t46.5 53.5t42.5 52.5l18 -14q-21 -26 -47.5 -57.5t-53.5 -59.5t-51 -47t-41 -19zM244 491q0 -16 -12 -33t-26 -17q-30 0 -30 30q0 7 3.5 16t9.5 16t13 12t14 5q28 0 28 -29zM363 498q0 -15 -7.5 -29t-22.5 -14q-14 0 -24 6.5t-10 21.5
q0 16 13 31.5t27 15.5q15 0 19.5 -8t4.5 -24z" />
    <glyph glyph-name="ugrave" unicode="&#xf9;" horiz-adv-x="393" 
d="M218 -17q-12 0 -22 8t-16.5 19.5t-10 24.5t-3.5 23q0 8 4.5 22.5t11.5 33t16 39.5t19 41q-24 -27 -56 -62.5t-62 -67.5t-55 -56.5t-36 -28.5q-1 -1 -3 -1q-8 0 -18.5 6.5t-21 16.5t-17.5 22t-7 24q0 13 12 41.5t31.5 64t43 72.5t46 68t41.5 51t30 20q24 0 39.5 -5.5
t24 -12.5t10.5 -14t-1 -10q-6 -6 -21 -24t-34.5 -43t-41.5 -55t-42 -60.5t-36 -59.5t-24 -52q13 14 35.5 38.5t49.5 53t55 58t51 53.5t39 39t19 15q4 0 13.5 -5.5t19 -13.5t17 -16.5t7.5 -14.5t-7.5 -21t-18.5 -35t-23.5 -43t-23.5 -45t-18.5 -40.5t-7.5 -28.5q0 -6 5 -6
q11 0 30.5 16.5t42.5 41.5t46.5 53.5t42.5 52.5l18 -14q-21 -26 -47.5 -57.5t-53.5 -59.5t-51 -47t-41 -19zM248 557q11 -11 29.5 -27.5t38.5 -32t37.5 -27t26.5 -11.5q6 0 6.5 -5t-2.5 -10.5t-9 -10.5t-13 -5q-18 0 -44 9.5t-50 22t-41 25t-17 18.5t4 17.5t10 21t12.5 15
t11.5 0.5z" />
    <glyph glyph-name="underscore" unicode="_" horiz-adv-x="603" 
d="M-82 -64q0 7 30.5 16.5t92.5 17.5t155.5 14t218.5 6q15 0 28.5 -12.5t21 -27t6.5 -27t-16 -12.5q-7 0 -9.5 1.5t-8.5 4t-18 5t-37 5t-65.5 4t-103.5 1.5q-76 0 -122.5 -1.5t-73.5 -4t-40 -4t-21 -1.5q-14 0 -26 4.5t-12 10.5z" />
    <glyph glyph-name="v" unicode="v" horiz-adv-x="252" 
d="M396 460q20 0 37.5 -9t29.5 -20t17 -20t1 -9q-8 0 -9.5 3.5t-10.5 3.5q-22 0 -54.5 -20t-70.5 -53t-80 -75t-82 -86q-94 -103 -200 -233q-4 -6 -12.5 -2.5t-17.5 12.5t-16 21t-7 24q0 2 8 19.5t20 44t25.5 59.5t25.5 65t20 61t8 48q0 16 -4 23t-8.5 10.5t-8 5t-3.5 6.5
q-1 2 2 4q5 5 18 5q7 0 21 -5t28 -14t24 -21t10 -27q0 -14 -8 -41t-20.5 -60.5t-27.5 -70t-29 -69.5q32 43 68 91t73 94.5t72.5 89t66.5 75t55.5 51.5t38.5 19z" />
    <glyph glyph-name="w" unicode="w" horiz-adv-x="495" 
d="M398 334q10 -3 23 -8.5t24 -14t18.5 -20.5t7.5 -27q0 -25 -18.5 -69t-50 -87.5t-74 -75.5t-90.5 -32q-7 0 -16.5 4t-18.5 12.5t-15.5 21.5t-6.5 31q0 12 2.5 25t6.5 27q-17 -23 -40.5 -52.5t-47 -56.5t-44.5 -46.5t-33 -21.5q-5 -2 -18 2t-26.5 13.5t-24 25t-10.5 36.5
q0 31 12.5 68t32 74.5t44.5 72.5t50.5 62t49 43t40.5 16q19 0 34 -9t24 -19.5t10 -19.5t-9 -9t-30 -16.5t-43.5 -43t-48 -60t-44.5 -68.5t-32.5 -68.5t-12.5 -58.5h1q4 0 15 9t26 24t33 34t36 39q42 47 94 106q9 11 14 11q9 0 18.5 -5.5t17 -12.5t12.5 -14t5 -10t-8 -16.5
t-17 -32t-17 -40t-8 -40.5q0 -5 1 -10t3 -5q16 0 41 26t48.5 64t40.5 81t17 77t-7 45q-5 5 -3 13t12 6z" />
    <glyph glyph-name="x" unicode="x" horiz-adv-x="298" 
d="M289 294q0 -14 -14.5 -36.5t-39 -50t-57 -58.5t-68.5 -62q14 -29 32 -55.5t41 -48.5q6 -5 -3.5 -12.5t-34.5 -7.5q-12 0 -35.5 22t-48.5 60q-36 -29 -71 -55t-64.5 -45.5t-52 -31t-33.5 -11.5q-5 0 -10.5 3.5t-9.5 8t-4.5 8t4.5 3.5q13 0 36.5 12t53 33t63 49.5
t66.5 61.5q-25 45 -42.5 100t-17.5 117q0 12 13 20.5t29 13t29 5t13 -4.5q0 -44 6 -95t22 -101q47 54 78.5 108t31.5 98q0 16 -3 27.5t10 11.5q10 0 24 -8t26.5 -20.5t21.5 -28t9 -30.5z" />
    <glyph glyph-name="y" unicode="y" horiz-adv-x="331" 
d="M220 233q4 0 13.5 -2t19.5 -9.5t17.5 -22.5t7.5 -41q0 -30 -15.5 -72.5t-42 -87.5t-62 -89.5t-75 -80t-80.5 -57t-79 -21.5q-30 0 -53 13.5t-36 29t-16 29t7 13.5q6 0 9 -4.5t6 -10.5t8.5 -10.5t17.5 -4.5q42 0 91 30t94.5 76.5t83.5 103t59 109.5q-21 -29 -49 -63
t-58.5 -64t-60.5 -51t-55 -24q-1 0 -3 -0.5t-4 -0.5l-1 1q-7 0 -18 6t-21.5 15t-18.5 20.5t-8 22.5q0 21 16 53.5t40 71t52.5 78.5t52.5 75t40 60.5t16 35.5q0 8 5 8q6 0 16.5 -5.5t21 -14.5t18.5 -19t8 -19q0 -8 -15.5 -32.5t-38.5 -59t-50.5 -74t-51.5 -77t-40.5 -68.5
t-18.5 -47q16 0 40 16.5t51.5 41.5t55 55.5t49.5 59.5t36 52.5t14 35.5q0 8 -3.5 14t8.5 6z" />
    <glyph glyph-name="yacute" unicode="&#xfd;" horiz-adv-x="331" 
d="M220 233q4 0 13.5 -2t19.5 -9.5t17.5 -22.5t7.5 -41q0 -30 -15.5 -72.5t-42 -87.5t-62 -89.5t-75 -80t-80.5 -57t-79 -21.5q-30 0 -53 13.5t-36 29t-16 29t7 13.5q6 0 9 -4.5t6 -10.5t8.5 -10.5t17.5 -4.5q42 0 91 30t94.5 76.5t83.5 103t59 109.5q-21 -29 -49 -63
t-58.5 -64t-60.5 -51t-55 -24q-1 0 -3 -0.5t-4 -0.5l-1 1q-7 0 -18 6t-21.5 15t-18.5 20.5t-8 22.5q0 21 16 53.5t40 71t52.5 78.5t52.5 75t40 60.5t16 35.5q0 8 5 8q6 0 16.5 -5.5t21 -14.5t18.5 -19t8 -19q0 -8 -15.5 -32.5t-38.5 -59t-50.5 -74t-51.5 -77t-40.5 -68.5
t-18.5 -47q16 0 40 16.5t51.5 41.5t55 55.5t49.5 59.5t36 52.5t14 35.5q0 8 -3.5 14t8.5 6zM277 582q5 5 11.5 -0.5t12.5 -15t10 -21t4 -17.5t-17 -18.5t-41 -25t-50 -22t-44 -9.5q-7 0 -13 5t-9 10.5t-2.5 10.5t6.5 5q9 0 26.5 11.5t37.5 27t38.5 32t29.5 27.5z" />
    <glyph glyph-name="ydieresis" unicode="&#xff;" horiz-adv-x="331" 
d="M220 233q4 0 13.5 -2t19.5 -9.5t17.5 -22.5t7.5 -41q0 -30 -15.5 -72.5t-42 -87.5t-62 -89.5t-75 -80t-80.5 -57t-79 -21.5q-30 0 -53 13.5t-36 29t-16 29t7 13.5q6 0 9 -4.5t6 -10.5t8.5 -10.5t17.5 -4.5q42 0 91 30t94.5 76.5t83.5 103t59 109.5q-21 -29 -49 -63
t-58.5 -64t-60.5 -51t-55 -24q-1 0 -3 -0.5t-4 -0.5l-1 1q-7 0 -18 6t-21.5 15t-18.5 20.5t-8 22.5q0 21 16 53.5t40 71t52.5 78.5t52.5 75t40 60.5t16 35.5q0 8 5 8q6 0 16.5 -5.5t21 -14.5t18.5 -19t8 -19q0 -8 -15.5 -32.5t-38.5 -59t-50.5 -74t-51.5 -77t-40.5 -68.5
t-18.5 -47q16 0 40 16.5t51.5 41.5t55 55.5t49.5 59.5t36 52.5t14 35.5q0 8 -3.5 14t8.5 6zM198 492q0 -16 -12 -33t-26 -17q-30 0 -30 30q0 7 3.5 16t9.5 16t13 12t14 5q28 0 28 -29zM317 499q0 -15 -7.5 -29t-22.5 -14q-14 0 -24 6.5t-10 21.5q0 16 13 31.5t27 15.5
q15 0 19.5 -8t4.5 -24z" />
    <glyph glyph-name="z" unicode="z" horiz-adv-x="307" 
d="M15 288q-16 0 -27 4.5t-18.5 11t-11 13.5t-3.5 12q0 10 7 10q4 0 5.5 -1.5t5.5 -3t14 -2.5t32 -1q32 0 67.5 6.5t68 14.5t59 14.5t40.5 6.5q8 0 8.5 -2.5t0.5 -4.5q0 -1 -13.5 -7t-35.5 -14.5t-49.5 -18.5t-55 -18.5t-52.5 -14t-42 -5.5zM258 -22q14 0 26 -9t19.5 -20
t9.5 -20t-3 -9t-6 2t-2.5 4t-6 4t-16.5 2q-23 0 -41 -0.5t-40 -3.5q-12 -32 -36 -63.5t-55.5 -56.5t-68 -41t-71.5 -16q-43 0 -65.5 10.5t-31.5 22.5t-8 22.5t6 10.5q4 0 8 -5.5t10 -11.5t15.5 -11.5t24.5 -5.5q16 0 40 10.5t50.5 29t51.5 43t45 51.5q-47 -9 -85.5 -21
t-65.5 -25.5t-41.5 -28t-14.5 -26.5q0 -5 -7 0.5t-7 19.5q0 16 19.5 35t53 37t78.5 34t97 25q6 19 6 36q0 26 -19 48t-57 22q-25 0 -42 -4t-25 -8l-6 -13q-3 -5 -12 -1.5t-18.5 11.5t-17.5 21t-8 28q0 17 24.5 42t61.5 52.5t79.5 55.5t79.5 51t61.5 38.5t24.5 18.5
q0 7 6.5 7t14.5 -7.5t14.5 -22t6.5 -36.5q0 -4 -17 -16.5t-44 -30.5l-60 -40t-66 -45t-61.5 -45.5t-46.5 -40.5q25 10 55 10q18 0 41.5 -5.5t44 -19t35 -36.5t14.5 -57v-3q14 1 24.5 1h24.5z" />
    <glyph glyph-name="zcaron" unicode="&#x17e;" horiz-adv-x="307" 
d="M15 288q-16 0 -27 4.5t-18.5 11t-11 13.5t-3.5 12q0 10 7 10q4 0 5.5 -1.5t5.5 -3t14 -2.5t32 -1q32 0 67.5 6.5t68 14.5t59 14.5t40.5 6.5q8 0 8.5 -2.5t0.5 -4.5q0 -1 -13.5 -7t-35.5 -14.5t-49.5 -18.5t-55 -18.5t-52.5 -14t-42 -5.5zM258 -22q14 0 26 -9t19.5 -20
t9.5 -20t-3 -9t-6 2t-2.5 4t-6 4t-16.5 2q-23 0 -41 -0.5t-40 -3.5q-12 -32 -36 -63.5t-55.5 -56.5t-68 -41t-71.5 -16q-43 0 -65.5 10.5t-31.5 22.5t-8 22.5t6 10.5q4 0 8 -5.5t10 -11.5t15.5 -11.5t24.5 -5.5q16 0 40 10.5t50.5 29t51.5 43t45 51.5q-47 -9 -85.5 -21
t-65.5 -25.5t-41.5 -28t-14.5 -26.5q0 -5 -7 0.5t-7 19.5q0 16 19.5 35t53 37t78.5 34t97 25q6 19 6 36q0 26 -19 48t-57 22q-25 0 -42 -4t-25 -8l-6 -13q-3 -5 -12 -1.5t-18.5 11.5t-17.5 21t-8 28q0 17 24.5 42t61.5 52.5t79.5 55.5t79.5 51t61.5 38.5t24.5 18.5
q0 7 6.5 7t14.5 -7.5t14.5 -22t6.5 -36.5q0 -4 -17 -16.5t-44 -30.5l-60 -40t-66 -45t-61.5 -45.5t-46.5 -40.5q25 10 55 10q18 0 41.5 -5.5t44 -19t35 -36.5t14.5 -57v-3q14 1 24.5 1h24.5zM278 560q-6 0 -24 -11.5t-40 -29.5t-42 -39t-30 -40q-2 -4 -9 -5t-15 0t-14 3.5
t-7 6.5q-6 33 -15 54t-17 34t-13.5 19.5t-5.5 9.5q0 7 3.5 8.5t7.5 1.5q13 0 26.5 -10.5t24.5 -23.5q13 -15 26 -34q23 19 45 35q19 14 39 25t34 11q23 0 29.5 -7.5t-3.5 -7.5z" />
    <glyph glyph-name="zero" unicode="0" horiz-adv-x="493" 
d="M328 573q20 0 41.5 -13t35 -29t15 -29t-19.5 -13q-26 0 -59 -19t-67 -51.5t-67 -75t-58.5 -89.5t-41 -96t-15.5 -93q0 -15 7 -24.5t24 -9.5q19 0 46.5 14.5t58 38.5t61 56.5t55 69t39.5 74.5t15 74q0 22 -3.5 34.5t-9 18.5t-11 7t-8.5 1q-7 0 0 8.5t21 8.5q7 0 18.5 -6
t22.5 -18t19 -30.5t8 -43.5q0 -30 -12.5 -67.5t-35 -75.5t-53 -74.5t-66 -64.5t-75 -45t-78.5 -17q-26 0 -50.5 16.5t-43.5 39.5t-30 47.5t-11 41.5q0 48 18 98.5t47.5 99t65.5 91.5t72.5 75t69.5 51t55 19z" />
    </font>
</defs>
</svg>
